<svg id="Layer_1" data-name="Layer 1" xmlns="http://www.w3.org/2000/svg" xmlns:xlink="http://www.w3.org/1999/xlink" viewBox="0 0 788.99 841.45"><defs><style>.cls-1{fill:#161514;}.cls-2{fill:#342b21;}.cls-3{fill:#6fcbd9;}.cls-4{fill:#3e8088;}.cls-5{fill:#5ac0ce;}.cls-6{fill:#58becc;}.cls-7{fill:#f09f48;}.cls-8{fill:#f5dfc3;}.cls-9{fill:#ffca65;}.cls-10{fill:#f3806e;}.cls-11{fill:#f16a70;}.cls-12{fill:#ed6489;}.cls-13{fill:#f2785f;}.cls-14{fill:#d05b5b;}.cls-15{fill:#ee8244;}.cls-16{fill:#f48768;}.cls-17{fill:#f79e5f;}.cls-18{fill:#fbbb87;}.cls-19{fill:url(#radial-gradient);}.cls-20{fill:#fcbd66;}.cls-21{fill:#f27771;}.cls-22{fill:#f27267;}.cls-23{fill:#fff;}.cls-24{fill:#fab055;}.cls-25{fill:#faaf63;}.cls-26{fill:#f16a79;}.cls-27{fill:#ed3e87;}.cls-28{fill:#f59164;}</style><radialGradient id="radial-gradient" cx="535.68" cy="402.32" r="266.38" gradientUnits="userSpaceOnUse"><stop offset="0.2" stop-color="#ed4970"/><stop offset="0.8" stop-color="#fcb619"/><stop offset="0.87" stop-color="#fcc116"/><stop offset="0.96" stop-color="#fcd811"/></radialGradient></defs><path class="cls-1" d="M631,163.77c-1.1-12.32-2.3-26.28-3.67-40.22-.21-2.13.29-2.91,2.36-2.69a1.07,1.07,0,0,0,.31,0c5.67-.83,10.21.85,14.34,5.08,13.55,13.87,27.36,27.48,41.12,41.13,5.86,5.8,11.69,11.65,17.84,17.13,5.63,5,9.14,5.08,15.65,1.12,10.57-6.44,21-13.12,31.7-19.32a101.55,101.55,0,0,1,31.51-11.66,28.45,28.45,0,0,1,6.76-.54c3.07.14,4.46,2.49,3,5.2a19,19,0,0,1-4,5.07c-6.53,5.85-13.12,11.65-19.84,17.27a124,124,0,0,0-21.62,22.89,47.84,47.84,0,0,0-5,8.5c-2.26,5.22-1.09,7.28,4.49,8.11,5,.75,10,1.1,15.07,1.62,15.13,1.55,30.1,4.06,44.37,9.48a79.36,79.36,0,0,1,13.9,7.29c1.5,1,2,3.44,3,5.22-1.8,1-3.55,2.59-5.4,2.73-13.57,1-27.19,1.5-40.75,2.67-11.43,1-22.7,3.12-33.26,8a15.66,15.66,0,0,0-2.61,1.88,24.66,24.66,0,0,0,2.33,1.89c53.05,33.78,90.89,79.71,111,139.58,3.54,10.53,5.58,21.55,8.49,32.3a15,15,0,0,0,2.93,5.13,28.8,28.8,0,0,0,4.09,3.77c6.51,5.58,9.17,12.73,8.8,21.19a85.28,85.28,0,0,1-8.31,33.09,71.22,71.22,0,0,0-6.33,20.56C860,540,853,561.75,843.46,582.73a16.37,16.37,0,0,0-1.38,6.21c-.32,13.71-.42,27.42-.71,41.13-.18,8-.57,16-.88,24-.41,10.42-3.37,19.81-11.8,26.55-9,7.2-18.07,14.37-27.46,21.06-14.26,10.17-29.34,19.26-43.1,30-11.46,9-21.67,19.63-32.17,29.82-8.24,8-17.42,14.52-28.1,18.71A159.23,159.23,0,0,1,681,785.41c-2.14.57-2.91,1.37-2.93,3.7-.07,10,.17,20-.79,30-1.3,13.44-5.93,26.1-11.05,38.54-.55,1.33-1,2.69-1.51,4-1.16,3.36-.85,6.29,1.67,9.15,5.14,5.82,6.9,12.34,5.22,20.31-3.6,17.15-6.39,34.47-9.65,51.69a65.68,65.68,0,0,1-2.85,9.44c-.24.7-1.28,1.13-1.95,1.68-.5-.66-1.29-1.25-1.44-2-1.4-6.55-2.68-13.13-4-19.69a21.7,21.7,0,0,0-.46-2.43,5.68,5.68,0,0,0-.92-1.37,5.41,5.41,0,0,0-.86,1.2c-1.38,3.78-2.89,7.52-4,11.37-2.63,8.82-8.33,13.8-17.5,15.27-10.79,1.73-21.5,4-32.28,5.77-1.63.26-3.48-.85-5.24-1.32.67-1.71.86-3.93,2.07-5,5.59-5.17,11.36-10.18,17.29-15a14.5,14.5,0,0,0,5.71-12.68c-.27-6.6-.67-13.19-.71-19.79-.09-12.66.07-25.32.06-38,0-13.18.15-26.37-.19-39.55-.26-10.3-.94-20.6-1.82-30.87a114.82,114.82,0,0,0-6.82-31c-2.58-6.88-3.07-14.66-3.78-22.11-.69-7.28-.3-6.87-7.49-7-13.4-.2-26.79-.89-40.17-1.61-2.4-.13-3.62.44-4.42,2.59-3.51,9.47-7.08,18.92-10.61,28.38-.5,1.35-.87,2.75-1.39,4.1-.64,1.67-2,3.39,1.45,3.66.67.06,1.54,2.29,1.67,3.59a48.46,48.46,0,0,1-4.86,25.82c-4.77,10.06-9.69,20.06-14.3,30.2-4.3,9.48-8.23,19.14-12.45,28.65-1.5,3.39-.83,6.2,1.42,8.86,1.8,2.12,3.77,4.12,5.41,6.36a15.1,15.1,0,0,1,2.07,15.17c-5.53,14.87-10.76,29.86-16.19,44.77A31.35,31.35,0,0,1,499.2,947c-1.61,2.44-3.33,2.1-4.45-.56q-2.69-6.42-5.46-12.8a7.2,7.2,0,0,0-.83-1.18,6.21,6.21,0,0,0-1,1.11c-1.06,2.24-2.11,4.48-3.08,6.76-2.69,6.25-7.61,10-14.12,10.74-12.38,1.46-24.83,2.4-37.27,3.25-1.55.11-4.09-1.3-4.6-2.61s.42-4,1.61-5a95.61,95.61,0,0,1,10-7.26c4.68-3.2,9.38-6.37,14.14-9.45a8.24,8.24,0,0,0,4-7.84c-.15-2.87-.42-5.75-.83-8.6q-2.14-15-4.43-30c-.89-5.89-.28-11.49,2.84-16.71a28.13,28.13,0,0,0,3.69-15.44q-.94-40.67-1.93-81.34c-.13-5,2.34-7.58,7.43-6.67,2.67.49,2.7-.25,2.92-2.71.77-8.81,2.08-17.57,3.22-26.35.5-3.86,1.08-7.72,1.62-11.58,0-.21,0-.47.07-.61,3.19-4.12-.29-4.74-3-5.93-51.33-22.31-92.92-56.24-123.24-103.54-1.22-1.91-2.22-2-4.23-1.3-15.22,5.33-30.68,9.64-46.9,10.69-6.08.4-12.06.22-17.62-2.3-13.52-6.12-27-12.28-40.35-18.83-8.13-4-15.89-8.77-23.84-13.17-3.44-1.9-3.53-1.87-3.34,2.2.24,5.35.49,10.72,1,16.05a13.9,13.9,0,0,0,1.89,5c1.24,2.26,0,3.39-1.73,4.11-6.64,2.84-13.31,5.75-20.67,6-7.21.29-14.43.3-21.64.41-8.4.13-16-2.86-23.4-6.32-3.48-1.62-3.81-3.42-1.5-6.38a4.17,4.17,0,0,0,.78-2.5c-.14-6.08-.33-12.16-.66-18.23a3.2,3.2,0,0,0-1.52-2.25c-7.43-3.52-9.61-9.71-5.08-16.55,2.17-3.28,3.22-5.21-.56-8.16-3.18-2.47-2.57-7.72.76-12.11,1.29-1.7,1.59-2.55-.18-4.18-3-2.79-3.63-6.19-1.44-9.85a78,78,0,0,1,7.77-10.32c1.24-1.46,1.67-2.12-.41-3s-4.56-2.1-3.67-4.57a10.55,10.55,0,0,1,4.7-5.53,9.51,9.51,0,0,0,4.08-4.08c3-4.75,6.43-9.23,9.7-13.81.52-.73,1.35-1.34,1.62-2.14,1.51-4.6,4.86-6.89,9.43-7.21,2.42-.17,2.52-1.11,2.39-3.09-.3-4.42-.21-8.86-.49-13.28-.21-3.18,1.43-4.11,4.13-3.8,3.38.39,6.74,1,10.1,1.49,1.43.22,2.83.58,4.26.83,6.76,1.17,7.57,2,7.69,9.1,0,3-.44,6-.39,8.94a3.22,3.22,0,0,0,1.66,2.39c3.25,1.27,6.73,2,9.91,3.4,8.13,3.6,12.5,10.64,15.44,18.51,3.21,8.58,5.79,17.41,8.7,26.11,1.6,4.79,3.32,9.54,5,14.31a22.8,22.8,0,0,0,11.27,13c10,5.21,20.08,10.12,30,15.48,7.3,4,14.55,2.76,21.51,0s13.48-6.65,20.23-10c1.92-.94,2.39-1.93,1.63-4.1-2.24-6.43-4.07-13-6.31-19.42a6.26,6.26,0,0,0-3-3.33c-5.47-2.41-6.13-3.83-6.53-9.81-.81-11.83-2.08-23.62-3.21-35.43q-3.37-35.11-6.8-70.23c-.49-5.12-1-10.24-1.63-15.34-.27-2.21.29-3.68,2.48-4.63,7.76-3.37,15.49-6.8,23.15-10.39a6.87,6.87,0,0,0,3.31-3.2c29.59-73.46,82.59-123.09,155.38-152.46,23.93-9.65,49-15.4,74.37-19.69,5.77-1,11.7-1,17.56-1.47a23.54,23.54,0,0,0,2.61-.5,10,10,0,0,0-2-1.76q-16.32-8.19-32.67-16.26c-2.22-1.09-4.58-1.93-6.69-3.19-1.12-.67-2.75-2.22-2.56-3a11.67,11.67,0,0,1,3-5.33c.95-.94,2.86-1,4.38-1.22,24.08-2.89,48-2.32,71.62,3.62,5.68,1.43,11.22,3.47,16.8,5.3,2.34.77,3.41.15,3.54-2.4C629.8,184.21,630.38,174.86,631,163.77ZM478.92,503.09l0,0,.5-.6.08-.12.67-1.1h0l.57-.63,0-.05.46-.57.12-.18.75-1,6.13-8c.62-.68,1.24-1.35,1.85-2,2-1.45.06-2.26-.61-3.1-3.67-4.56-3.66-6.48.09-11,1.68-2,3.22-4.16,4.82-6.24.15,0,.2-.1.16-.24l2.31-2.78,0,0,.64-.58.61-.62.62-.62.62-.62.62-.62c.2-.21.41-.41.62-.61l1.25-1.31.56-.53.63-.67h0l3.44-3,.14-.11,5.79-4.26c7.19-3.7,14.58-6,22.88-4.57,19,3.29,32.9,15,46.29,27.61a6.28,6.28,0,0,1,1.52,7.42,27.51,27.51,0,0,1-2.71,4.08l-.59.62-.6.64-.61.63-.6.62c-3,2-1.24,3.46.57,4.9l.64.65.58.65.59.65.82,1,1.2,1.32.57.62.59.63a9.82,9.82,0,0,0,.78,1.29c11.16,13.55,22.29,27.11,33.53,40.58,2.14,2.57,4.71,4.78,7.08,7.15l.69.54c4.76,4,10.32,4.64,16.26,4,10.25-1.1,20.51-2.06,30.76-3.1,6.95-.7,13.9-1.43,20.86-2.15a3.18,3.18,0,0,0,.62,0c21.93-2.47,43.87-4.91,65.79-7.45,5.67-.66,6.77-1.84,8.21-7.43,2.05-8,3.69-16.11,6.2-23.95,7-21.9,14.38-43.68,21.53-65.53.26-.78,0-2.45-.45-2.64-5.39-2.29-10.86-4.38-16.32-6.53l-.68-.31-5.43-4.4c-.14-1.63-.74-3.38-.35-4.86,2.68-10,5.27-20.1,8.49-30,1.93-5.92,4.65-7.09,10.78-5.86a91.06,91.06,0,0,1,10,3c1.54.51,2.31.35,2.4-1.48.15-2.66.63-5.33.61-8a3.43,3.43,0,0,0-1.77-2.57c-5.32-1.94-10.66-3.9-16.12-5.34-10.63-2.8-21.36-5.26-32-7.86l-.74-.15-5.43-1.07-.81-.15L742,364l-6.79-1.16-1.78-.25-6.26-1-1.8-.22-6.8-1-1-.23c-3.44-.5-6.87-1.15-10.33-1.47-8.19-.76-16.4-1.36-24.6-2l-1.35-.12a4,4,0,0,0-1.16-.39c-24.61-.67-49.23-1.35-73.85-1.86-.91,0-2.38,1.39-2.69,2.41-2.67,8.54-5.12,17.13-7.64,25.71l0,0a16.61,16.61,0,0,1-12.92,6.08c-16.49.31-33,1-49.46,1.18-18.55.24-37.11.22-55.67.14a100,100,0,0,1-13.81-1.18c-4.79-.7-7.7-3.81-8.77-8.46a71.61,71.61,0,0,1-1.5-9.44c-.22-2.31-.76-3.23-3.38-2.68-8.47,1.76-17,3.15-25.51,4.88-7.75,1.58-15.44,3.41-23.16,5.14L394.14,380l-22.43,5.79-3.4,1-.15-.07-.1.14-2.05.58a.28.28,0,0,0-.43.12l-1.53.47-.2-.05-.14.15-1.64.5-.83.23c-2.07.56-4.19,1-6.22,1.7-9.79,3.42-19.57,6.91-29.35,10.37a.3.3,0,0,0-.44.17l-1.26.47-.62.24-.83.33a.25.25,0,0,0-.39.17l-1.31.49-.57.23-2.55,1c-4.51,1.75-9,3.56-13.53,5.21-2,.73-2.49,1.84-2.27,4,3,28.19,5.82,56.38,8.74,84.57,1.17,11.27,2.53,22.52,3.66,33.79.28,2.8,1.79,3.89,4.27,4.37,14.66,2.84,29.24,6.13,44,8.43,12.3,1.92,24.78,2.68,37.18,4a4.66,4.66,0,0,0,1.16.35c12,.2,23.92.62,35.86.39a14.35,14.35,0,0,0,8.54-3.57,117,117,0,0,0,12.88-13.73c4.72-5.81,8.92-12,13.35-18.08v0c1-1.45,2-2.89,3-4.34l0-.06,1.21-1.79,0-.05.45-.56.13-.19.66-1v0l1.26-1.83h0Zm-1.08,367.07c2.72-10.38,6.79-20.07,13.82-28.39,3.25-3.85,6.24-8,6.88-13.26l.2-1,.45-2.05.18-1c.14-.68.27-1.37.41-2,.05-.35.11-.69.16-1l1-4.72.27-1.46.93-3.53.42-1.44q1.14-2.83,2.29-5.67c.16-.72.31-1.44.47-2.17l-1.66,1.3-4.56,5.31-.87,1L486.34,820.2l-4-1.41-1.95-6.23-.34-1.25-1.5-5c-.32-1-.64-2.05-.95-3.08q-1.08-3.72-2.14-7.44l-1.3-3.34-.46,3.33c-.11,1.95-.23,3.9-.34,5.86l-.19,10q0,12.63,0,25.26l.16,3.82c.16,3.27.31,6.53.47,9.8.05,1.07.09,2.13.14,3.2.16,2.65.31,5.29.47,7.94.06,1.27.11,2.55.17,3.82l.33,11.31c.14,2.18.29,4.37.44,6.55.45-1.94.91-3.89,1.33-5.84a4.68,4.68,0,0,0,0-1.18l.4-2.15.14-1,.44-2.09C477.72,870.82,477.78,870.49,477.84,870.16ZM738.37,743.24l6.74-6.25a11.8,11.8,0,0,0,1.29-.76c14-10.49,27.93-21.15,42.09-31.44,10.83-7.87,22.23-15,32.89-23,5.46-4.13,10.57-9.35,12.2-16.35,1.5-6.47,1.87-13.22,2.69-19.85a5.63,5.63,0,0,0-.36-1.71,6.74,6.74,0,0,0-1.73,1c-11.52,12.51-25.93,20.72-41.59,26.49a58.63,58.63,0,0,0-17,9.58c-20,16.24-39.87,32.65-60,48.77-6.23,5-12.64,10.07-21,11.31-5.19.77-10.41,1.34-15.6,2.17-.91.14-2.25,1-2.42,1.7-.51,2.28-2,2.4-3.86,2.68-3.45.51-6.84,1.36-10.24,2.15a6.09,6.09,0,0,0-1.73,1.12,8,8,0,0,0,2.08.73c5.54.35,11.1.58,16.65,1a10.16,10.16,0,0,1,2.85,1.17c-.88.66-1.67,1.64-2.66,1.92-5.15,1.45-10.37,2.67-15.53,4.1a12.42,12.42,0,0,0-2.79,1.67,11.53,11.53,0,0,0,3.33.89c5.35-.23,10.69-.75,16-.9,1.22,0,2.47,1,3.71,1.57-1.1.84-2.07,2.09-3.31,2.47-5.12,1.54-10.33,2.79-15.49,4.23a6.82,6.82,0,0,0-1.87,1.34,6.92,6.92,0,0,0,2.23.64c6.16-.51,12.3-1.21,18.46-1.62,1.29-.08,2.65.81,4,1.25-1,1-1.86,2.53-3.11,3.07-3.76,1.64-7.72,2.85-11.54,4.38-.85.34-1.47,1.29-2.19,2,1,.23,2.12.83,3.07.64,14.89-2.92,30-5.53,41.61-16.51C723.78,757.7,731,750.42,738.37,743.24ZM469.43,247.16l-1.59,1-.81.41-2.2,1-4.09,2-4.6,2.27-2.8,1.49-2.84,1.5-.79.45-17.12,10.13-1.49,1-4.09,2.7-1.48,1-4.72,3.31-1.45,1.05-6,4.49L412,282l-4.8,3.83L405.78,287l-2.34,1.95-1.36,1.16-3.62,3.15-1.32,1.2Q385.06,306.79,373,319.15l-1.16,1.34-1.95,2.36-1.13,1.38-1.36,1.7-1.11,1.4-9.44,12.82-1,1.46a1,1,0,0,0-.23.38l-1,1.47a1,1,0,0,0-.24.38c-.33.49-.67,1-1,1.48a1,1,0,0,0-.23.38l-1,1.48-5.88,9.62c-.3.51-.6,1-.91,1.53l-1.57,2.81-.88,1.54L335,378.41l-1.32,2.86c-.38.91-.77,1.81-1.15,2.72l-.71,1.61L330,390.16c-.17.4-.34.8-.52,1.2l1,.12,2.23-.72,5.34-1.88,2.07-.69,7.24-2.32,4.52-1.41,3.25-1,3-.89,1.65-.47,2.68-.79,1.65-.46,2.68-.78,1.66-.44,2.68-.77,1.39-.37,5.42-1.49,1.39-.35,1.08-.3,1.39-.34,1.08-.31,1.4-.33,1.08-.3,1.39-.32,1.08-.3,1.4-.32,1.08-.29,1.4-.32,1.08-.29,1.4-.31,1.08-.28,1.4-.32,1.08-.26,1.4-.32,4.16-1,1.4-.3,1.09-.27,1.4-.31,1.1-.24a16.52,16.52,0,0,0,2.11-.17c13.93-2.74,27.78-6.1,41.82-8.12,23.74-3.42,47.56-6.47,71.43-8.78,22.85-2.21,45.79-3.87,68.73-4.69a779.77,779.77,0,0,1,91.45,2c26.11,2.13,52.14,4.74,77.73,10.33,15.36,3.35,30.41,8.18,45.59,12.36,2.44.68,3.92,2.2,3.82,4.9-.47,5.32-1,10.64-1.34,16a2.18,2.18,0,0,0,1.08,1.65c3.94,1.72,7.94,3.32,11.92,5,.23.29.41.7.71.87,3.3,1.83,5,4.36,4.4,8.36-.13.85.91,2.19,1.77,2.83,8,5.95,16.15,11.8,24.27,17.64a16.06,16.06,0,0,0,2.67,1.29,13.91,13.91,0,0,0,0-3.22,243.8,243.8,0,0,0-17.93-52.26,255,255,0,0,0-41.31-61.35,270.46,270.46,0,0,0-56.09-46.84,8.52,8.52,0,0,0-2.49-.65,11.71,11.71,0,0,0,1.13,2.3C751.49,283.49,762,298.76,769.3,316c2.37,5.61,3.55,11.76,4.9,17.75.61,2.72.33,5.83-2.64,7.33s-5.65.06-7.92-1.91c-3.9-3.37-7.84-6.71-11.53-10.29a260,260,0,0,0-39.29-31.44,149,149,0,0,0-81.73-24.65c-15.26-.14-30.22,2.09-45.05,5.24-13.1,2.79-26.07,6.21-39.13,9.2-1.26.29-2.77-.54-4.17-.84.36-1.28.37-2.85,1.14-3.8A149.72,149.72,0,0,1,570,256.8,118.26,118.26,0,0,1,601.92,240a12.08,12.08,0,0,0,2-1.21,9.24,9.24,0,0,0-1.46-1.84c-3-2.23-5.93-4.48-9-6.52-1.57-1-3.39-2.22-5.17-2.36-22.22-1.64-44.28.15-66.23,3.58C504.78,234.33,488.33,240,472,246l-1.76.75Zm3.82,276.25-1.08,1.38-.78,1-1.09,1.43-.77,1-1,1.45a.88.88,0,0,0-.24.36c-.35.49-.7,1-1.06,1.45l-.77,1c-.36.48-.73,1-1.09,1.42L464,535.77l-1.12,1.39-1.4,1.66-2.35,2.64-5,5.44L449,551.81a1,1,0,0,0-.36.25l-1.45,1a1.09,1.09,0,0,0-.39.23l-1.52.95a1.06,1.06,0,0,0-.39.21l-.82.43-.94.4c-4.17.54-8.33,1.39-12.52,1.55-22.76.91-45.31-1.52-67.7-5.27-13-2.18-25.87-5.14-38.8-7.76-1.31-.26-3.19-.91-2.41,1.47,2.41,7.3,5.1,14.52,7.67,21.77l.57,1.47.66,1.62.6,1.47,1.21,2.88.63,1.45,1.29,2.87c.6,1.31,1.21,2.62,1.81,3.94l3.89,7.75,2.14,4.07,2.22,4,.9,1.6,1.6,2.71a1.11,1.11,0,0,0,.23.41c.54.89,1.09,1.78,1.64,2.67a1,1,0,0,0,.23.41l.94,1.5,1,1.57,1,1.47a1.14,1.14,0,0,0,.24.41l1,1.46a1.15,1.15,0,0,0,.24.4l1,1.46a1.1,1.1,0,0,0,.24.4l1,1.45a1.28,1.28,0,0,0,.25.4l1,1.44,2,2.91,1,1.43.78,1.07,1,1.43.78,1.06,1.09,1.41.79,1,1.09,1.4,1.35,1.73,1.12,1.38,1.38,1.7,1.13,1.36,2,2.34,1.73,2,2.6,2.95,2.37,2.6,15.48,15.44,2,1.79,4.26,3.77,1.33,1.15,2.35,2,1.35,1.14,4.81,3.85,1.39,1.1,8.52,6.33,1.43,1a1.14,1.14,0,0,0,.39.25l1.44,1,6,4,1.48,1a1.34,1.34,0,0,0,.4.23l1.49,1,3.47,2.13,1.5.93,1.6.93,2.7,1.6,1.62.9,2.73,1.55,4.06,2.18,7.71,4,.91.44,5.32,2.58,4,1.79,2.86,1.28,1.45.62,2.88,1.22,1.47.6,1.62.66,1.48.58,1.62.64,1.49.55,5.31,2,3.35,1.15,5.37,1.76,1.06.34,5.12,1.54,1.07.32,3.27.91,1.07.31,5.74,1.5,1.08.3,1.4.31,1.08.29,4.48,1,1.08.25,1.41.28,1.68.38,1.41.28,1.08.24,2,.37,1.69.34,1.41.24,1.69.33,2,.32,1.69.29,2,.3,2.3.37,2,.28,2.32.33,2.64.3,2.31.31,3.25.34,2.94.29,4.49.36,3.56.25,5.12.31h26.3l5.1-.31,4.18-.3,4.49-.34,2.94-.28,3.25-.33,2.32-.31,2.64-.31,2.31-.31,2-.29,1.71-.26,2.62-.4,1.7-.3,2-.32,1.09-.2,2-.37,1.69-.34,1.4-.26,1.7-.35,1.4-.28,1.1-.23,2-.44,1.09-.26,1.39-.31,1.09-.25,8.82-2.23,1.08-.3,3.26-.91,1.08-.3,3.25-1,1.07-.35,12.8-4.22,1.49-.53,5.3-2,1.49-.55,1.62-.65,1.48-.58,1.61-.67,1.48-.59,2.87-1.22,1.46-.63,2.86-1.28,5.2-2.39,10.21-5.16,4.08-2.16,2.74-1.54,2.82-1.58,1.51-.91,1.6-.92,1.5-.92L737,693l1.48-.94,3.47-2.16,1.46-1a1.14,1.14,0,0,0,.41-.24l1.46-1a1.1,1.1,0,0,0,.4-.24l1.45-1a1.28,1.28,0,0,0,.4-.25l1.45-1,2.92-2,1.44-1a1,1,0,0,0,.39-.26l1.42-1,1.09-.77,1.41-1.06,1.07-.78,1.41-1.08,1.06-.79c.47-.36.94-.72,1.4-1.09l4.83-3.82,1.35-1.14,2.37-1.95,1.34-1.15,3-2.57,2-1.77,5.47-5,9.29-9.29,5.63-6.1,1.18-1.33,2.57-3,1.71-2,1.4-1.7,1.12-1.37,3.83-4.81,1.09-1.4.79-1.06,1.08-1.41.78-1.06,1.06-1.43.77-1.08,1-1.43a1,1,0,0,0,.25-.38l1-1.47a1,1,0,0,0,.24-.4l1-1.48,2-2.93c1.49-2.26,3-4.48,4.46-6.78a241.49,241.49,0,0,0,32.36-83.4c1-5.55,3.81-11.33-.28-16.88a1.4,1.4,0,0,1-.13-.6c-.86-6.53-2-13-2.51-19.59-1.06-12.58-8.2-21.15-17.85-28.21l-17.2-11.5c-1.77-1.2-3.8-2.16-5.26-3.66-3.82-3.94-6.39,2-9.78,1a1.52,1.52,0,0,0-1.36.42,5,5,0,0,0-.4,1.74c-1.33,6.14-2.12,12.45-4.09,18.37-8.38,25.24-17.07,50.37-25.8,75.49a8,8,0,0,1-3.83,4.48A49.3,49.3,0,0,1,756.93,547C741,549,725,550.71,709,552.44c-11.26,1.22-22.53,2.43-33.81,3.46-9.85.9-19.72,1.53-29.58,2.3-6,.47-12,1.31-18-.92a40.33,40.33,0,0,1-17-12.48c-11.37-13.6-22.78-27.16-33.86-41a210.58,210.58,0,0,0-33.27-33.46c-7.85-6.23-13.79-6.21-22.43-1a75.05,75.05,0,0,0-20.85,19.09c-8.92,11.69-18,23.3-27,34.94Zm-263,45.23h-.11c0,2.89.21,5.79-.06,8.65s.82,4.56,3.38,5.81c7.79,3.79,15.47,7.79,23.23,11.64,12.17,6,24.43,12,36.56,18.09,9.16,4.63,18.7,5.5,28.6,3.5a7.27,7.27,0,0,0,3.77-2.19,88,88,0,0,0,8.15-10.49,144.8,144.8,0,0,0,8.58-15.95,63.44,63.44,0,0,0,3.51-11.52c.33-1.41-.24-3-.4-4.57a13.86,13.86,0,0,0-3.57.81c-5.85,3-11.54,6.39-17.47,9.24-5.33,2.55-11.09,2.94-17,2.12-16.78-2.35-31.4-9.74-45.1-19.25a26,26,0,0,1-10.19-13.65c-1.44-4.52-2.65-9.11-4-13.66-3.46-11.76-6.16-23.85-12.71-34.4-2-3.18-5.39-5.51-8.28-8.06a3.77,3.77,0,0,0-2.55-.19c-.3,1.26-.76,2.79-.29,3.85,1.37,3.15,3.4,6,4.68,9.21.79,2,1.44,3.25,3.75,3.78,3.4.79,5.28,4.09,3.47,6.52-2.34,3.11-2.22,6.45-2.64,9.88s-1.62,4.09-5.08,3.4a71.56,71.56,0,0,0-7.91-1.39c-3.1-.23-4.62,1.74-3.77,4.73a10.67,10.67,0,0,0,2.13,4.07,108,108,0,0,0,8.18,8.4c5,4.56,10.31,8.89,15.39,13.41.61.54.66,1.73,1,2.61-.94-.1-2.06.09-2.78-.37-2.7-1.71-5.24-3.65-7.9-5.44a9.87,9.87,0,0,0-2.19-.81,14.18,14.18,0,0,0-.37,2.32C210.21,562,210.24,565.34,210.24,568.64Zm-39.85-45.58v.68c-5.76,0-11.54.18-17.3-.08-2.56-.11-3.14.65-3.12,3.05.13,12.57.36,25.15.08,37.72-.31,13.91-1.05,27.8-1.79,41.69-.15,2.87,1.11,4,3.48,5,16.14,6.34,32.72,5.88,49.39,3.13,5.64-.92,6.05-2.15,5.86-7.67-.53-15.14-1.14-30.28-1.13-45.41,0-5.44-.2-10.06-5.52-13a10.65,10.65,0,0,1-3-3.1c-2.68-3.57-5.19-7.25-4.77-12.06.35-4,2.34-6.32,6.36-6.7a35.7,35.7,0,0,1,7.06.41c1.28.14,2.47.69,2.52-1.4,0-1.69-.41-2.3-2.27-2.28C194.31,523.1,182.35,523.06,170.39,523.06ZM527.83,383.88c17.68-.56,36-1.07,54.37-1.76,7.31-.27,9.35-1.94,11.63-8.84,1.71-5.19,3-10.54,4.92-15.64,1.16-3.07.29-3.35-2.48-3.29-31.06.62-62.07,2.23-92.92,6-14,1.72-28,4-42,5.85-2.3.31-3.06,1.07-2.34,3.37.79,2.56,1.29,5.2,2,7.79.87,3.33,3,5.41,6.47,5.73,3.79.34,7.59.72,11.39.74C495,383.92,511.05,383.88,527.83,383.88Zm343.58,76c.4-7.57-3.09-13.26-8.37-18.21-10.9-10.23-23.87-17.56-36.09-25.94-1.72-1.18-2.1.16-2.68,1.25-3.06,5.73-6,11.52-9.23,17.15-1.18,2.05-.83,2.7,1.16,3.9,9.25,5.57,18.52,11.13,27.42,17.22,6.22,4.26,11.83,9.59,14.89,16.64,2.3,5.31,3.41,11.15,5.07,16.75a12.86,12.86,0,0,0,.73,1.61,5.82,5.82,0,0,0,.86-1.21C868.82,479.67,870.42,469.83,871.41,459.9Zm-82.29-67c-1.07,1.15-2.75,2.15-3.19,3.54-2.86,8.9-5.44,17.89-8.15,26.85-.88,2.94.22,4.69,3,5.72,6.29,2.3,12.5,4.78,18.81,7,5,1.8,7.33,1,9.81-3.7,3.86-7.38,7.38-14.94,11.1-22.4,1-2,.51-3.34-1.13-4.8C811,397.62,800.07,396.45,789.12,392.91Zm-128.68,426a13.69,13.69,0,0,0-2-3.11c-2-1.89-4.05-4-6.46-5.23-4.36-2.29-6.07-5.95-6.65-10.46-1-7.87-2-15.74-3-23.61a9.56,9.56,0,0,0-.52-1.68c-.37.41-.92.76-1.09,1.24q-6.15,17.31-12.23,34.63a8.6,8.6,0,0,0-.34,1.82c-.18,1.61.41,2.16,1.94,1.35a58.36,58.36,0,0,1,5.19-2.73c3-1.24,5.18,0,5.34,3.35a42.1,42.1,0,0,1-.49,7.07q-3.78,31.14-7.62,62.29a9.6,9.6,0,0,0,.16,2,7.93,7.93,0,0,0,1.25-1.56q3.71-8.5,7.3-17c5.68-13.48,11.37-27,17-40.48A71.66,71.66,0,0,0,660.44,818.89Zm15.07-85.42a16.83,16.83,0,0,1,0,2.55c-.28,2.32.46,3.15,2.92,2.69a59.77,59.77,0,0,1,7.09-.54c8.18-.52,15.89-2.31,22.49-7.58,5.16-4.11,10.56-7.93,15.71-12.05,12.17-9.72,24.25-19.55,36.38-29.31,9.08-7.31,18.16-14.63,27.32-21.83a20.07,20.07,0,0,0,7.62-12,5.6,5.6,0,0,0-.06-1.35,6.27,6.27,0,0,0-1,.66c-1,1-2,2.12-3.06,3-11.18,9.59-22,19.61-33.66,28.63-23.14,18-50,29.05-77,39.57C675.32,727.88,675.28,727.79,675.51,733.47ZM706.76,225.6a26.73,26.73,0,0,0,15.4-8.81C728,210.38,734,204.18,740.06,198c2.51-2.58,5.53-4.74,7.74-7.54a7.74,7.74,0,0,0,1.25-5.81c-.56-2.46-3.09-3.29-5.52-2.78a25.83,25.83,0,0,0-5.77,2.12c-7.32,3.58-14.64,7.15-21.86,10.93a130,130,0,0,0-13,7.67,25,25,0,0,0-6.3,6.25A10.13,10.13,0,0,0,696,220C698.05,223.64,701.39,225.56,706.76,225.6Zm-535,294.9,35.92-2a8.75,8.75,0,0,0,2.73-.37c.76-.31,2-1.23,1.86-1.58-.23-.85-1.07-2.13-1.73-2.16-3.81-.2-4.81-3-5.92-5.81-.82-2.11-1.86-4.14-2.77-6.21s-2.06-2.81-4.36-2.37a77.36,77.36,0,0,1-8.61.95c-8.58.67-17.08.62-25.29-2.63a3.53,3.53,0,0,0-3.16.88c-3,3.87-5.95,7.83-8.61,12-1.37,2.13-2.64,3.89-5.42,3.89a4.44,4.44,0,0,0-2,.61c-.59.33-1.51,1-1.44,1.39a2.63,2.63,0,0,0,1.39,1.78,21.49,21.49,0,0,0,6.23,1.59C159,520.6,167.41,520.5,171.75,520.5ZM518.18,773l1.32-.22a5.59,5.59,0,0,0-.68-1.88c-4.87-5.43-9.57-11-14.77-16.15-8.38-8.21-17.1-16.08-25.7-24.06a17.11,17.11,0,0,0-2.44-1.6,12.19,12.19,0,0,0-.88,2.52c-1.16,10.21-2.33,20.42-3.26,30.64-.07.81,1.5,2.35,2.52,2.58,6.23,1.37,12.51,2.5,18.79,3.65C501.38,770,509.69,771.45,518.18,773Zm61.1-292.54c-1.39-2-2.1-3.54-3.26-4.6-11.85-10.77-24.64-20-40.3-24.54-6.78-1.95-13.6-2.22-19.82,1.36-10.72,6.16-18.11,15.75-25,25.71-1.61,2.33.54,3.52,1.91,4.81,1.63,1.52,2.35-.07,3.13-1.05a86.51,86.51,0,0,1,19.81-18c10.18-6.76,20.47-7,30.2.32,8.46,6.36,16.27,13.58,24.39,20.4.75.63,2.13,1.75,2.35,1.57C574.91,484.6,577,482.58,579.28,480.44ZM674,202.9l.48-.18c-1.15-3.92-1.91-8-3.53-11.73-3.22-7.35-6.86-14.51-10.43-21.7-2.11-4.24-4.36-5.67-6.92-4.75s-3.32,3.56-2.15,8.08c2.23,8.67,4.47,17.33,6.87,26a67.91,67.91,0,0,0,3.38,9.26c1.21,2.72,3.34,4.58,6.56,4.11s4.67-2.76,5.31-5.69C673.83,205.16,673.89,204,674,202.9ZM655.2,230.33a25.49,25.49,0,0,0-4.61.8c-9.53,3.59-19.06,7.23-28.52,11a16.12,16.12,0,0,0-4.81,3.28c-1.72,1.59-3,3.7-1.71,6.05s3.72,1.69,5.82,1.11c10.72-2.94,21.46-5.84,32.14-9a22,22,0,0,0,7.41-3.56c3.2-2.52,2.42-6.83-1.28-8.55A23.56,23.56,0,0,0,655.2,230.33ZM672,733.85c0-1.14,0-1.87,0-2.58.21-3-.84-3.76-3.81-2.77-3.9,1.31-8,2-11.94,3.17a8.54,8.54,0,0,0-3.71,1.91c-3.8,3.92-7.42,8-11.08,12a14.79,14.79,0,0,0-1.18,1.71,9.54,9.54,0,0,0,2.28-.18c8.43-2.71,16.79-5.66,25.29-8.11C671.07,738.11,673,737,672,733.85Zm44.11-487.69a8.56,8.56,0,0,0-8.51-8.71,8.69,8.69,0,1,0,8.51,8.71ZM192.92,478.56v-1.23c-.12-10.43.56-8.56-8.49-8.8-9.58-.26-9.59-.09-9.55,9.56,0,7.16.81,8,7.9,9C192.56,488.43,192.56,488.43,192.92,478.56Zm-47.15,57.76h.2c0-2,.06-3.9-.06-5.85,0-.4-.81-1.15-1.12-1.09-3.33.65-7.07,7.42-5.28,10.22,1.09,1.71,3.46,2.61,5.26,3.88.33-1.46.74-2.91,1-4.39A17.06,17.06,0,0,0,145.77,536.32ZM145.18,554c0-.31,0-.62,0-.92-.1-1.57-.22-3.14-.33-4.71-1.17,1.36-2.34,2.73-3.49,4.1a1.7,1.7,0,0,0-.26.56c-.91,2.48-1,4.87,1.12,6.82a8,8,0,0,0,2.11,1.06,11,11,0,0,0,.59-2C145.06,557.33,145.09,555.68,145.18,554Zm-.48,22h0c0-1.55.06-3.1-.06-4.63,0-.31-1-.88-1.15-.78-2.32,1.54-3.37,7.25-1.7,9.65a8.68,8.68,0,0,0,2.31,1.71,17.78,17.78,0,0,0,.6-2.55C144.78,578.33,144.7,577.18,144.7,576.05Z" transform="translate(-89.01 -120.65)"/><path class="cls-2" d="M110.26,483.92c-4.11-.21-8.24-.33-12.34-.67a17,17,0,0,1-5.08-1.2c-4.23-1.76-5.14-5.14-1.78-8.17,2.69-2.43,5.89-4.88,9.28-5.82,6.9-1.9,14.08-2.77,21.15-4.09a18.53,18.53,0,0,0,2.13-.64c-.51-.46-1-.94-1.52-1.37s-1.34-1-2-1.51c-2.78-2.51-2.4-5.26,1.26-6.14a34.4,34.4,0,0,1,11-1.07,80.75,80.75,0,0,1,27.94,7.5c7.56,3.63,8.67,6.87,3.43,13.34-12.9,15.94-28.09,29.29-46.64,38.41a17.94,17.94,0,0,1-7.73,1.74c-5.79,0-9.64-4.51-8.28-10.13a20.48,20.48,0,0,1,5.17-9.52c3.87-3.76,8.68-6.54,13.07-9.76a9.47,9.47,0,0,0,1.29-1.45,8.71,8.71,0,0,0-1.72-.25c-2.89.16-5.76.38-8.65.58Zm13.88-6.05v-.17c3,0,6-.13,9,.07.94.07,1.81,1,2.72,1.57a19.72,19.72,0,0,1-1.92,2.5c-.49.47-1.31.58-1.93.94-6.57,3.85-13.41,7.34-19.59,11.74a22.79,22.79,0,0,0-7.47,9.41c-1.87,4.51,1.84,8,6.64,6.73a33.84,33.84,0,0,0,8.79-3.63c16-9.6,29.32-22.27,41.27-36.48,1.41-1.68.46-2.17-.76-3-8-5.49-16.9-8.54-26.33-10.15a88.7,88.7,0,0,0-11.07-.73c-.62,0-1.26.51-1.89.78.47.61.81,1.5,1.41,1.76,3.61,1.51,7.33,2.75,10.9,4.33,1.73.76,4.69,2.32,4.56,3.07-.53,3-3.42,1.77-5.37,1.72-11.2-.3-22.27.38-32.92,4.23a43.94,43.94,0,0,0-6.37,3.08c-.62.34-1.44,1.53-1.27,1.85a3.06,3.06,0,0,0,2,1.48,57.82,57.82,0,0,0,8,.26C109.74,478.86,116.94,478.33,124.14,477.87Z" transform="translate(-89.01 -120.65)"/><path class="cls-2" d="M128.11,522.87c-1.57,7.76-2.71,15.64-4.9,23.23-1,3.56-3.79,6.78-6.28,9.74-2,2.42-5,3.79-8.35,2.41a7.66,7.66,0,0,1-5-7.53,28.28,28.28,0,0,1,1-8.22,60,60,0,0,1,12.16-22.06,12.16,12.16,0,0,1,3.7-3.22,8.15,8.15,0,0,1,5.08-.77c.86.23,1.27,2.45,1.7,3.82a10,10,0,0,1,.18,2.46Zm-5,1.35c-.08-.56-.19-1.42-.31-2.27a6,6,0,0,0-1.49.89c-6.9,7.5-11.94,16-13.51,26.21a8.08,8.08,0,0,0,.47,3.92c.84,2.25,2.54,2.8,4.3,1a22.91,22.91,0,0,0,3.47-4.68C120.61,541.71,121.83,533.13,123.16,524.22Z" transform="translate(-89.01 -120.65)"/><path class="cls-2" d="M96,425.35c4.74.42,9.65,1.94,12.61,6.19a128.07,128.07,0,0,1,8.83,15.79c.62,1.24,0,3.11,0,4.69a21.36,21.36,0,0,1-4.36-1.29c-6-3.24-12-6.41-17.7-10.05a15.55,15.55,0,0,1-5.4-6.09C87.56,429.74,90.55,425.25,96,425.35Zm-.32,2.93c-2.5.45-3.55,1.67-2.78,3.61a10.56,10.56,0,0,0,3.2,4.74c4.43,3.13,9.14,5.87,13.78,8.71a4.68,4.68,0,0,0,1.67.32,4.45,4.45,0,0,0-.33-1.68c-2.77-3.93-5.31-8.07-8.52-11.61C100.92,430.46,98,429.61,95.63,428.28Z" transform="translate(-89.01 -120.65)"/><path class="cls-3" d="M480.54,715.1l-1.48-.58-1.62-.66-1.47-.6L473.09,712l-1.45-.62-2.86-1.28-4-1.79-5.32-2.58-.91-.44-7.71-4-4.06-2.18-2.73-1.55-1.62-.9-2.7-1.6-1.6-.93-1.5-.93-3.47-2.13-1.49-1a1.34,1.34,0,0,1-.4-.23l-1.48-1-6-4-1.44-1a1.14,1.14,0,0,1-.39-.25l-1.43-1-8.52-6.33-1.39-1.1-4.81-3.85-1.35-1.14-2.35-2-1.33-1.15-4.26-3.77-2-1.79-15.48-15.44-2.37-2.6-2.6-2.95-1.73-2-2-2.34-1.13-1.36-1.38-1.7-1.12-1.38-1.35-1.73-1.09-1.4-.79-1-1.09-1.41-.78-1.06-1-1.43-.78-1.07c-.34-.48-.69-.95-1-1.43l-2-2.91-1-1.44a1.28,1.28,0,0,1-.25-.4l-1-1.45a1.1,1.1,0,0,1-.24-.4l-1-1.46a1.15,1.15,0,0,1-.24-.4l-1-1.46a1.14,1.14,0,0,1-.24-.41l-1-1.47c-.33-.52-.65-1-1-1.57l-.94-1.5a1,1,0,0,1-.23-.41c-.55-.89-1.1-1.78-1.64-2.67a1.11,1.11,0,0,1-.23-.41l-1.6-2.71-.9-1.6-2.22-4-2.14-4.07-3.89-7.75c-.6-1.32-1.21-2.63-1.81-3.94L333.07,576l-.63-1.45-1.21-2.88-.6-1.47-.66-1.62-.57-1.47-5.34-16.7c-1.89-5.88-1.87-6,4.12-4.65,22,4.92,44.22,9.19,66.75,10.81,13.94,1,28,.73,42,.78,2.08,0,4.17-1.3,6.25-2l.94-.4.82-.43a1.06,1.06,0,0,1,.39-.21l1.52-.95a1.09,1.09,0,0,1,.39-.23l1.45-1a1,1,0,0,1,.36-.25l5.05-4.91,5-5.44,2.35-2.64,1.4-1.66,1.12-1.39,1.33-1.73,1.09-1.42.77-1c.36-.48.71-1,1.06-1.45a.88.88,0,0,1,.24-.36l1-1.45.77-1,1.09-1.43.78-1,1.08-1.38v0a9.61,9.61,0,0,1,2.1.37c7.35,3.11,14.71,6.24,22,9.46.6.27.87,1.28,1.3,1.95a1.47,1.47,0,0,1-.4.24l-1.45,1-1.71,1.38L493.79,539c-5.74,6.33-11.53,12.62-17.2,19-16.69,18.77-26.32,40.88-31.23,65.34-1.67,8.28.73,14.26,7.31,19.44,14.55,11.43,31.16,18.6,48.67,23.67,37.9,11,74.13,4.48,109.2-11.61a45.18,45.18,0,0,0,11.88-7.71c7.27-6.76,7.47-15.36,4.1-24-2.92-7.48-6.58-14.67-9.91-22,.92.12,2.08-.08,2.73.4a164,164,0,0,0,34.45,19.81c22.47,9.49,46,14,70.2,15.16,6.84.33,13.76-.57,20.62-1.06a133.47,133.47,0,0,0,46.9-12.38c8.89-4.1,17.76-8.23,26.67-12.29a10.47,10.47,0,0,1,2.9-.4l-.33,2.31-2,2.93c-.32.49-.64,1-1,1.49a1.06,1.06,0,0,1-.24.39l-1,1.47a1,1,0,0,1-.25.38l-1,1.43-.77,1.08-1.06,1.43-.78,1.06-1.08,1.41c-.26.35-.53.7-.79,1.06l-1.09,1.4L805.83,633l-1.12,1.37-1.4,1.7-1.71,2-2.57,3-1.18,1.33-5.63,6.1-9.29,9.29-5.47,5-2,1.77-3,2.57-1.34,1.15-2.37,1.95-1.35,1.14-4.83,3.82c-.46.37-.93.73-1.4,1.09l-1.06.79-1.41,1.08-1.07.78-1.41,1.06-1.09.77-1.42,1a1,1,0,0,1-.39.26l-1.44,1-2.92,2-1.45,1a1.28,1.28,0,0,1-.4.25l-1.45,1a1.1,1.1,0,0,1-.4.24l-1.46,1a1.14,1.14,0,0,1-.41.24l-1.46,1L738.51,692,737,693l-1.59.95-1.5.92-1.6.92-1.51.91L728,698.24l-2.74,1.54-4.08,2.16L711,707.1l-5.2,2.39-2.86,1.28-1.46.63-2.87,1.22-1.48.59-1.61.67-1.48.58-1.62.65-1.49.55-5.3,2-1.49.53-12.8,4.22-1.07.35-3.25,1-1.08.3-3.26.91-1.08.3-8.82,2.23-1.09.25-1.39.31-1.09.26-2,.44-1.1.23-1.4.28-1.7.35-1.4.26-1.69.34-2,.37-1.09.2-2,.32-1.7.3-2.62.4-1.71.26-2,.29-2.31.31-2.64.31-2.32.31-3.25.33-2.94.28-4.49.34-4.18.3-5.1.31h-26.3l-5.12-.31-3.56-.25-4.49-.36-2.94-.29-3.25-.34-2.31-.31-2.64-.3-2.32-.33-2-.28-2.3-.37-2-.3-1.69-.29-2-.32-1.69-.33-1.41-.24-1.69-.33-2-.38-1.08-.24-1.41-.28-1.68-.38-1.41-.28-1.08-.25-4.48-1-1.08-.29-1.4-.31-1.08-.3-5.74-1.5-1.07-.31-3.27-.91-1.07-.32-5.12-1.54-1.06-.34-5.37-1.76L489,718.26l-5.31-2-1.49-.55Zm194.09-19.49c5.21,0,8.65-3.51,8.62-8.76a8.68,8.68,0,0,0-17.36.18C665.9,692.24,669.35,695.63,674.63,695.61ZM402.88,625c-4.59-.05-7.5,2.68-7.54,7.06a7.54,7.54,0,0,0,7.45,7.74,7.82,7.82,0,0,0,7.34-7.35A7,7,0,0,0,402.88,625Zm280,34c-3.75,0-5.79,2-5.83,5.58a5.87,5.87,0,1,0,5.83-5.58Zm-30-24.32a3.6,3.6,0,0,0-3.72-3.53c-2.55-.15-4.25,1.36-3.92,3.54a5.66,5.66,0,0,0,3.6,3.66C651.08,639,652.5,637.19,652.86,634.71ZM403.09,603.56c1.8-2.14,3.75-3.45,3.66-4.6s-1.85-3.07-3.23-3.48c-2.14-.65-3.64,1.2-3.49,3.16C400.13,600,401.59,601.25,403.09,603.56Zm23.43-18.94c1.07-1.59,2.14-2.48,2-3.15-.17-1-1.21-1.79-1.87-2.67-.72.83-1.82,1.58-2,2.53C424.47,582,425.5,583,426.52,584.62Z" transform="translate(-89.01 -120.65)"/><path class="cls-4" d="M472,246c16.36-6,32.81-11.65,50.09-14.34,22-3.43,44-5.22,66.23-3.58,1.78.14,3.6,1.33,5.17,2.36,3.1,2,6.06,4.29,9,6.52a9.24,9.24,0,0,1,1.46,1.84,12.08,12.08,0,0,1-2,1.21A118.26,118.26,0,0,0,570,256.8a149.72,149.72,0,0,0-26.14,25.78c-.77.95-.78,2.52-1.14,3.8,1.4.3,2.91,1.13,4.17.84,13.06-3,26-6.41,39.13-9.2,14.83-3.15,29.79-5.38,45.05-5.24a149,149,0,0,1,81.73,24.65,260,260,0,0,1,39.29,31.44c3.69,3.58,7.63,6.92,11.53,10.29,2.27,2,4.94,3.41,7.92,1.91s3.25-4.61,2.64-7.33c-1.35-6-2.53-12.14-4.9-17.75-7.27-17.23-17.81-32.5-29.58-46.95a11.71,11.71,0,0,1-1.13-2.3,8.52,8.52,0,0,1,2.49.65,270.46,270.46,0,0,1,56.09,46.84,255,255,0,0,1,41.31,61.35,243.8,243.8,0,0,1,17.93,52.26,13.91,13.91,0,0,1,0,3.22,16.06,16.06,0,0,1-2.67-1.29c-8.12-5.84-16.23-11.69-24.27-17.64-.86-.64-1.9-2-1.77-2.83.62-4-1.1-6.53-4.4-8.36-.3-.17-.48-.58-.71-.87.28-8.26-3.08-15-8.63-20.87a11.74,11.74,0,0,0-3-1.71c.1-2.7-1.38-4.22-3.82-4.9-15.18-4.18-30.23-9-45.59-12.36-25.59-5.59-51.62-8.2-77.73-10.33a779.77,779.77,0,0,0-91.45-2c-22.94.82-45.88,2.48-68.73,4.69-23.87,2.31-47.69,5.36-71.43,8.78-14,2-27.89,5.38-41.82,8.12a16.52,16.52,0,0,1-2.11.17c2.25-1,3.74-2.24,4.34-5.14,1.57-7.53,3.66-15,5.86-22.35a228,228,0,0,1,21.65-49.71,320.12,320.12,0,0,1,31.62-44.81C472,247.28,471.89,246.55,472,246Zm34.2,34.64c0-5.73-3.55-9.67-8.83-9.71-6-.06-10.24,4.37-10.31,10.67-.07,5.7,3.73,9.72,9.25,9.79S506.14,286.82,506.17,280.62Zm19.46-23.91c-3.65,0-5.88,2.72-5.87,7.15,0,4.28,2.75,7.46,6.52,7.53,3.54.07,7.12-3.37,7.06-6.79C533.27,260.79,529.27,256.7,525.63,256.71Zm4.63,31c-3.61,0-5.54,2.09-5.53,5.91,0,4,2.56,6.52,6.61,6.45a5.73,5.73,0,0,0,5.79-5.92A6.64,6.64,0,0,0,530.26,287.66Z" transform="translate(-89.01 -120.65)"/><path class="cls-4" d="M498.68,535.17c-.43-.67-.7-1.68-1.3-1.95-7.31-3.22-14.67-6.35-22-9.46a9.61,9.61,0,0,0-2.1-.37c9-11.64,18-23.25,27-34.94a75.05,75.05,0,0,1,20.85-19.09c8.64-5.22,14.58-5.24,22.43,1a210.58,210.58,0,0,1,33.27,33.46c11.08,13.83,22.49,27.39,33.86,41a40.33,40.33,0,0,0,17,12.48c6,2.23,12,1.39,18,.92,9.86-.77,19.73-1.4,29.58-2.3,11.28-1,22.55-2.24,33.81-3.46,16-1.73,32-3.42,47.89-5.42a49.3,49.3,0,0,0,12.15-3.41,8,8,0,0,0,3.83-4.48c8.73-25.12,17.42-50.25,25.8-75.49,2-5.92,2.76-12.23,4.09-18.37a5,5,0,0,1,.4-1.74,1.52,1.52,0,0,1,1.36-.42c3.39,1,6-5,9.78-1,1.46,1.5,3.49,2.46,5.26,3.66-1.51,3.51.18,9,3.62,11.77,3.74,3,9.76,3.9,12.63,1.75.52-.39.64-1.33.95-2,9.65,7.06,16.79,15.63,17.85,28.21.55,6.55,1.65,13.06,2.51,19.59a1.4,1.4,0,0,0,.13.6c4.09,5.55,1.3,11.33.28,16.88a241.49,241.49,0,0,1-32.36,83.4c-1.42,2.3-3,4.52-4.46,6.78l.33-2.31a10.47,10.47,0,0,0-2.9.4c-8.91,4.06-17.78,8.19-26.67,12.29a133.47,133.47,0,0,1-46.9,12.38c-6.86.49-13.78,1.39-20.62,1.06-24.2-1.17-47.73-5.67-70.2-15.16a164,164,0,0,1-34.45-19.81c-.65-.48-1.81-.28-2.73-.4a10.65,10.65,0,0,1-1-1.17c-5.74-9.64-11.19-19.47-17.26-28.9-7.5-11.67-18.18-19.37-31.82-22.29a70.45,70.45,0,0,1-24.91-10.23,73.93,73.93,0,0,0-14.46-6.91c-7-2.71-14.28-3.13-21.39,0C503.39,532.73,501.05,534,498.68,535.17ZM828,522.23c-5.73-.84-10.2,5.79-10.31,11.55a9.56,9.56,0,0,0,9.1,9.49c5.83.07,10.51-4.8,10.56-11C837.4,526.31,833.63,522.26,828,522.23Zm-14.53-18.72c.72-1,1.55-1.67,1.45-2.15-.14-.7-.93-1.26-1.45-1.89-.61.52-1.7,1-1.7,1.55C811.78,501.7,812.65,502.37,813.48,503.51Z" transform="translate(-89.01 -120.65)"/><path class="cls-5" d="M472,246c-.08.57,0,1.3-.29,1.68a320.12,320.12,0,0,0-31.62,44.81,228,228,0,0,0-21.65,49.71c-2.2,7.38-4.29,14.82-5.86,22.35-.6,2.9-2.09,4.11-4.34,5.14l-1.1.24-1.4.31-1.09.27-1.4.3-4.16,1-1.4.32-1.08.26-1.4.32-1.08.28-1.4.31-1.08.29-1.4.32-1.08.29-1.4.32-1.08.3-1.39.32-1.08.3-1.4.33-1.08.31-1.39.34-1.08.3-1.39.35-5.42,1.49-1.39.37-2.68.77-1.66.44-2.68.78-1.65.46-2.68.79-1.65.47-3,.89-3.25,1-4.52,1.4-7.24,2.33-2.07.69-5.34,1.88-2.23.72-.46-1.32,1.84-4.56c.24-.54.47-1.08.71-1.61.38-.91.77-1.81,1.15-2.72l1.32-2.86,7.89-15.73.88-1.54,1.57-2.81c.31-.51.61-1,.91-1.53l5.88-9.62,1-1.48a1,1,0,0,1,.23-.38c.33-.5.67-1,1-1.48a1,1,0,0,1,.24-.38l1-1.47a1,1,0,0,1,.23-.38l1-1.46,9.44-12.82,1.11-1.4,1.36-1.7,1.13-1.38,1.95-2.36,1.16-1.34q12.08-12.36,24.14-24.71l1.32-1.2,3.62-3.15,1.36-1.16,2.34-1.95,1.37-1.14L412,282l1.41-1.1,6-4.49,1.44-1.05,4.72-3.31,1.48-1,4.09-2.7,1.49-1,17.12-10.13.79-.45,2.84-1.5,2.8-1.49,4.6-2.27,4.09-2,2.2-1,.81-.41,1.59-1,.78-.43Z" transform="translate(-89.01 -120.65)"/><path class="cls-4" d="M738.37,743.24c-7.35,7.18-14.59,14.46-22.06,21.51-11.65,11-26.72,13.59-41.61,16.51-1,.19-2.05-.41-3.07-.64.72-.67,1.34-1.62,2.19-2,3.82-1.53,7.78-2.74,11.54-4.38,1.25-.54,2.09-2,3.11-3.07-1.33-.44-2.69-1.33-4-1.25-6.16.41-12.3,1.11-18.46,1.62a6.92,6.92,0,0,1-2.23-.64,6.82,6.82,0,0,1,1.87-1.34c5.16-1.44,10.37-2.69,15.49-4.23,1.24-.38,2.21-1.63,3.31-2.47-1.24-.55-2.49-1.6-3.71-1.57-5.35.15-10.69.67-16,.9a11.53,11.53,0,0,1-3.33-.89,12.42,12.42,0,0,1,2.79-1.67c5.16-1.43,10.38-2.65,15.53-4.1,1-.28,1.78-1.26,2.66-1.92a10.16,10.16,0,0,0-2.85-1.17c-5.55-.39-11.11-.62-16.65-1a8,8,0,0,1-2.08-.73,6.09,6.09,0,0,1,1.73-1.12c3.4-.79,6.79-1.64,10.24-2.15,1.87-.28,3.35-.4,3.86-2.68.17-.73,1.51-1.56,2.42-1.7,5.19-.83,10.41-1.4,15.6-2.17,8.34-1.24,14.75-6.31,21-11.31,20.11-16.12,40-32.53,60-48.77a58.63,58.63,0,0,1,17-9.58c15.66-5.77,30.07-14,41.59-26.49a6.74,6.74,0,0,1,1.73-1,5.63,5.63,0,0,1,.36,1.71c-.82,6.63-1.19,13.38-2.69,19.85-1.63,7-6.74,12.22-12.2,16.35-10.66,8.07-22.06,15.17-32.89,23-14.16,10.29-28.06,21-42.09,31.44a11.8,11.8,0,0,1-1.29.76c0-1.24.08-2.47,0-3.7a9.34,9.34,0,0,0-9.23-8.56,8.87,8.87,0,0,0-8.67,9,8.59,8.59,0,0,0,8.56,9A15.76,15.76,0,0,1,738.37,743.24Zm17.88-30.92a4.62,4.62,0,0,0,5-4.6,5,5,0,1,0-9.89-.1A4.59,4.59,0,0,0,756.25,712.32Zm20-23.08c-1.12,1.63-2.38,2.65-2.31,3.57s1.45,1.77,2.26,2.65c.94-.92,2.4-1.72,2.65-2.79C779,691.93,777.47,690.8,776.22,689.24Z" transform="translate(-89.01 -120.65)"/><path class="cls-6" d="M210.24,568.64c0-3.3,0-6.6,0-9.9a14.18,14.18,0,0,1,.37-2.32,9.87,9.87,0,0,1,2.19.81c2.66,1.79,5.2,3.73,7.9,5.44.72.46,1.84.27,2.78.37-.3-.88-.35-2.07-1-2.61-5.08-4.52-10.34-8.85-15.39-13.41a108,108,0,0,1-8.18-8.4,10.67,10.67,0,0,1-2.13-4.07c-.85-3,.67-5,3.77-4.73a71.56,71.56,0,0,1,7.91,1.39c3.46.69,4.65,0,5.08-3.4s.3-6.77,2.64-9.88c1.81-2.43-.07-5.73-3.47-6.52-2.31-.53-3-1.82-3.75-3.78-1.28-3.18-3.31-6.06-4.68-9.21-.47-1.06,0-2.59.29-3.85a3.77,3.77,0,0,1,2.55.19c2.89,2.55,6.3,4.88,8.28,8.06,6.55,10.55,9.25,22.64,12.71,34.4,1.34,4.55,2.55,9.14,4,13.66a26,26,0,0,0,10.19,13.65c13.7,9.51,28.32,16.9,45.1,19.25,5.87.82,11.63.43,17-2.12,5.93-2.85,11.62-6.21,17.47-9.24a13.86,13.86,0,0,1,3.57-.81c.16,1.53.73,3.16.4,4.57a63.44,63.44,0,0,1-3.51,11.52,144.8,144.8,0,0,1-8.58,15.95,88,88,0,0,1-8.15,10.49,7.27,7.27,0,0,1-3.77,2.19c-9.9,2-19.44,1.13-28.6-3.5-12.13-6.13-24.39-12-36.56-18.09-7.76-3.85-15.44-7.85-23.23-11.64-2.56-1.25-3.65-2.9-3.38-5.81s.06-5.76.06-8.65Z" transform="translate(-89.01 -120.65)"/><path class="cls-7" d="M170.39,523.06c12,0,23.92,0,35.87,0,1.86,0,2.31.59,2.27,2.28-.05,2.09-1.24,1.54-2.52,1.4a35.7,35.7,0,0,0-7.06-.41c-4,.38-6,2.67-6.36,6.7-.42,4.81,2.09,8.49,4.77,12.06a10.65,10.65,0,0,0,3,3.1c5.32,3,5.52,7.57,5.52,13,0,15.13.6,30.27,1.13,45.41.19,5.52-.22,6.75-5.86,7.67-16.67,2.75-33.25,3.21-49.39-3.13-2.37-.93-3.63-2.11-3.48-5,.74-13.89,1.48-27.78,1.79-41.69.28-12.57,0-25.15-.08-37.72,0-2.4.56-3.16,3.12-3.05,5.76.26,11.54.08,17.3.08ZM160.07,591h.64c0,4.94-.09,9.89.09,14.82,0,1,1.17,1.87,1.8,2.8.67-.9,1.82-1.76,1.91-2.72.22-2.55-.12-5.14,0-7.7,0-.8.78-2.27,1.15-2.26,5.63.19,11.28.4,16.88,1,2.62.29,3.81,2.39,3.24,5.05-.54,2.5-1.36,4.94-2,7.43a8.28,8.28,0,0,0,.06,2.16c.62-.26,1.52-.33,1.81-.8,2.49-3.91,4.12-8.25,3.18-12.84-.36-1.72-2.48-3.49-4.23-4.41a15.53,15.53,0,0,0-6.3-1.23c-3.9-.17-7.83-.13-11.74,0-2,.06-2.71-.65-2.78-2.64-.13-3.6-.41-7.2-.88-10.77-.14-1.16-1-2.22-1.6-3.33a11.94,11.94,0,0,0-1.19,3.37C160,582.92,160.07,586.94,160.07,591Zm19.21-37.12a6.78,6.78,0,0,0,6.53-8.5,37.84,37.84,0,0,0-2.7-6.57c-.34-.68-1.32-1-2-1.54a13.65,13.65,0,0,0-.2,2.45c.22,2.53.65,5.05.76,7.58,0,.56-.95,1.16-1.46,1.75-.39-.54-.8-1.07-1.16-1.62-1.67-2.55-3-5.45-5.07-7.56s-5.08-.78-5.35,2.15C168.17,546.9,174.4,553.84,179.28,553.84ZM177.64,590a32.35,32.35,0,0,0,4.46-.91c4.69-1.64,5.29-3.92,2.41-7.92-.38-.51-.09-1.74.24-2.48.66-1.46,1.68-2.76,2.29-4.24.18-.42-.41-1.31-.87-1.75-.17-.17-1.3.19-1.45.54-1.78,4.06-5.26,4.37-9,4.41-1,0-1.91,1-2.87,1.54a11.07,11.07,0,0,0,2.73,2c1.73.56,3.63.59,5.36,1.16.69.22,1.1,1.26,1.64,1.92a6.5,6.5,0,0,1-2,1.11c-2.54.31-5.12.36-7.67.69-.66.09-1.24.81-1.86,1.24.47.6.84,1.54,1.44,1.72A45.09,45.09,0,0,0,177.64,590Zm8.16-29.7a8.28,8.28,0,0,0,0-2.11c-.46-1-1-2-1.55-3a19,19,0,0,0-.67,2.75c-.3,3-1.94,4.41-4.93,4-3.31-.49-5.88-3.48-5.5-6.22a8.76,8.76,0,0,0-.32-2.4c-1,.39-2.58.61-2.75,1.22a8.22,8.22,0,0,0-.17,4.94c1.56,3.84,4.87,5.71,8.9,6.17C183.47,566.14,185.71,564.07,185.8,560.28Zm-7-26.64,3.07-1.23c-1-.65-2-1.66-3.08-1.89-4.74-1-9.52-1.9-14.31-2.54-1.14-.15-2.44.82-3.66,1.28,1,.73,1.93,1.93,3,2.13C168.68,532.29,173.59,532.89,178.77,533.64ZM178.53,568c-2.24,0-4.21-.13-6.14.06-.74.07-1.4.87-2.1,1.34.62.59,1.25,1.7,1.85,1.69,4.19-.12,8.37-.43,12.54-.81.49,0,.9-.93,1.34-1.43-.64-.37-1.28-1.05-1.93-1.07C182.15,567.71,180.19,567.91,178.53,568Zm10.37-36.68c-1.64-1-2.61-1.95-3.51-1.9a2.83,2.83,0,0,0-1.7,2.25,3,3,0,0,0,2.16,1.92C186.6,533.63,187.42,532.48,188.9,531.31Z" transform="translate(-89.01 -120.65)"/><path class="cls-8" d="M527.83,383.88c-16.78,0-32.88,0-49,0-3.8,0-7.6-.4-11.39-.74-3.51-.32-5.6-2.4-6.47-5.73-.69-2.59-1.19-5.23-2-7.79-.72-2.3,0-3.06,2.34-3.37,14-1.89,28-4.13,42-5.85,30.85-3.78,61.86-5.39,92.92-6,2.77-.06,3.64.22,2.48,3.29-1.94,5.1-3.21,10.45-4.92,15.64-2.28,6.9-4.32,8.57-11.63,8.84C563.86,382.81,545.51,383.32,527.83,383.88Z" transform="translate(-89.01 -120.65)"/><path class="cls-9" d="M772.1,432.84l-.91.23Z" transform="translate(-89.01 -120.65)"/><path class="cls-9" d="M774.3,432.47h0l-1,.14Z" transform="translate(-89.01 -120.65)"/><path class="cls-10" d="M678.89,363.12c-.21-2-.41-4.07-.62-6.1h0C678.48,359.05,678.68,361.09,678.89,363.12Z" transform="translate(-89.01 -120.65)"/><path class="cls-11" d="M404,401.56h0l-.07.05Z" transform="translate(-89.01 -120.65)"/><path class="cls-11" d="M494.91,463.51l.41.19Z" transform="translate(-89.01 -120.65)"/><path class="cls-11" d="M495.83,464a4.36,4.36,0,0,0-.42-.23A4.36,4.36,0,0,1,495.83,464Z" transform="translate(-89.01 -120.65)"/><path class="cls-11" d="M495.41,463.75l-.09-.05Z" transform="translate(-89.01 -120.65)"/><path class="cls-12" d="M871.41,459.9c-1,9.93-2.59,19.77-6.24,29.16a5.82,5.82,0,0,1-.86,1.21,12.86,12.86,0,0,1-.73-1.61c-1.66-5.6-2.77-11.44-5.07-16.75-3.06-7.05-8.67-12.38-14.89-16.64-8.9-6.09-18.17-11.65-27.42-17.22-2-1.2-2.34-1.85-1.16-3.9,3.22-5.63,6.17-11.42,9.23-17.15.58-1.09,1-2.43,2.68-1.25,12.22,8.38,25.19,15.71,36.09,25.94C868.32,446.64,871.81,452.33,871.41,459.9Z" transform="translate(-89.01 -120.65)"/><path class="cls-7" d="M374.28,545.08l-16.69-2h0Z" transform="translate(-89.01 -120.65)"/><path class="cls-8" d="M789.12,392.91c11,3.54,21.83,4.71,30.27,12.22,1.64,1.46,2.13,2.79,1.13,4.8-3.72,7.46-7.24,15-11.1,22.4-2.48,4.73-4.76,5.5-9.81,3.7-6.31-2.23-12.52-4.71-18.81-7-2.8-1-3.9-2.78-3-5.72,2.71-9,5.29-17.95,8.15-26.85C786.37,395.06,788.05,394.06,789.12,392.91Z" transform="translate(-89.01 -120.65)"/><path class="cls-8" d="M660.44,818.89a71.66,71.66,0,0,1-2.21,7.83c-5.58,13.52-11.27,27-17,40.48q-3.6,8.55-7.3,17a7.93,7.93,0,0,1-1.25,1.56,9.6,9.6,0,0,1-.16-2q3.79-31.14,7.62-62.29a42.1,42.1,0,0,0,.49-7.07c-.16-3.3-2.3-4.59-5.34-3.35a58.36,58.36,0,0,0-5.19,2.73c-1.53.81-2.12.26-1.94-1.35a8.6,8.6,0,0,1,.34-1.82q6.09-17.32,12.23-34.63c.17-.48.72-.83,1.09-1.24a9.56,9.56,0,0,1,.52,1.68c1,7.87,2,15.74,3,23.61.58,4.51,2.29,8.17,6.65,10.46,2.41,1.26,4.43,3.34,6.46,5.23A13.69,13.69,0,0,1,660.44,818.89Z" transform="translate(-89.01 -120.65)"/><path class="cls-8" d="M706.76,225.6c-5.37,0-8.71-2-10.76-5.63a10.13,10.13,0,0,1,.55-11.16,25,25,0,0,1,6.3-6.25,130,130,0,0,1,13-7.67c7.22-3.78,14.54-7.35,21.86-10.93a25.83,25.83,0,0,1,5.77-2.12c2.43-.51,5,.32,5.52,2.78a7.74,7.74,0,0,1-1.25,5.81c-2.21,2.8-5.23,5-7.74,7.54-6,6.21-12.08,12.41-17.9,18.82A26.73,26.73,0,0,1,706.76,225.6Z" transform="translate(-89.01 -120.65)"/><path class="cls-8" d="M171.75,520.5c-4.34,0-12.78.1-21.23-.08a21.49,21.49,0,0,1-6.23-1.59,2.63,2.63,0,0,1-1.39-1.78c-.07-.38.85-1.06,1.44-1.39a4.44,4.44,0,0,1,2-.61c2.78,0,4.05-1.76,5.42-3.89,2.66-4.12,5.59-8.08,8.61-12a3.53,3.53,0,0,1,3.16-.88c8.21,3.25,16.71,3.3,25.29,2.63a77.36,77.36,0,0,0,8.61-.95c2.3-.44,3.51.45,4.36,2.37s1.95,4.1,2.77,6.21c1.11,2.84,2.11,5.61,5.92,5.81.66,0,1.5,1.31,1.73,2.16.1.35-1.1,1.27-1.86,1.58a8.75,8.75,0,0,1-2.73.37Z" transform="translate(-89.01 -120.65)"/><path class="cls-13" d="M425.05,494.41l-3.09-13h0Z" transform="translate(-89.01 -120.65)"/><path class="cls-13" d="M488.07,490.56l-.57.49.57-.5Z" transform="translate(-89.01 -120.65)"/><path class="cls-8" d="M478.57,806.35l1.5,5,.34,1.25,1.95,6.23c.77,2.05,2.07,2.58,4,1.41l11.88-10.27.87-1,4.56-5.31,1.19.87q-1.15,2.84-2.29,5.67l-.42,1.44-.93,3.52-.27,1.47-1,4.72c-.05.35-.11.69-.16,1-.14.68-.27,1.37-.41,2l-.18,1-.45,2c-.06.35-.13.7-.2,1-.64,5.27-3.63,9.41-6.88,13.26-7,8.32-11.1,18-13.82,28.38-.06.33-.12.66-.19,1-.14.69-.29,1.39-.44,2.09,0,.33-.09.66-.14,1-.13.72-.27,1.43-.4,2.15l-1.73.47-.33-11.3c-.06-1.28-.11-2.55-.17-3.83-.16-2.65-.31-5.29-.47-7.94-.05-1.06-.09-2.13-.14-3.2-.16-3.27-.31-6.53-.47-9.8-.05-1.27-.1-2.54-.16-3.82q0-12.63,0-25.26.09-5,.19-10c.11-2,.23-3.91.34-5.86h1.76q1.06,3.72,2.14,7.44C477.93,804.3,478.25,805.32,478.57,806.35Z" transform="translate(-89.01 -120.65)"/><path class="cls-4" d="M518.18,773c-8.49-1.53-16.8-3-25.1-4.52-6.28-1.15-12.56-2.28-18.79-3.65-1-.23-2.59-1.77-2.52-2.58.93-10.22,2.1-20.43,3.26-30.64a12.19,12.19,0,0,1,.88-2.52,17.11,17.11,0,0,1,2.44,1.6c8.6,8,17.32,15.85,25.7,24.06,5.2,5.1,9.9,10.72,14.77,16.15a5.59,5.59,0,0,1,.68,1.88Z" transform="translate(-89.01 -120.65)"/><path class="cls-8" d="M579.28,480.44c-2.3,2.14-4.37,4.16-6.61,5.95-.22.18-1.6-.94-2.35-1.57-8.12-6.82-15.93-14-24.39-20.4-9.73-7.32-20-7.08-30.2-.32a86.51,86.51,0,0,0-19.81,18c-.78,1-1.5,2.57-3.13,1.05-1.37-1.29-3.52-2.48-1.91-4.81,6.91-10,14.3-19.55,25-25.71,6.22-3.58,13-3.31,19.82-1.36,15.66,4.52,28.45,13.77,40.3,24.54C577.18,476.9,577.89,478.45,579.28,480.44Z" transform="translate(-89.01 -120.65)"/><path class="cls-8" d="M674,202.9c-.13,1.12-.19,2.26-.43,3.36-.64,2.93-2.15,5.23-5.31,5.69s-5.35-1.39-6.56-4.11a67.91,67.91,0,0,1-3.38-9.26c-2.4-8.63-4.64-17.29-6.87-26-1.17-4.52-.4-7.16,2.15-8.08s4.81.51,6.92,4.75c3.57,7.19,7.21,14.35,10.43,21.7,1.62,3.72,2.38,7.81,3.53,11.73Z" transform="translate(-89.01 -120.65)"/><path class="cls-8" d="M655.2,230.33a23.56,23.56,0,0,1,4.44,1.19c3.7,1.72,4.48,6,1.28,8.55a22,22,0,0,1-7.41,3.56c-10.68,3.11-21.42,6-32.14,9-2.1.58-4.48,1.31-5.82-1.11s0-4.46,1.71-6.05a16.12,16.12,0,0,1,4.81-3.28c9.46-3.78,19-7.42,28.52-11A25.49,25.49,0,0,1,655.2,230.33Z" transform="translate(-89.01 -120.65)"/><path class="cls-4" d="M672,733.85c1,3.19-.93,4.26-4.15,5.19-8.5,2.45-16.86,5.4-25.29,8.11a9.54,9.54,0,0,1-2.28.18,14.79,14.79,0,0,1,1.18-1.71c3.66-4,7.28-8.12,11.08-12a8.54,8.54,0,0,1,3.71-1.91c4-1.13,8-1.86,11.94-3.17,3-1,4-.23,3.81,2.77C672,732,672,732.71,672,733.85Z" transform="translate(-89.01 -120.65)"/><path class="cls-6" d="M738.37,743.24a15.76,15.76,0,0,0-2.59-.56,8.59,8.59,0,0,1-8.56-9,8.87,8.87,0,0,1,8.67-9,9.34,9.34,0,0,1,9.23,8.56c.07,1.23,0,2.46,0,3.7Z" transform="translate(-89.01 -120.65)"/><path class="cls-8" d="M716.11,246.16a8.64,8.64,0,1,1-8.51-8.71A8.64,8.64,0,0,1,716.11,246.16Z" transform="translate(-89.01 -120.65)"/><path class="cls-14" d="M596,382.43c-1,3.6-5,6.46-9.66,6.72-5.33.3-10.67.54-16,.62-17.38.28-34.75.45-52.13.73-4,.06-8,.36-12,.55-10.4,0-20.81.07-31.2-.09a78.84,78.84,0,0,1-10.37-1.13c-4.83-.74-8.44-3.13-9.91-8.07-.78-3.17-2-6.31-2.21-9.52-.21-2.92-1.33-3.14-3.69-2.71-6,1.11-12.11,2.07-18.17,3.09l-.66.45-5.53.78-.67.46-5.52.82-.67.42-3,.61-11.85,2.11-.9-.18c7.72-1.73,15.41-3.56,23.16-5.14,8.49-1.73,17-3.12,25.51-4.88,2.62-.55,3.16.37,3.38,2.68a71.61,71.61,0,0,0,1.5,9.44c1.07,4.65,4,7.76,8.77,8.46a100,100,0,0,0,13.81,1.18c18.56.08,37.12.1,55.67-.14,16.49-.21,33-.87,49.46-1.18A16.61,16.61,0,0,0,596,382.43Z" transform="translate(-89.01 -120.65)"/><path class="cls-7" d="M792.85,449.83c2.77-7.77,2.72-7.66-4.65-10.81-3.14-1.34-6-3.24-9.06-4.89,5.46,2.15,10.93,4.24,16.32,6.53.46.19.71,1.86.45,2.64-7.15,21.85-14.52,43.63-21.53,65.53-2.51,7.84-4.15,16-6.2,23.95-1.44,5.59-2.54,6.77-8.21,7.43-21.92,2.54-43.86,5-65.79,7.45a3.18,3.18,0,0,1-.62,0l-2.37-.14,7.53-1.65c4.7-.43,9.4-.88,14.1-1.29,5.21-.47,10.45-.79,15.65-1.37,10-1.13,20-2.46,29.95-3.57,5.49-.61,7.94-2.44,9.11-7.88a345.53,345.53,0,0,1,12.81-44.12C784.8,475.11,788.7,462.43,792.85,449.83Z" transform="translate(-89.01 -120.65)"/><path class="cls-7" d="M192.92,478.56c-.36,9.87-.36,9.87-10.14,8.54-7.09-1-7.87-1.85-7.9-9,0-9.65,0-9.82,9.55-9.56,9,.24,8.37-1.63,8.49,8.8Zm-9.47,4.2a6.18,6.18,0,0,0-.22-12.35,6.14,6.14,0,0,0-6,6.45A6.07,6.07,0,0,0,183.45,482.76Z" transform="translate(-89.01 -120.65)"/><path class="cls-6" d="M810.89,377.49a11.74,11.74,0,0,1,3,1.71c5.55,5.83,8.91,12.61,8.63,20.87-4-1.64-8-3.24-11.92-5a2.18,2.18,0,0,1-1.08-1.65C809.93,388.13,810.42,382.81,810.89,377.49Z" transform="translate(-89.01 -120.65)"/><path class="cls-4" d="M443.16,555.32c-2.08.7-4.17,2-6.25,2-14-.05-28,.23-42-.78-22.53-1.62-44.71-5.89-66.75-10.81-6-1.33-6-1.23-4.12,4.65l5.34,16.7c-2.57-7.25-5.26-14.47-7.67-21.77-.78-2.38,1.1-1.73,2.41-1.47,12.93,2.62,25.8,5.58,38.8,7.76,22.39,3.75,44.94,6.18,67.7,5.27C434.83,556.71,439,555.86,443.16,555.32Z" transform="translate(-89.01 -120.65)"/><path class="cls-6" d="M836.8,457.24c-.31.69-.43,1.63-.95,2-2.87,2.15-8.89,1.26-12.63-1.75-3.44-2.76-5.13-8.26-3.62-11.77Z" transform="translate(-89.01 -120.65)"/><path class="cls-14" d="M681.35,356.52l-3.08.5-7.49-.47-6.73-.17-10.55-.54-31.54-.7H609a4.35,4.35,0,0,0-4.69,3.55c-1.49,5.64-3.09,11.25-4.64,16.87L596,382.39c2.52-8.58,5-17.17,7.64-25.71.31-1,1.78-2.43,2.69-2.41,24.62.51,49.24,1.19,73.85,1.86A4,4,0,0,1,681.35,356.52Z" transform="translate(-89.01 -120.65)"/><path class="cls-14" d="M551.9,451.24c9,3.75,16.22,10,23.46,16.26,3.17,2.73,5.92,5.94,8.86,8.93,1.46,3.9.13,7.09-2.5,9.95l-1,.27a3.88,3.88,0,0,0-.26-.31,27.51,27.51,0,0,0,2.71-4.08,6.28,6.28,0,0,0-1.52-7.42c-13.39-12.58-27.29-24.32-46.29-27.61-8.3-1.44-15.69.87-22.88,4.57l-.29-.31.26-.75,15.46-4.8h3l15.52,3.24Z" transform="translate(-89.01 -120.65)"/><path class="cls-6" d="M145.77,536.32a17.06,17.06,0,0,1,0,2.77c-.23,1.48-.64,2.93-1,4.39-1.8-1.27-4.17-2.17-5.26-3.88-1.79-2.8,2-9.57,5.28-10.22.31-.06,1.1.69,1.12,1.09.12,1.95.06,3.9.06,5.85Z" transform="translate(-89.01 -120.65)"/><path class="cls-15" d="M691.19,547.47l2.37.14c-7,.72-13.91,1.45-20.86,2.15-10.25,1-20.51,2-30.76,3.1-5.94.64-11.5,0-16.26-4l.08-.11a6.68,6.68,0,0,1,1.77.47c8.3,5,16.9,1.92,25.42,1l9.23-.24.68-.43,7.4-.65,9.26-.61,4.29-.1,3.81-.48Z" transform="translate(-89.01 -120.65)"/><path class="cls-6" d="M145.17,554c-.08,1.64-.11,3.29-.26,4.92a11,11,0,0,1-.59,2,8,8,0,0,1-2.11-1.06c-2.07-1.95-2-4.34-1.12-6.82a1.7,1.7,0,0,1,.26-.56c1.15-1.37,2.32-2.74,3.49-4.1.11,1.57.23,3.14.33,4.71C145.19,553.42,145.18,553.73,145.17,554Z" transform="translate(-89.01 -120.65)"/><path class="cls-4" d="M144.7,576.05c0,1.13.08,2.28,0,3.4a17.78,17.78,0,0,1-.6,2.55,8.68,8.68,0,0,1-2.31-1.71c-1.67-2.4-.62-8.11,1.7-9.65.17-.1,1.13.47,1.15.78.12,1.53.06,3.08.06,4.63Z" transform="translate(-89.01 -120.65)"/><path class="cls-14" d="M717.63,360.13a.94.94,0,0,1-.45.21l-1.8-.1-8.5-.78L705,359l-7.62-.64a.5.5,0,0,0-.38,0l-6.35-.64-7.93-1.08c8.2.66,16.41,1.26,24.6,2C710.76,359,714.19,359.63,717.63,360.13Z" transform="translate(-89.01 -120.65)"/><path class="cls-14" d="M485.69,480.75c.76-5.64,4.67-9.06,8.72-12.39-1.6,2.08-3.14,4.22-4.82,6.24-3.75,4.52-3.76,6.44-.09,11,.67.84,2.62,1.65.61,3.1a3,3,0,0,1-.24-.56Z" transform="translate(-89.01 -120.65)"/><path class="cls-4" d="M782.93,657.81l9.29-9.29Z" transform="translate(-89.01 -120.65)"/><path class="cls-4" d="M473.38,801.68q-.11,5-.19,10Q473.28,806.69,473.38,801.68Z" transform="translate(-89.01 -120.65)"/><path class="cls-4" d="M671.32,722.39l12.8-4.22Z" transform="translate(-89.01 -120.65)"/><path class="cls-8" d="M474.94,876.85l1.73-.47a4.68,4.68,0,0,1,0,1.18c-.42,2-.88,3.9-1.33,5.84C475.23,881.22,475.08,879,474.94,876.85Z" transform="translate(-89.01 -120.65)"/><path class="cls-4" d="M711,707.1l10.21-5.16Z" transform="translate(-89.01 -120.65)"/><path class="cls-4" d="M652.76,727.44l8.82-2.23Z" transform="translate(-89.01 -120.65)"/><path class="cls-4" d="M336.17,582.78l3.89,7.75Z" transform="translate(-89.01 -120.65)"/><path class="cls-4" d="M450.88,701.34l7.71,4Z" transform="translate(-89.01 -120.65)"/><path class="cls-4" d="M454.08,546.9,449,551.81Z" transform="translate(-89.01 -120.65)"/><path class="cls-14" d="M506.67,456.06c.3-.6.59-1.2.88-1.8l4.62-2.77.29.31Z" transform="translate(-89.01 -120.65)"/><path class="cls-14" d="M578.61,493.75c-1.81-1.44-3.58-2.89-.57-4.9a3.11,3.11,0,0,0,.28.23l1,4.55Z" transform="translate(-89.01 -120.65)"/><path class="cls-16" d="M401.81,378.09l.9.17-8.57,1.7h0Z" transform="translate(-89.01 -120.65)"/><path class="cls-7" d="M778.46,433.82l-4.16-1.35c-.51-.94-1-1.89-1.51-2.84l.24-.21Z" transform="translate(-89.01 -120.65)"/><path class="cls-4" d="M340.08,388.19l7.24-2.33Z" transform="translate(-89.01 -120.65)"/><path class="cls-17" d="M742,364.4l-6.77-1.58L742,364A2,2,0,0,1,742,364.4Z" transform="translate(-89.01 -120.65)"/><path class="cls-8" d="M475.48,795.83h-1.76c.16-1.11.31-2.22.46-3.33Z" transform="translate(-89.01 -120.65)"/><path class="cls-4" d="M509.27,724.59l5.74,1.5Z" transform="translate(-89.01 -120.65)"/><path class="cls-4" d="M459.5,705.77l5.32,2.58Z" transform="translate(-89.01 -120.65)"/><path class="cls-4" d="M568.09,734.48l5.12.31Z" transform="translate(-89.01 -120.65)"/><path class="cls-4" d="M599.51,734.79l5.1-.31Z" transform="translate(-89.01 -120.65)"/><path class="cls-17" d="M725.39,361.33l-6.8-1Z" transform="translate(-89.01 -120.65)"/><path class="cls-17" d="M733.45,362.57l-6.26-1Z" transform="translate(-89.01 -120.65)"/><path class="cls-8" d="M486.34,820.2c-1.91,1.17-3.21.64-4-1.41Z" transform="translate(-89.01 -120.65)"/><path class="cls-15" d="M471.53,513.6c1-1.45,2-2.89,3-4.34C473.54,510.71,472.53,512.15,471.53,513.6Z" transform="translate(-89.01 -120.65)"/><path class="cls-4" d="M483.65,716.29l5.31,2Z" transform="translate(-89.01 -120.65)"/><path class="cls-4" d="M332.67,390.76l5.34-1.88Z" transform="translate(-89.01 -120.65)"/><path class="cls-4" d="M685.61,717.64l5.3-2Z" transform="translate(-89.01 -120.65)"/><path class="cls-4" d="M492.31,719.41l5.37,1.76Z" transform="translate(-89.01 -120.65)"/><path class="cls-4" d="M498.74,721.51l5.12,1.54Z" transform="translate(-89.01 -120.65)"/><path class="cls-4" d="M608.79,734.18l4.49-.34Z" transform="translate(-89.01 -120.65)"/><path class="cls-4" d="M474.44,861.72c.06,1.28.11,2.55.17,3.83C474.55,864.27,474.5,863,474.44,861.72Z" transform="translate(-89.01 -120.65)"/><path class="cls-4" d="M560,733.87l4.49.36Z" transform="translate(-89.01 -120.65)"/><path class="cls-4" d="M473.2,837c.06,1.28.11,2.55.16,3.82C473.31,839.51,473.25,838.23,473.2,837Z" transform="translate(-89.01 -120.65)"/><path class="cls-4" d="M518.57,727l4.48,1Z" transform="translate(-89.01 -120.65)"/><path class="cls-14" d="M504.45,456.73l2.08-.56-3.44,3C503.54,458.33,504,457.53,504.45,456.73Z" transform="translate(-89.01 -120.65)"/><path class="cls-4" d="M464.83,249.52l-4.09,2Z" transform="translate(-89.01 -120.65)"/><path class="cls-4" d="M473.83,850.58c.05,1.07.09,2.14.14,3.2C473.92,852.71,473.88,851.65,473.83,850.58Z" transform="translate(-89.01 -120.65)"/><path class="cls-4" d="M342.2,594.6l2.22,4Z" transform="translate(-89.01 -120.65)"/><path class="cls-7" d="M754.34,366.32l-5.43-1.07Z" transform="translate(-89.01 -120.65)"/><path class="cls-7" d="M742,364.4a2,2,0,0,0,0-.42l6.08,1.12-5.44-.54Z" transform="translate(-89.01 -120.65)"/><path class="cls-4" d="M616.22,733.56l3.25-.33Z" transform="translate(-89.01 -120.65)"/><path class="cls-8" d="M504.84,804.46l-1.19-.87,1.66-1.3C505.15,803,505,803.74,504.84,804.46Z" transform="translate(-89.01 -120.65)"/><path class="cls-14" d="M494.57,468.12l2.31-2.78Z" transform="translate(-89.01 -120.65)"/><path class="cls-4" d="M461.47,538.82l-2.35,2.64Z" transform="translate(-89.01 -120.65)"/><path class="cls-4" d="M376.8,643.55l2.37,2.6Z" transform="translate(-89.01 -120.65)"/><path class="cls-4" d="M553.85,733.24l3.25.34Z" transform="translate(-89.01 -120.65)"/><path class="cls-4" d="M478.57,806.35c-.32-1-.64-2.05-.95-3.08C477.93,804.3,478.25,805.33,478.57,806.35Z" transform="translate(-89.01 -120.65)"/><path class="cls-4" d="M351.84,384.46l3.25-1Z" transform="translate(-89.01 -120.65)"/><path class="cls-4" d="M662.66,724.91l3.26-.91Z" transform="translate(-89.01 -120.65)"/><path class="cls-4" d="M504.93,723.37l3.27.91Z" transform="translate(-89.01 -120.65)"/><path class="cls-4" d="M667,723.7l3.25-1Z" transform="translate(-89.01 -120.65)"/><path class="cls-4" d="M444.09,697.61l2.73,1.55Z" transform="translate(-89.01 -120.65)"/><path class="cls-4" d="M439.77,695.11l2.7,1.6Z" transform="translate(-89.01 -120.65)"/><path class="cls-4" d="M468.78,710.14l2.86,1.28Z" transform="translate(-89.01 -120.65)"/><path class="cls-4" d="M725.27,699.78l2.74-1.54Z" transform="translate(-89.01 -120.65)"/><path class="cls-4" d="M698.59,712.62l2.87-1.22Z" transform="translate(-89.01 -120.65)"/><path class="cls-4" d="M335,378.41l-1.32,2.86Z" transform="translate(-89.01 -120.65)"/><path class="cls-4" d="M548.9,732.63l2.64.3Z" transform="translate(-89.01 -120.65)"/><path class="cls-4" d="M331.23,571.64l1.21,2.88Z" transform="translate(-89.01 -120.65)"/><path class="cls-4" d="M456.14,253.78l-2.8,1.49Z" transform="translate(-89.01 -120.65)"/><path class="cls-4" d="M333.07,576l1.29,2.87Z" transform="translate(-89.01 -120.65)"/><path class="cls-4" d="M347.15,603.28c.54.89,1.09,1.78,1.64,2.67C348.24,605.06,347.69,604.17,347.15,603.28Z" transform="translate(-89.01 -120.65)"/><path class="cls-4" d="M345.32,600.16l1.6,2.71Z" transform="translate(-89.01 -120.65)"/><path class="cls-4" d="M702.92,710.77l2.86-1.28Z" transform="translate(-89.01 -120.65)"/><path class="cls-13" d="M489.87,488.14a3,3,0,0,0,.24.56c-.61.68-1.23,1.35-1.85,2l-.19-.17Z" transform="translate(-89.01 -120.65)"/><path class="cls-4" d="M630.47,731.75l2.62-.4Z" transform="translate(-89.01 -120.65)"/><path class="cls-4" d="M621.79,732.92l2.64-.31Z" transform="translate(-89.01 -120.65)"/><path class="cls-4" d="M473.09,712l2.88,1.22Z" transform="translate(-89.01 -120.65)"/><path class="cls-4" d="M775.49,664.62l2-1.77Z" transform="translate(-89.01 -120.65)"/><path class="cls-4" d="M394.65,661.59l2,1.79Z" transform="translate(-89.01 -120.65)"/><path class="cls-4" d="M372.47,638.59l1.73,2Z" transform="translate(-89.01 -120.65)"/><path class="cls-4" d="M801.6,638.11l1.71-2Z" transform="translate(-89.01 -120.65)"/><path class="cls-17" d="M371.71,385.75l-3.4,1Z" transform="translate(-89.01 -120.65)"/><path class="cls-4" d="M544.56,732l2,.28Z" transform="translate(-89.01 -120.65)"/><path class="cls-4" d="M626.74,732.3l2-.29Z" transform="translate(-89.01 -120.65)"/><path class="cls-4" d="M529.71,729.46l2,.38Z" transform="translate(-89.01 -120.65)"/><path class="cls-4" d="M637.9,730.53l2-.37Z" transform="translate(-89.01 -120.65)"/><path class="cls-4" d="M536.52,730.74l2,.32Z" transform="translate(-89.01 -120.65)"/><path class="cls-4" d="M634.79,731.05l2-.32Z" transform="translate(-89.01 -120.65)"/><path class="cls-17" d="M320.25,403l-2.55,1Z" transform="translate(-89.01 -120.65)"/><path class="cls-4" d="M647.2,728.7l2-.44Z" transform="translate(-89.01 -120.65)"/><path class="cls-4" d="M540.23,731.35l2,.3Z" transform="translate(-89.01 -120.65)"/><path class="cls-15" d="M474.59,509.2l1.21-1.79Z" transform="translate(-89.01 -120.65)"/><path class="cls-4" d="M448.67,552.06l-1.45,1Z" transform="translate(-89.01 -120.65)"/><path class="cls-4" d="M446.83,553.33l-1.52.95Z" transform="translate(-89.01 -120.65)"/><path class="cls-4" d="M650.28,728l1.39-.31Z" transform="translate(-89.01 -120.65)"/><path class="cls-4" d="M346.25,356.8c-.3.51-.6,1-.91,1.53C345.65,357.82,346,357.31,346.25,356.8Z" transform="translate(-89.01 -120.65)"/><path class="cls-4" d="M371,378.9l1.39-.37Z" transform="translate(-89.01 -120.65)"/><path class="cls-4" d="M358,382.61l1.65-.47Z" transform="translate(-89.01 -120.65)"/><path class="cls-4" d="M377.85,377l1.39-.35Z" transform="translate(-89.01 -120.65)"/><path class="cls-4" d="M330,568.55l.66,1.62Z" transform="translate(-89.01 -120.65)"/><path class="cls-4" d="M380.32,376.39l1.39-.34Z" transform="translate(-89.01 -120.65)"/><path class="cls-4" d="M464,535.77l-1.12,1.39Z" transform="translate(-89.01 -120.65)"/><path class="cls-4" d="M366.7,380.11l1.66-.44Z" transform="translate(-89.01 -120.65)"/><path class="cls-4" d="M382.79,375.74l1.4-.33Z" transform="translate(-89.01 -120.65)"/><path class="cls-4" d="M385.27,375.11l1.39-.32Z" transform="translate(-89.01 -120.65)"/><path class="cls-4" d="M527.22,728.94l1.41.28Z" transform="translate(-89.01 -120.65)"/><path class="cls-4" d="M477.65,871.15c.07-.34.13-.67.19-1C477.78,870.49,477.72,870.82,477.65,871.15Z" transform="translate(-89.01 -120.65)"/><path class="cls-4" d="M387.74,374.49l1.4-.32Z" transform="translate(-89.01 -120.65)"/><path class="cls-4" d="M466.41,532.62c-.36.48-.73,1-1.09,1.42C465.68,533.57,466.05,533.1,466.41,532.62Z" transform="translate(-89.01 -120.65)"/><path class="cls-4" d="M468.24,530.12c-.35.49-.7,1-1.06,1.45C467.54,531.09,467.89,530.61,468.24,530.12Z" transform="translate(-89.01 -120.65)"/><path class="cls-4" d="M390.22,373.88l1.4-.32Z" transform="translate(-89.01 -120.65)"/><path class="cls-4" d="M332.53,384c-.24.53-.47,1.07-.71,1.61C332.06,385.06,332.29,384.52,332.53,384Z" transform="translate(-89.01 -120.65)"/><path class="cls-4" d="M469.53,528.31l-1,1.45Z" transform="translate(-89.01 -120.65)"/><path class="cls-17" d="M368.06,386.81l-2.05.58Z" transform="translate(-89.01 -120.65)"/><path class="cls-4" d="M349,606.36l.94,1.5Z" transform="translate(-89.01 -120.65)"/><path class="cls-4" d="M350.93,609.43l1,1.47Z" transform="translate(-89.01 -120.65)"/><path class="cls-4" d="M516.09,726.39l1.4.31Z" transform="translate(-89.01 -120.65)"/><path class="cls-4" d="M352.13,611.31l1,1.46Z" transform="translate(-89.01 -120.65)"/><path class="cls-4" d="M353.35,613.17l1,1.46Z" transform="translate(-89.01 -120.65)"/><path class="cls-4" d="M354.59,615l1,1.45Z" transform="translate(-89.01 -120.65)"/><path class="cls-4" d="M817.75,617.11l1-1.48Z" transform="translate(-89.01 -120.65)"/><path class="cls-4" d="M355.84,616.88l1,1.44Z" transform="translate(-89.01 -120.65)"/><path class="cls-4" d="M816.51,619l1-1.47Z" transform="translate(-89.01 -120.65)"/><path class="cls-4" d="M815.23,620.79l1-1.43Z" transform="translate(-89.01 -120.65)"/><path class="cls-4" d="M358.9,621.23c.35.48.7.95,1,1.43C359.6,622.18,359.25,621.71,358.9,621.23Z" transform="translate(-89.01 -120.65)"/><path class="cls-4" d="M813.4,623.3l1.06-1.43Z" transform="translate(-89.01 -120.65)"/><path class="cls-4" d="M360.72,623.73l1,1.43Z" transform="translate(-89.01 -120.65)"/><path class="cls-4" d="M811.54,625.77l1.08-1.41Z" transform="translate(-89.01 -120.65)"/><path class="cls-4" d="M477.07,874.23c.05-.33.1-.66.14-1C477.17,873.57,477.12,873.9,477.07,874.23Z" transform="translate(-89.01 -120.65)"/><path class="cls-4" d="M362.55,626.22l1.09,1.41Z" transform="translate(-89.01 -120.65)"/><path class="cls-4" d="M809.66,628.23l1.09-1.4Z" transform="translate(-89.01 -120.65)"/><path class="cls-4" d="M364.43,628.68l1.09,1.4Z" transform="translate(-89.01 -120.65)"/><path class="cls-4" d="M392.7,373.27l1.4-.31Z" transform="translate(-89.01 -120.65)"/><path class="cls-4" d="M366.87,631.81l1.12,1.38Z" transform="translate(-89.01 -120.65)"/><path class="cls-4" d="M395.18,372.68l1.4-.32Z" transform="translate(-89.01 -120.65)"/><path class="cls-4" d="M804.71,634.41l1.12-1.37Z" transform="translate(-89.01 -120.65)"/><path class="cls-4" d="M369.37,634.89l1.13,1.36Z" transform="translate(-89.01 -120.65)"/><path class="cls-4" d="M397.66,372.1l1.4-.32Z" transform="translate(-89.01 -120.65)"/><path class="cls-4" d="M471.39,525.83l-1.09,1.43Z" transform="translate(-89.01 -120.65)"/><path class="cls-4" d="M473.25,523.41l-1.08,1.38Z" transform="translate(-89.01 -120.65)"/><path class="cls-4" d="M797.85,642.42l1.18-1.33Z" transform="translate(-89.01 -120.65)"/><path class="cls-18" d="M498.54,828.51l.2-1Z" transform="translate(-89.01 -120.65)"/><path class="cls-4" d="M403.22,370.79l1.4-.3Z" transform="translate(-89.01 -120.65)"/><path class="cls-4" d="M405.71,370.22l1.4-.31Z" transform="translate(-89.01 -120.65)"/><path class="cls-4" d="M644.7,729.21l1.4-.28Z" transform="translate(-89.01 -120.65)"/><path class="cls-4" d="M330,390.16l.46,1.32-1-.12C329.64,391,329.81,390.56,330,390.16Z" transform="translate(-89.01 -120.65)"/><path class="cls-18" d="M499.19,825.42l.18-1Z" transform="translate(-89.01 -120.65)"/><path class="cls-4" d="M524.13,728.28l1.41.28Z" transform="translate(-89.01 -120.65)"/><path class="cls-4" d="M400.86,667.15l1.33,1.15Z" transform="translate(-89.01 -120.65)"/><path class="cls-4" d="M771.17,668.34l1.34-1.15Z" transform="translate(-89.01 -120.65)"/><path class="cls-4" d="M404.54,670.27l1.35,1.14Z" transform="translate(-89.01 -120.65)"/><path class="cls-4" d="M767.45,671.43l1.35-1.14Z" transform="translate(-89.01 -120.65)"/><path class="cls-4" d="M410.7,675.26l1.39,1.1Z" transform="translate(-89.01 -120.65)"/><path class="cls-4" d="M761.22,676.34c.47-.36.94-.72,1.4-1.09C762.16,675.62,761.69,676,761.22,676.34Z" transform="translate(-89.01 -120.65)"/><path class="cls-4" d="M758.75,678.21l1.41-1.08Z" transform="translate(-89.01 -120.65)"/><path class="cls-4" d="M353.12,345.7l-1,1.48Z" transform="translate(-89.01 -120.65)"/><path class="cls-4" d="M756.27,680.05l1.41-1.06Z" transform="translate(-89.01 -120.65)"/><path class="cls-4" d="M753.76,681.85l1.42-1Z" transform="translate(-89.01 -120.65)"/><path class="cls-4" d="M751.93,683.14l1.44-1Z" transform="translate(-89.01 -120.65)"/><path class="cls-4" d="M420.61,682.69l1.43,1Z" transform="translate(-89.01 -120.65)"/><path class="cls-4" d="M422.43,684l1.44,1Z" transform="translate(-89.01 -120.65)"/><path class="cls-4" d="M747.56,686.17l1.45-1Z" transform="translate(-89.01 -120.65)"/><path class="cls-4" d="M745.71,687.42l1.45-1Z" transform="translate(-89.01 -120.65)"/><path class="cls-4" d="M743.85,688.64l1.46-1Z" transform="translate(-89.01 -120.65)"/><path class="cls-4" d="M429.83,689l1.48,1Z" transform="translate(-89.01 -120.65)"/><path class="cls-4" d="M742,689.86l1.46-1Z" transform="translate(-89.01 -120.65)"/><path class="cls-4" d="M431.71,690.16l1.49,1Z" transform="translate(-89.01 -120.65)"/><path class="cls-4" d="M432.59,267.35l-1.49,1Z" transform="translate(-89.01 -120.65)"/><path class="cls-4" d="M737,693l1.48-.94Z" transform="translate(-89.01 -120.65)"/><path class="cls-4" d="M436.67,693.25l1.5.93Z" transform="translate(-89.01 -120.65)"/><path class="cls-4" d="M733.94,694.83l1.5-.92Z" transform="translate(-89.01 -120.65)"/><path class="cls-15" d="M477.09,505.55l1.26-1.83Z" transform="translate(-89.01 -120.65)"/><path class="cls-4" d="M730.83,696.66l1.51-.91Z" transform="translate(-89.01 -120.65)"/><path class="cls-4" d="M641.6,729.82l1.4-.26Z" transform="translate(-89.01 -120.65)"/><path class="cls-4" d="M533.42,730.17l1.41.24Z" transform="translate(-89.01 -120.65)"/><path class="cls-18" d="M499.78,822.32c.05-.35.11-.69.16-1Z" transform="translate(-89.01 -120.65)"/><path class="cls-18" d="M500.93,816.56l.27-1.47Z" transform="translate(-89.01 -120.65)"/><path class="cls-4" d="M343.77,361.14l-.88,1.54Z" transform="translate(-89.01 -120.65)"/><path class="cls-4" d="M427,271.05l-1.48,1Z" transform="translate(-89.01 -120.65)"/><path class="cls-4" d="M354.35,343.84c-.33.49-.67,1-1,1.48C353.68,344.82,354,344.33,354.35,343.84Z" transform="translate(-89.01 -120.65)"/><path class="cls-4" d="M355.6,342l-1,1.47Z" transform="translate(-89.01 -120.65)"/><path class="cls-4" d="M356.85,340.15l-1,1.46Z" transform="translate(-89.01 -120.65)"/><path class="cls-4" d="M367.4,325.93l-1.11,1.4Z" transform="translate(-89.01 -120.65)"/><path class="cls-4" d="M695.5,713.88l1.61-.67Z" transform="translate(-89.01 -120.65)"/><path class="cls-4" d="M477.44,713.86l1.62.66Z" transform="translate(-89.01 -120.65)"/><path class="cls-4" d="M692.4,715.11l1.62-.65Z" transform="translate(-89.01 -120.65)"/><path class="cls-4" d="M480.54,715.1l1.62.64Z" transform="translate(-89.01 -120.65)"/><path class="cls-4" d="M480.41,812.56l-.34-1.25C480.19,811.73,480.3,812.15,480.41,812.56Z" transform="translate(-89.01 -120.65)"/><path class="cls-18" d="M502.13,811.57l.42-1.44Z" transform="translate(-89.01 -120.65)"/><path class="cls-4" d="M369.89,322.85l-1.13,1.38Z" transform="translate(-89.01 -120.65)"/><path class="cls-4" d="M362.37,381.35l1.65-.46Z" transform="translate(-89.01 -120.65)"/><path class="cls-4" d="M420.81,275.37l-1.44,1.05Z" transform="translate(-89.01 -120.65)"/><path class="cls-4" d="M373,319.15l-1.16,1.34Z" transform="translate(-89.01 -120.65)"/><path class="cls-4" d="M499.09,808.9l-.87,1Z" transform="translate(-89.01 -120.65)"/><path class="cls-4" d="M413.36,280.91,412,282Z" transform="translate(-89.01 -120.65)"/><path class="cls-4" d="M407.15,285.84,405.78,287Z" transform="translate(-89.01 -120.65)"/><path class="cls-4" d="M398.46,293.24l-1.32,1.2Z" transform="translate(-89.01 -120.65)"/><path class="cls-4" d="M403.44,288.93l-1.36,1.16Z" transform="translate(-89.01 -120.65)"/><path class="cls-17" d="M365.58,387.51l-1.53.47Z" transform="translate(-89.01 -120.65)"/><path class="cls-17" d="M363.71,388.08l-1.64.5Z" transform="translate(-89.01 -120.65)"/><path class="cls-17" d="M325.23,401.05l-1.27.47Z" transform="translate(-89.01 -120.65)"/><path class="cls-17" d="M322.13,402.26l-1.31.49Z" transform="translate(-89.01 -120.65)"/><path class="cls-14" d="M500.61,460.37l1.28,0c-.42.43-.84.87-1.25,1.31l-.3-.25Z" transform="translate(-89.01 -120.65)"/><path class="cls-15" d="M582.44,498.05l-1.2-1.32.15-.15.94.22c.06.39.13.79.2,1.18Z" transform="translate(-89.01 -120.65)"/><path class="cls-17" d="M323.35,401.76l-.83.33Z" transform="translate(-89.01 -120.65)"/><path class="cls-15" d="M476.42,506.61l.66-1Z" transform="translate(-89.01 -120.65)"/><path class="cls-15" d="M479.53,502.34l.67-1.1Z" transform="translate(-89.01 -120.65)"/><path class="cls-15" d="M581.24,496.73l-.82-1,.19-.19.78,1.07Z" transform="translate(-89.01 -120.65)"/><path class="cls-15" d="M481.38,499.81l.75-1Z" transform="translate(-89.01 -120.65)"/><path class="cls-15" d="M583.6,499.3l-.59-.63.06-.06.64.56Z" transform="translate(-89.01 -120.65)"/><path class="cls-15" d="M583,498.67l-.57-.62.08-.07.55.63Z" transform="translate(-89.01 -120.65)"/><path class="cls-15" d="M480.8,500.56l.46-.57Z" transform="translate(-89.01 -120.65)"/><path class="cls-15" d="M480.19,501.24l.57-.63Z" transform="translate(-89.01 -120.65)"/><path class="cls-15" d="M580.42,495.7l-.59-.65.17-.17.62.63Z" transform="translate(-89.01 -120.65)"/><path class="cls-15" d="M579.83,495.05l-.58-.65.2-.15.55.63Z" transform="translate(-89.01 -120.65)"/><path class="cls-15" d="M578.61,493.75l.76-.12.16.09a.75.75,0,0,0-.08.53l-.2.15Z" transform="translate(-89.01 -120.65)"/><path class="cls-14" d="M578,488.85l.6-.62a2.28,2.28,0,0,0,.22.22l-.54.63A3.11,3.11,0,0,1,578,488.85Z" transform="translate(-89.01 -120.65)"/><path class="cls-14" d="M578.64,488.23l.61-.63a2.39,2.39,0,0,0,.22.23l-.61.63Z" transform="translate(-89.01 -120.65)"/><path class="cls-14" d="M579.25,487.6l.6-.64a2.73,2.73,0,0,0,.23.25l-.61.62A2.39,2.39,0,0,1,579.25,487.6Z" transform="translate(-89.01 -120.65)"/><path class="cls-14" d="M579.85,487l.59-.62a3.88,3.88,0,0,1,.26.31l-.62.56A2.73,2.73,0,0,1,579.85,487Z" transform="translate(-89.01 -120.65)"/><path class="cls-14" d="M496.91,465.31c-.06-.24-.11-.47-.16-.7a1.5,1.5,0,0,0,.54-.18l.26.3Z" transform="translate(-89.01 -120.65)"/><path class="cls-14" d="M498.16,464.11l-.61.62-.26-.3.62-.57Z" transform="translate(-89.01 -120.65)"/><path class="cls-14" d="M498.78,463.49l-.62.62-.25-.25.62-.62Z" transform="translate(-89.01 -120.65)"/><path class="cls-14" d="M499.4,462.87l-.62.62-.25-.25c.21-.2.41-.41.62-.62Z" transform="translate(-89.01 -120.65)"/><path class="cls-14" d="M500,462.25l-.62.62-.25-.25c.21-.2.41-.41.62-.62Z" transform="translate(-89.01 -120.65)"/><path class="cls-14" d="M500.64,461.64c-.21.2-.42.4-.62.61l-.25-.25.57-.61Z" transform="translate(-89.01 -120.65)"/><path class="cls-15" d="M479,503.06l.5-.6Z" transform="translate(-89.01 -120.65)"/><path class="cls-14" d="M502.45,459.8l.63-.67Z" transform="translate(-89.01 -120.65)"/><path class="cls-15" d="M478.34,503.73c.19-.22.39-.43.58-.64C478.73,503.3,478.53,503.51,478.34,503.73Z" transform="translate(-89.01 -120.65)"/><path class="cls-15" d="M475.84,507.36l.45-.56Z" transform="translate(-89.01 -120.65)"/><path class="cls-4" d="M450.5,256.77l-.79.45Z" transform="translate(-89.01 -120.65)"/><path class="cls-4" d="M470.21,246.73l-.78.43Z" transform="translate(-89.01 -120.65)"/><path class="cls-15" d="M625.68,548.86l-.69-.54.17-.14.6.57Z" transform="translate(-89.01 -120.65)"/><path class="cls-4" d="M444.92,554.49l-.82.43Z" transform="translate(-89.01 -120.65)"/><path class="cls-4" d="M467.84,248.13l-.81.41Z" transform="translate(-89.01 -120.65)"/><path class="cls-7" d="M124.14,477.87c-7.2.46-14.4,1-21.6,1.35a57.82,57.82,0,0,1-8-.26,3.06,3.06,0,0,1-2-1.48c-.17-.32.65-1.51,1.27-1.85a43.94,43.94,0,0,1,6.37-3.08c10.65-3.85,21.72-4.53,32.92-4.23,1.95.05,4.84,1.31,5.37-1.72.13-.75-2.83-2.31-4.56-3.07-3.57-1.58-7.29-2.82-10.9-4.33-.6-.26-.94-1.15-1.41-1.76.63-.27,1.27-.81,1.89-.78a88.7,88.7,0,0,1,11.07.73c9.43,1.61,18.36,4.66,26.33,10.15,1.22.84,2.17,1.33.76,3-12,14.21-25.27,26.88-41.27,36.48a33.84,33.84,0,0,1-8.79,3.63c-4.8,1.28-8.51-2.22-6.64-6.73a22.79,22.79,0,0,1,7.47-9.41c6.18-4.4,13-7.89,19.59-11.74.62-.36,1.44-.47,1.93-.94a19.72,19.72,0,0,0,1.92-2.5c-.91-.55-1.78-1.5-2.72-1.57-3-.2-6-.07-9-.07Z" transform="translate(-89.01 -120.65)"/><path class="cls-7" d="M123.16,524.22c-1.33,8.91-2.55,17.49-7.07,25.12a22.91,22.91,0,0,1-3.47,4.68c-1.76,1.75-3.46,1.2-4.3-1a8.08,8.08,0,0,1-.47-3.92c1.57-10.23,6.61-18.71,13.51-26.21a6,6,0,0,1,1.49-.89C123,522.8,123.08,523.66,123.16,524.22Z" transform="translate(-89.01 -120.65)"/><path class="cls-7" d="M95.63,428.28c2.38,1.33,5.29,2.18,7,4.09,3.21,3.54,5.75,7.68,8.52,11.61a4.45,4.45,0,0,1,.33,1.68,4.68,4.68,0,0,1-1.67-.32c-4.64-2.84-9.35-5.58-13.78-8.71a10.56,10.56,0,0,1-3.2-4.74C92.08,430,93.13,428.73,95.63,428.28Z" transform="translate(-89.01 -120.65)"/><path class="cls-1" d="M498.68,535.17c2.37-1.18,4.71-2.44,7.13-3.5,7.11-3.15,14.35-2.73,21.39,0a73.93,73.93,0,0,1,14.46,6.91,70.45,70.45,0,0,0,24.91,10.23c13.64,2.92,24.32,10.62,31.82,22.29,6.07,9.43,11.52,19.26,17.26,28.9a10.65,10.65,0,0,0,1,1.17c3.33,7.31,7,14.5,9.91,22,3.37,8.64,3.17,17.24-4.1,24a45.18,45.18,0,0,1-11.88,7.71c-35.07,16.09-71.3,22.58-109.2,11.61-17.51-5.07-34.12-12.24-48.67-23.67-6.58-5.18-9-11.16-7.31-19.44,4.91-24.46,14.54-46.57,31.23-65.34,5.67-6.39,11.46-12.68,17.2-19l1.33-1.18,1.71-1.38,1.45-1A1.47,1.47,0,0,0,498.68,535.17ZM539,663.65c5.15,0,10.33.33,15.46-.06,18.37-1.4,35.41-7.79,52.12-14.93,15-6.4,17.56-12.91,10.61-27.72-5.33-11.36-11.61-22.28-17.73-33.25a153.88,153.88,0,0,0-10-15.62c-5.23-7.16-11.44-13-20.49-15.54A134.48,134.48,0,0,1,536.22,542c-3.45-2-7.21-3.56-10.83-5.31-9.41-4.54-18-2.65-25.54,3.92a146.16,146.16,0,0,0-34,42.16c-6.46,12.23-12.38,24.75-14.49,38.63S449.75,636.2,462.05,643A160.11,160.11,0,0,0,539,663.65Z" transform="translate(-89.01 -120.65)"/><path class="cls-4" d="M674.63,695.61c-5.28,0-8.73-3.37-8.74-8.58a8.68,8.68,0,0,1,17.36-.18C683.28,692.1,679.84,695.59,674.63,695.61Z" transform="translate(-89.01 -120.65)"/><path class="cls-4" d="M402.88,625a7,7,0,0,1,7.25,7.45,7.82,7.82,0,0,1-7.34,7.35,7.54,7.54,0,0,1-7.45-7.74C395.38,627.66,398.29,624.93,402.88,625Z" transform="translate(-89.01 -120.65)"/><path class="cls-4" d="M682.89,659a5.87,5.87,0,1,1-5.83,5.58C677.1,661,679.14,659,682.89,659Z" transform="translate(-89.01 -120.65)"/><path class="cls-4" d="M652.86,634.71c-.36,2.48-1.78,4.24-4,3.67a5.66,5.66,0,0,1-3.6-3.66c-.33-2.18,1.37-3.69,3.92-3.54A3.6,3.6,0,0,1,652.86,634.71Z" transform="translate(-89.01 -120.65)"/><path class="cls-4" d="M403.09,603.56c-1.5-2.31-3-3.56-3.06-4.92-.15-2,1.35-3.81,3.49-3.16,1.38.41,3.12,2.2,3.23,3.48S404.89,601.42,403.09,603.56Z" transform="translate(-89.01 -120.65)"/><path class="cls-4" d="M426.52,584.62c-1-1.66-2-2.61-1.9-3.29.22-1,1.32-1.7,2-2.53.66.88,1.7,1.7,1.87,2.67C428.66,582.14,427.59,583,426.52,584.62Z" transform="translate(-89.01 -120.65)"/><path class="cls-4" d="M495.12,537.81,493.79,539Z" transform="translate(-89.01 -120.65)"/><path class="cls-4" d="M498.28,535.41l-1.45,1Z" transform="translate(-89.01 -120.65)"/><path class="cls-6" d="M506.17,280.62c0,6.2-4.27,10.82-9.89,10.75s-9.32-4.09-9.25-9.79c.07-6.3,4.35-10.73,10.31-10.67C502.62,271,506.2,274.89,506.17,280.62Z" transform="translate(-89.01 -120.65)"/><path class="cls-6" d="M525.63,256.71c3.64,0,7.64,4.08,7.71,7.89.06,3.42-3.52,6.86-7.06,6.79-3.77-.07-6.52-3.25-6.52-7.53C519.75,259.43,522,256.73,525.63,256.71Z" transform="translate(-89.01 -120.65)"/><path class="cls-6" d="M530.26,287.66a6.64,6.64,0,0,1,6.87,6.44,5.73,5.73,0,0,1-5.79,5.92c-4.05.07-6.6-2.42-6.61-6.45C524.72,289.75,526.65,287.69,530.26,287.66Z" transform="translate(-89.01 -120.65)"/><path class="cls-6" d="M828,522.23c5.62,0,9.39,4.08,9.35,10-.05,6.2-4.73,11.07-10.56,11a9.56,9.56,0,0,1-9.1-9.49C817.81,528,822.28,521.39,828,522.23Z" transform="translate(-89.01 -120.65)"/><path class="cls-6" d="M813.48,503.51c-.83-1.14-1.7-1.81-1.7-2.49,0-.51,1.09-1,1.7-1.55.52.63,1.31,1.19,1.45,1.89C815,501.84,814.2,502.5,813.48,503.51Z" transform="translate(-89.01 -120.65)"/><path class="cls-6" d="M756.25,712.32a4.59,4.59,0,0,1-4.89-4.7,5,5,0,1,1,9.89.1A4.62,4.62,0,0,1,756.25,712.32Z" transform="translate(-89.01 -120.65)"/><path class="cls-6" d="M776.22,689.24c1.25,1.56,2.77,2.69,2.6,3.43-.25,1.07-1.71,1.87-2.65,2.79-.81-.88-2.19-1.72-2.26-2.65S775.1,690.87,776.22,689.24Z" transform="translate(-89.01 -120.65)"/><path class="cls-2" d="M160.07,591c0-4-.09-8,.06-12.05a11.94,11.94,0,0,1,1.19-3.37c.56,1.11,1.46,2.17,1.6,3.33.47,3.57.75,7.17.88,10.77.07,2,.77,2.7,2.78,2.64,3.91-.14,7.84-.18,11.74,0a15.53,15.53,0,0,1,6.3,1.23c1.75.92,3.87,2.69,4.23,4.41.94,4.59-.69,8.93-3.18,12.84-.29.47-1.19.54-1.81.8a8.28,8.28,0,0,1-.06-2.16c.6-2.49,1.42-4.93,2-7.43.57-2.66-.62-4.76-3.24-5.05-5.6-.61-11.25-.82-16.88-1-.37,0-1.11,1.46-1.15,2.26-.1,2.56.24,5.15,0,7.7-.09,1-1.24,1.82-1.91,2.72-.63-.93-1.76-1.84-1.8-2.8-.18-4.93-.09-9.88-.09-14.82Z" transform="translate(-89.01 -120.65)"/><path class="cls-2" d="M179.28,553.84c-4.88,0-11.11-6.94-10.65-11.86.27-2.93,3.19-4.33,5.35-2.15s3.4,5,5.07,7.56c.36.55.77,1.08,1.16,1.62.51-.59,1.48-1.19,1.46-1.75-.11-2.53-.54-5-.76-7.58a13.65,13.65,0,0,1,.2-2.45c.68.5,1.66.86,2,1.54a37.84,37.84,0,0,1,2.7,6.57A6.78,6.78,0,0,1,179.28,553.84Z" transform="translate(-89.01 -120.65)"/><path class="cls-2" d="M177.64,590a45.09,45.09,0,0,1-5.22-1c-.6-.18-1-1.12-1.44-1.72.62-.43,1.2-1.15,1.86-1.24,2.55-.33,5.13-.38,7.67-.69a6.5,6.5,0,0,0,2-1.11c-.54-.66-1-1.7-1.64-1.92-1.73-.57-3.63-.6-5.36-1.16a11.07,11.07,0,0,1-2.73-2c1-.54,1.91-1.52,2.87-1.54,3.77,0,7.25-.35,9-4.41.15-.35,1.28-.71,1.45-.54.46.44,1.05,1.33.87,1.75-.61,1.48-1.63,2.78-2.29,4.24-.33.74-.62,2-.24,2.48,2.88,4,2.28,6.28-2.41,7.92A32.35,32.35,0,0,1,177.64,590Z" transform="translate(-89.01 -120.65)"/><path class="cls-2" d="M185.8,560.28c-.09,3.79-2.33,5.86-7,5.34-4-.46-7.34-2.33-8.9-6.17a8.22,8.22,0,0,1,.17-4.94c.17-.61,1.79-.83,2.75-1.22a8.76,8.76,0,0,1,.32,2.4c-.38,2.74,2.19,5.73,5.5,6.22,3,.45,4.63-.91,4.93-4a19,19,0,0,1,.67-2.75c.52,1,1.09,1.95,1.55,3A8.28,8.28,0,0,1,185.8,560.28Z" transform="translate(-89.01 -120.65)"/><path class="cls-2" d="M178.77,533.64c-5.18-.75-10.09-1.35-15-2.25-1.1-.2-2-1.4-3-2.13,1.22-.46,2.52-1.43,3.66-1.28,4.79.64,9.57,1.54,14.31,2.54,1.11.23,2.06,1.24,3.08,1.89Z" transform="translate(-89.01 -120.65)"/><path class="cls-2" d="M178.53,568c1.66-.08,3.62-.28,5.56-.22.65,0,1.29.7,1.93,1.07-.44.5-.85,1.38-1.34,1.43-4.17.38-8.35.69-12.54.81-.6,0-1.23-1.1-1.85-1.69.7-.47,1.36-1.27,2.1-1.34C174.32,567.86,176.29,568,178.53,568Z" transform="translate(-89.01 -120.65)"/><path class="cls-2" d="M188.9,531.31c-1.48,1.17-2.3,2.32-3.05,2.27a3,3,0,0,1-2.16-1.92,2.83,2.83,0,0,1,1.7-2.25C186.29,529.36,187.26,530.35,188.9,531.31Z" transform="translate(-89.01 -120.65)"/><path class="cls-9" d="M403.92,401.61l.07-.05h0Z" transform="translate(-89.01 -120.65)"/><path class="cls-19" d="M803.23,379.67c-5.31-1.94-10.65-3.9-16.11-5.34-10.63-2.8-21.36-5.26-32-7.86l-.74-.15-5.43-1.07-.81-.15-5.44-.54h0l-.66-.16-6.77-1.58-1.78-.25-6.26-1-1.8-.22-6.8-1-1-.23a.94.94,0,0,1-.45.21l-1.71.36a2.34,2.34,0,0,0-.09-.46l-8.5-.78L705,359l-7.62-.64-.19.19-.19-.21-6.35-.64-7.93-1.08-1.35-.12-3.08.5c.21,2,.41,4.07.62,6.1-.21-2-.41-4.07-.62-6.1l-7.49-.47-6.73-.17-10.55-.54-31.54-.7H609a4.35,4.35,0,0,0-4.69,3.55c-1.49,5.64-3.08,11.25-4.64,16.87L596,382.39l0,0c-1,3.6-5,6.46-9.66,6.72-5.33.3-10.67.54-16,.62-17.38.28-34.75.45-52.13.73-4,.06-8,.36-12,.56-10.4,0-20.8.06-31.2-.1a78.66,78.66,0,0,1-10.37-1.13c-4.83-.74-8.44-3.13-9.91-8.07h0c-.78-3.17-2-6.31-2.21-9.53-.21-2.91-1.33-3.13-3.69-2.7-6,1.11-12.11,2.07-18.17,3.09l-.66.45-5.53.78-.67.46-5.52.82-.66.42-3,.61-11.85,2.1-8.57,1.7h0l-22.42,5.79-3.41,1-.15-.07-.1.14-2.05.58a.28.28,0,0,0-.43.12l-1.53.47-.2-.05-.14.15-1.64.5-.83.23c-2.07.56-4.19,1-6.22,1.7-9.79,3.42-19.57,6.91-29.35,10.37a.3.3,0,0,0-.44.17l-1.27.47-.61.24-.83.33a.25.25,0,0,0-.39.17l-1.31.49-.57.23-2.55,1c-4.51,1.75-9,3.56-13.53,5.21-2,.73-2.5,1.84-2.27,4,3,28.19,5.82,56.38,8.74,84.57,1.17,11.27,2.53,22.52,3.66,33.79.28,2.8,1.79,3.89,4.27,4.37,14.66,2.84,29.24,6.13,44,8.43,12.29,1.92,24.77,2.68,37.17,4a4.25,4.25,0,0,0,1.16.34c12,.21,23.92.63,35.86.4a14.35,14.35,0,0,0,8.54-3.57,117.71,117.71,0,0,0,12.88-13.72c4.72-5.82,8.92-12,13.35-18.09v0l3-4.34,0-.06,1.21-1.79,0-.05.45-.56.13-.19.66-1v0l1.26-1.83h0l.58-.64,0,0,.5-.6.08-.12.67-1.1.56-.63,0-.05.46-.57.12-.18.75-1,6.13-8-.19-.17-.57.49.57-.5h0l1.8-2.42-4.18-7.39c.76-5.64,4.67-9.06,8.72-12.39.15,0,.2-.1.17-.24.76-.93,1.53-1.86,2.3-2.78l0,0c-.06-.24-.11-.47-.17-.71h0a1.5,1.5,0,0,0,.54-.18l.62-.57.62-.62c.21-.2.41-.41.62-.62s.41-.41.62-.62l.57-.61.27-1,1.27,0,.57-.53.63-.67h0c.45-.8.9-1.6,1.36-2.4l2.08-.56.14-.11.89-1.8,4.61-2.77c.09-.25.18-.5.26-.75l15.46-4.8h3l15.52,3.24,5.49,2.06c9,3.75,16.22,10,23.46,16.26,3.17,2.73,5.92,5.94,8.86,8.93,1.46,3.89.13,7.09-2.5,9.95l-1,.27-.62.56-.61.62-.61.62-.54.63,1,4.56.16.08a.75.75,0,0,0-.08.53l.55.63.61.63.78,1.07.94.22c.06.39.13.79.19,1.18l.55.63.64.56-.11.13a9.82,9.82,0,0,0,.78,1.29c11.16,13.55,22.29,27.11,33.53,40.58,2.14,2.57,4.71,4.78,7.08,7.15l.17-.14h0l.6.57a6.68,6.68,0,0,1,1.77.47c8.3,5,16.9,1.92,25.42,1l9.23-.24.68-.43,7.4-.65,9.26-.6,4.29-.11,3.81-.48,3.57-.22,7.53-1.65c4.7-.43,9.4-.88,14.1-1.3,5.21-.46,10.45-.78,15.65-1.37,10-1.12,20-2.45,29.95-3.56,5.49-.61,7.94-2.44,9.11-7.88a345.53,345.53,0,0,1,12.81-44.12c4.47-12.48,8.36-25.16,12.51-37.76,2.77-7.77,2.72-7.66-4.64-10.8-3.15-1.34-6.05-3.25-9.06-4.9l-.69-.31-4.16-1.35h0l-1,.14,1-.14-1.51-2.84.24-.21c-.14-1.63-.74-3.38-.35-4.86,2.68-10,5.27-20.1,8.49-30,1.93-5.92,4.65-7.09,10.78-5.86a91.06,91.06,0,0,1,10,3c1.54.51,2.31.35,2.4-1.48.15-2.66.63-5.33.61-8A3.41,3.41,0,0,0,803.23,379.67ZM355.67,438.54c-1.87,1.06-2.88.37-3.19-1.61q-1.11-7.1-2.18-14.19l-.29-.25c-3.07,4.5-5.1,9.4-4.89,14.93.32,8.2.92,16.4,1.18,24.61,0,1.22-1.14,2.48-1.75,3.72l-1.63-.51c-6.34-5.86-7-13.77-8.07-21.65-.94-7-2.25-14-3.84-20.92-.8-3.47.44-7.54-2.7-10.46-.15-.14.55-1.19.85-1.81l23-9.81c1.92.11,3.84.24,5.76.32a3.64,3.64,0,0,0,1.39-.2q9-3.34,18.06-6.74l.62.16,1.26,1.32c-.74,4.65-1.33,9.33-2.32,13.93-.28,1.28-1.78,2.27-2.67,3.44-.67.88-1.79,1.82-1.8,2.75-.06,3.37.26,6.74.44,10.12,0,.65.05,1.31.07,2,.05,1,.09,2,.14,3l.24,5,.69,1.94,0,1.24c-1,.74-2,2-3.13,2.16-4.53.77-10-4.6-10.25-9.18-.31-5.16-1.29-10.27-2-15.41H357c.35,4.58.3,9.24,1.18,13.72C358.86,433.65,358.33,436.27,355.67,438.54ZM391,547l-16.69-1.87-16.69-2h0l16.69,2L391,546.94l.24-1Zm13-145.39-.07.05.07-.05h0c0,.51.05,1,.07,1.53C404,402.58,404,402.07,404,401.56ZM661.56,505c0,1.44,0,2.87,0,4.31h0c0-1.44,0-2.87,0-4.31l-1,.35,1-.35Zm5.58-125.68h0c.22-.57.44-1.14.64-1.72C667.58,378.13,667.37,378.7,667.14,379.27Zm1.93-5.76c-.21.78-.45,1.55-.7,2.32.25-.77.49-1.54.7-2.32.11-.38.22-.77.32-1.16C669.29,372.74,669.18,373.13,669.07,373.51Zm102.12,59.56.91-.23Z" transform="translate(-89.01 -120.65)"/><path class="cls-20" d="M772.1,432.84l-.91.23Z" transform="translate(-89.01 -120.65)"/><path class="cls-20" d="M774.3,432.47h0l-1,.14Z" transform="translate(-89.01 -120.65)"/><path class="cls-7" d="M687.62,547.69l-3.81.48Z" transform="translate(-89.01 -120.65)"/><path class="cls-21" d="M667.14,379.27c.22-.57.44-1.14.64-1.72-.2.58-.41,1.15-.64,1.72Z" transform="translate(-89.01 -120.65)"/><path class="cls-21" d="M668.37,375.83c.25-.77.49-1.54.7-2.32C668.86,374.29,668.62,375.06,668.37,375.83Z" transform="translate(-89.01 -120.65)"/><path class="cls-21" d="M669.07,373.51c.11-.38.22-.77.32-1.16C669.29,372.74,669.18,373.13,669.07,373.51Z" transform="translate(-89.01 -120.65)"/><path class="cls-21" d="M678.89,363.12c-.21-2-.41-4.07-.62-6.1h0C678.48,359.05,678.68,361.09,678.89,363.12Z" transform="translate(-89.01 -120.65)"/><path class="cls-22" d="M488.07,490.56l-.57.49.57-.5Z" transform="translate(-89.01 -120.65)"/><path class="cls-9" d="M374.28,545.08l-16.69-2h0Z" transform="translate(-89.01 -120.65)"/><path class="cls-23" d="M352.13,400.59c1.92.11,3.84.24,5.76.32a3.64,3.64,0,0,0,1.39-.2q9-3.34,18.06-6.74l.62.16,1.26,1.32c-.74,4.65-1.33,9.33-2.32,13.93-.28,1.28-1.78,2.27-2.67,3.44-.67.88-1.79,1.82-1.8,2.75-.06,3.37.26,6.75.44,10.12,0,.65.05,1.31.07,2l.13,3c.09,1.68.17,3.35.25,5l.69,1.95,0,1.22c-1,.75-2,2-3.13,2.17-4.53.77-10-4.6-10.25-9.18-.31-5.16-1.29-10.27-2-15.41-1.82-2.32-1.91-4.8-.89-7.5a34.57,34.57,0,0,0,1.26-4.75,3.08,3.08,0,0,0-.22-1.15c-.35.29-.85.5-1,.87-1,2.24-2,4.51-2.87,6.8-.78,2-3,4.53,1.49,5,.21,0,.37.47.55.72.35,4.58.3,9.24,1.19,13.72.69,3.52.16,6.14-2.5,8.41-1.87,1.06-2.88.37-3.19-1.61-.74-4.73-1.46-9.46-2.19-14.19l1.09-3.24.62-.62c.21-.61.43-1.22.65-1.83.17-.26.36-.52.52-.79a1.19,1.19,0,0,0-.21-.17l-.36.92c-.2.63-.39,1.26-.59,1.88l-.62.62-1.38,3c-3.07,4.5-5.1,9.4-4.89,14.93.32,8.2.92,16.4,1.18,24.61,0,1.22-1.14,2.48-1.75,3.72l-1.63-.51c-6.34-5.86-7-13.77-8.07-21.65-.94-7-2.25-14-3.84-20.92-.8-3.47.44-7.54-2.7-10.46-.15-.14.55-1.19.85-1.81Zm-7.76,12.17c-.66-.19-1.23-.53-1.45-.37a15.24,15.24,0,0,0-3,2.65c-.18.24.74,1.36,1.16,2.07C342.1,415.75,343.13,414.4,344.37,412.76Z" transform="translate(-89.01 -120.65)"/><path class="cls-24" d="M357,542.71l.63.4Z" transform="translate(-89.01 -120.65)"/><path class="cls-25" d="M661.56,505c0,1.44,0,2.87,0,4.31h0C661.55,507.82,661.56,506.39,661.56,505Z" transform="translate(-89.01 -120.65)"/><path class="cls-16" d="M425.05,494.41l-3.09-13h0Z" transform="translate(-89.01 -120.65)"/><path class="cls-7" d="M661.56,505c0,1.44,0,2.87,0,4.31h0C661.55,507.82,661.56,506.39,661.56,505Z" transform="translate(-89.01 -120.65)"/><path class="cls-17" d="M715.47,360.7a3.4,3.4,0,0,0-.09-.46l1.8.1Z" transform="translate(-89.01 -120.65)"/><path class="cls-21" d="M418.26,375.13l-.67.42Z" transform="translate(-89.01 -120.65)"/><path class="cls-21" d="M424.45,373.85l-.67.46Z" transform="translate(-89.01 -120.65)"/><path class="cls-21" d="M430.64,372.62l-.66.45Z" transform="translate(-89.01 -120.65)"/><path class="cls-1" d="M183.45,482.76a6.07,6.07,0,0,1-6.23-5.9,6.12,6.12,0,1,1,12.24-.21A6,6,0,0,1,183.45,482.76Z" transform="translate(-89.01 -120.65)"/><path class="cls-26" d="M667.78,377.55c-.2.58-.41,1.15-.64,1.72h0C667.36,378.7,667.58,378.13,667.78,377.55Z" transform="translate(-89.01 -120.65)"/><path class="cls-26" d="M669.07,373.51c-.21.78-.45,1.55-.7,2.32C668.62,375.06,668.86,374.29,669.07,373.51Z" transform="translate(-89.01 -120.65)"/><path class="cls-26" d="M669.39,372.35c-.1.39-.21.78-.32,1.16C669.18,373.13,669.29,372.74,669.39,372.35Z" transform="translate(-89.01 -120.65)"/><path class="cls-12" d="M527.89,445.94h0Z" transform="translate(-89.01 -120.65)"/><path class="cls-7" d="M662.18,550l.68-.43Z" transform="translate(-89.01 -120.65)"/><path class="cls-17" d="M706.88,359.46,705,359Z" transform="translate(-89.01 -120.65)"/><path class="cls-10" d="M697.36,358.38l-.2.19-.18-.21A.5.5,0,0,1,697.36,358.38Z" transform="translate(-89.01 -120.65)"/><polygon class="cls-11" points="578.13 258.62 578.13 258.62 578.13 258.62 578.13 258.62"/><path class="cls-27" d="M539,663.65A160.11,160.11,0,0,1,462.05,643c-12.3-6.82-12.75-7.88-10.66-21.63s8-26.4,14.49-38.63a146.16,146.16,0,0,1,34-42.16c7.57-6.57,16.13-8.46,25.54-3.92,3.62,1.75,7.38,3.26,10.83,5.31a134.48,134.48,0,0,0,32.71,14.54c9.05,2.52,15.26,8.38,20.49,15.54a153.88,153.88,0,0,1,10,15.62c6.12,11,12.4,21.89,17.73,33.25,7,14.81,4.39,21.32-10.61,27.72-16.71,7.14-33.75,13.53-52.12,14.93C549.3,664,544.12,663.65,539,663.65ZM533.63,627v1.27c7.83,0,15.66.06,23.49,0a23.17,23.17,0,0,0,13.78-4.87,11.07,11.07,0,0,0,4.73-9.55c0-6.71-3-11.77-8-16-12.21-10.18-25.43-18.92-38.77-27.48-3.78-2.42-8.1-4.05-12.3-5.73-9.44-3.76-18.2-2-26.31,3.78a48,48,0,0,0-18.77,27.19,14.69,14.69,0,0,0,.94,11.13c4.83,9.17,11.7,15.92,22.18,18.22,3.52.77,7.07,1.85,10.63,2C514.67,627.15,524.15,627,533.63,627ZM531,654.86c1.8-.21,3.12-.13,4.22-.58a4.63,4.63,0,0,0,2.58-2.2c.22-.67-.7-2.11-1.49-2.67a18.9,18.9,0,0,0-4.43-2.08c-8.42-3-16.82-6.11-25.31-8.92A100.9,100.9,0,0,0,493.24,635c-2.73-.49-4.64,1.29-5.68,3.86s-.62,5,1.53,6.39a37.33,37.33,0,0,0,10.14,4.88c4.33,1.15,8.95,1.17,13.42,1.82C519,652.87,525.25,653.94,531,654.86ZM515.45,539.17c-5.71.07-19.82,9.14-21.87,13.53-.36.78-.43,2.45,0,2.67a3.77,3.77,0,0,0,3,.23c4.54-2.18,8.95-4.63,13.46-6.87,2.11-1.05,4.57-1.54,6.45-2.87a4.81,4.81,0,0,0,1.57-4.09C517.78,540.56,516,539.68,515.45,539.17ZM588.59,639.4a7.68,7.68,0,0,0,7.56,7.71,8,8,0,0,0,7.63-7.45,7.71,7.71,0,0,0-7.58-7.75A7.18,7.18,0,0,0,588.59,639.4ZM574.88,581c3.34,0,5.52-2,5.52-5.27a5.53,5.53,0,0,0-5.39-5.61,5.9,5.9,0,0,0-5.5,5.62A5.57,5.57,0,0,0,574.88,581Z" transform="translate(-89.01 -120.65)"/><path class="cls-17" d="M357.78,408.91c-1,2.7-.93,5.18.89,7.5H357c-.18-.25-.34-.7-.54-.72-4.51-.48-2.28-3-1.5-5,.9-2.3,1.87-4.57,2.87-6.81.16-.37.66-.58,1-.87a3.08,3.08,0,0,1,.22,1.15A34.57,34.57,0,0,1,357.78,408.91Z" transform="translate(-89.01 -120.65)"/><path class="cls-5" d="M344.37,412.76c-1.24,1.64-2.27,3-3.29,4.35-.42-.71-1.34-1.83-1.16-2.07a15.24,15.24,0,0,1,3-2.65C343.14,412.23,343.71,412.57,344.37,412.76Z" transform="translate(-89.01 -120.65)"/><path class="cls-17" d="M350,422.49l1.38-3h0l-1.09,3.24Z" transform="translate(-89.01 -120.65)"/><path class="cls-28" d="M372.87,425.69c0,.65.05,1.31.07,2C372.92,427,372.89,426.34,372.87,425.69Z" transform="translate(-89.01 -120.65)"/><path class="cls-28" d="M373.32,435.66l.69,1.94Z" transform="translate(-89.01 -120.65)"/><path class="cls-16" d="M378,394.13l1.26,1.32Z" transform="translate(-89.01 -120.65)"/><path class="cls-17" d="M352,418.89c.2-.62.39-1.25.59-1.88l0,0c-.22.61-.44,1.22-.65,1.83Z" transform="translate(-89.01 -120.65)"/><path class="cls-17" d="M352.6,417l.36-.92a1.19,1.19,0,0,1,.21.17c-.16.27-.35.53-.52.79Z" transform="translate(-89.01 -120.65)"/><path class="cls-17" d="M352,418.88l-.62.62h0l.62-.62Z" transform="translate(-89.01 -120.65)"/><path class="cls-1" d="M533.63,627c-9.48,0-19,.19-28.43-.09-3.56-.1-7.11-1.18-10.63-2-10.48-2.3-17.35-9-22.18-18.22a14.69,14.69,0,0,1-.94-11.13,48,48,0,0,1,18.77-27.19c8.11-5.79,16.87-7.54,26.31-3.78,4.2,1.68,8.52,3.31,12.3,5.73,13.34,8.56,26.56,17.3,38.77,27.48,5.06,4.21,8,9.27,8,16a11.07,11.07,0,0,1-4.73,9.55,23.17,23.17,0,0,1-13.78,4.87c-7.83.08-15.66,0-23.49,0ZM498.8,582.17l.72.26c.07,1.43,0,2.88.21,4.31.76,6.25,3.95,10.92,9.87,13.06,5.65,2,10.09-.82,14.17-4.55,5.32-4.86,6.11-11.45,7.06-18,.1-.73-1-2-1.81-2.45-4.82-2.53-9.65-5.05-14.64-7.23A20.67,20.67,0,0,0,507,566a4.67,4.67,0,0,0-3.68,2.26C501.52,572.78,500.25,577.51,498.8,582.17Zm45.26,24.74c3.88-.06,11-7.18,10.86-11a2.78,2.78,0,0,0-1-1.76c-4.44-3.68-8.89-7.36-13.45-10.89a2.7,2.7,0,0,0-2.57.28c-1.63,3.07-3.56,6.15-4.33,9.47C532,600,537.57,607,544.06,606.91Z" transform="translate(-89.01 -120.65)"/><path class="cls-8" d="M531,654.86c-5.77-.92-12.06-2-18.37-2.92-4.47-.65-9.09-.67-13.42-1.82a37.33,37.33,0,0,1-10.14-4.88c-2.15-1.36-2.54-3.89-1.53-6.39s2.95-4.35,5.68-3.86a100.9,100.9,0,0,1,13.35,3.42c8.49,2.81,16.89,5.9,25.31,8.92a18.9,18.9,0,0,1,4.43,2.08c.79.56,1.71,2,1.49,2.67a4.63,4.63,0,0,1-2.58,2.2C534.14,654.73,532.82,654.65,531,654.86Z" transform="translate(-89.01 -120.65)"/><path class="cls-8" d="M515.45,539.17c.56.51,2.33,1.39,2.61,2.6a4.81,4.81,0,0,1-1.57,4.09c-1.88,1.33-4.34,1.82-6.45,2.87-4.51,2.24-8.92,4.69-13.46,6.87a3.77,3.77,0,0,1-3-.23c-.39-.22-.32-1.89,0-2.67C495.63,548.31,509.74,539.24,515.45,539.17Z" transform="translate(-89.01 -120.65)"/><path class="cls-8" d="M588.59,639.4a7.18,7.18,0,0,1,7.61-7.49,7.71,7.71,0,0,1,7.58,7.75,8,8,0,0,1-7.63,7.45A7.68,7.68,0,0,1,588.59,639.4Z" transform="translate(-89.01 -120.65)"/><path class="cls-8" d="M574.88,581a5.57,5.57,0,0,1-5.37-5.26,5.9,5.9,0,0,1,5.5-5.62,5.53,5.53,0,0,1,5.39,5.61C580.4,579,578.22,581.07,574.88,581Z" transform="translate(-89.01 -120.65)"/><path class="cls-8" d="M498.8,582.17c1.45-4.66,2.72-9.39,4.47-13.94A4.67,4.67,0,0,1,507,566a20.67,20.67,0,0,1,7.43,1.64c5,2.18,9.82,4.7,14.64,7.23.84.44,1.91,1.72,1.81,2.45-1,6.51-1.74,13.1-7.06,18-4.08,3.73-8.52,6.59-14.17,4.55-5.92-2.14-9.11-6.81-9.87-13.06-.17-1.43-.14-2.88-.21-4.31Z" transform="translate(-89.01 -120.65)"/><path class="cls-8" d="M544.06,606.91C537.57,607,532,600,533.56,593c.77-3.32,2.7-6.4,4.33-9.47a2.7,2.7,0,0,1,2.57-.28c4.56,3.53,9,7.21,13.45,10.89a2.78,2.78,0,0,1,1,1.76C555.05,599.73,547.94,606.85,544.06,606.91Z" transform="translate(-89.01 -120.65)"/></svg>