<svg width="327" height="414" viewBox="0 0 327 414" fill="none" xmlns="http://www.w3.org/2000/svg">
<path
		fill-rule="evenodd"
		clip-rule="evenodd"
		d="M98.816 71.8179L99.8135 71.9459C117.543 74.2196 146.823 78.6856 175.485 84.4401C203.886 90.1425 232.541 97.2699 248.456 105.059L249.104 105.376L249.665 105.827C250.42 106.434 251.285 107.374 251.829 108.727C252.395 110.134 252.443 111.564 252.173 112.815C251.702 114.998 250.339 116.38 249.739 116.941C248.37 118.222 246.49 119.257 244.792 120.085C241.134 121.868 235.547 123.979 228.336 126.35C213.804 131.127 191.707 137.268 162.863 144.223L161.533 144.544L160.186 144.299C137.308 140.139 98.6282 132.814 66.5577 126.117C50.5425 122.773 36.0768 119.564 26.0361 116.974C21.0755 115.694 16.9427 114.501 14.2131 113.463C13.0793 113.031 11.3243 112.322 10.0026 111.236C9.99767 111.232 9.99233 111.228 9.9866 111.223C9.57954 110.89 7.17672 108.922 7.35391 105.465C7.55253 101.59 10.6073 99.9687 11.4309 99.5864L11.4815 99.5626L11.7055 99.4575C11.9009 99.366 12.1874 99.2323 12.5566 99.0609C13.2951 98.7181 14.3654 98.2242 15.7025 97.6156C18.3756 96.3988 22.1216 94.7201 26.4197 92.8697C34.9591 89.1934 45.8897 84.7468 54.9356 81.9367C63.286 79.3427 74.0599 76.8548 82.6151 75.0348C86.9201 74.1189 90.7149 73.3613 93.4347 72.8325C94.7952 72.5679 95.8883 72.3603 96.6435 72.2184C97.0211 72.1475 97.3144 72.0929 97.5145 72.0559L97.8245 71.9988C97.8245 71.9988 97.8267 71.9984 98.9895 78.3507L97.8267 71.9984L98.816 71.8179ZM99.1709 84.8852C99.1272 84.8934 99.0822 84.9019 99.0359 84.9106C98.3049 85.0479 97.2388 85.2504 95.9077 85.5092C93.2443 86.0271 89.5259 86.7694 85.3112 87.6661C76.8267 89.4711 66.5345 91.8592 58.779 94.2685C50.4129 96.8674 39.9965 101.089 31.542 104.729C31.3862 104.796 31.2312 104.863 31.0769 104.93C40.7218 107.361 54.1855 110.339 69.2062 113.476C100.509 120.013 138.196 127.162 161.157 131.347C189.18 124.566 210.446 118.634 224.29 114.083C226.746 113.275 228.94 112.52 230.877 111.821C215.866 106.566 194.849 101.502 172.934 97.1016C145.151 91.5234 116.737 87.1644 99.1709 84.8852Z"
		fill="black"
	/>
<path
		fill-rule="evenodd"
		clip-rule="evenodd"
		d="M77.5802 115.603C112.25 123.373 150.25 131.23 162.909 132.268C162.909 132.268 162.939 132.27 163.004 132.27C163.071 132.271 163.167 132.27 163.295 132.263C163.555 132.251 163.912 132.22 164.383 132.159C165.333 132.035 166.614 131.805 168.309 131.427C171.704 130.669 176.453 129.386 183.006 127.41C196.035 123.483 215.781 116.945 245.354 106.735C245.9 106.494 246.537 106.299 247.265 106.213C249.087 105.999 250.649 106.561 251.747 107.294C253.48 108.453 254.172 110.091 254.339 110.488L254.347 110.506C254.834 111.657 255.069 112.955 255.209 113.845C255.53 115.886 255.769 118.794 255.959 122.264C256.345 129.298 256.572 139.518 256.673 151.809C256.876 176.428 256.576 209.718 255.978 243.275C255.379 276.837 254.482 310.72 253.486 336.535C252.989 349.434 252.465 360.364 251.94 368.247C251.678 372.175 251.41 375.425 251.136 377.81C251.001 378.988 250.852 380.068 250.679 380.958C250.595 381.395 250.481 381.908 250.325 382.419L250.317 382.442C250.223 382.752 249.869 383.91 248.991 384.997C243.631 391.635 218.621 412.284 162.573 413.953C139.813 414.632 101.237 407.797 69.2992 400.39C53.2149 396.66 38.5297 392.717 28.0117 389.372C22.7936 387.712 18.4043 386.138 15.3453 384.752C13.8942 384.095 12.3285 383.299 11.1009 382.356C10.5494 381.932 9.48676 381.051 8.73459 379.663C8.23582 378.743 7.85258 377.505 7.87423 376.15C-6.30561 291.532 1.83107 163.139 7.80341 107.74C7.74991 107.379 7.72463 106.993 7.737 106.583C7.85278 102.753 10.8728 101.174 11.5935 100.853C12.5217 100.44 13.3299 100.346 13.5751 100.318C13.9324 100.278 14.2332 100.272 14.4196 100.272H21.6368L21.4166 102.274C24.2281 103.025 28.0819 104.003 32.7544 105.15C44.2166 107.965 60.3818 111.749 77.5802 115.603ZM20.0251 115.265C14.2042 173.002 7.31982 293.04 20.4435 372.878C20.5226 372.915 20.6046 372.952 20.6897 372.991C23.0438 374.057 26.8543 375.449 31.9386 377.066C42.0253 380.275 56.3556 384.129 72.2262 387.81C104.198 395.225 141.29 401.667 162.187 401.044C211.512 399.575 233.243 382.681 238.097 377.79C238.154 377.41 238.216 376.93 238.284 376.339C238.523 374.261 238.774 371.252 239.032 367.389C239.546 359.686 240.064 348.897 240.56 336.038C241.551 310.336 242.447 276.546 243.044 243.045C243.641 209.538 243.939 176.374 243.737 151.915C243.636 139.667 243.411 129.692 243.043 122.97C243.009 122.356 242.974 121.775 242.939 121.229C216.968 130.156 199.018 136.074 186.746 139.774C180.075 141.785 174.978 143.172 171.132 144.031C167.492 144.843 164.323 145.342 161.851 145.139C148.069 144.009 108.994 135.879 74.7469 128.204C57.4868 124.336 41.2329 120.533 29.6642 117.691C25.9456 116.778 22.6877 115.959 20.0251 115.265Z"
		fill="black"
	/>
<path
		fill-rule="evenodd"
		clip-rule="evenodd"
		d="M158.763 406.177L155.826 138L165.527 137.894L168.465 406.071L158.763 406.177Z"
		fill="black"
	/>
<path
		fill-rule="evenodd"
		clip-rule="evenodd"
		d="M249.313 110.423C250.624 111.75 251.056 113.71 250.424 115.464L224.861 186.41C224.168 188.332 222.342 189.614 220.296 189.614H203.625C200.946 189.614 198.774 187.445 198.774 184.771V180.212L160.164 141.243C158.928 139.995 158.465 138.177 158.954 136.49C159.442 134.804 160.807 133.514 162.519 133.118L200.062 124.444L244.28 109.245C246.045 108.638 248.002 109.096 249.313 110.423ZM196.819 135.135L173.173 140.599L198.21 165.869L196.819 135.135ZM206.412 132.505L208.471 178.003C208.474 178.076 208.476 178.149 208.476 178.222V179.928H216.886L237.869 121.693L206.412 132.505Z"
		fill="black"
	/>
<path
		fill-rule="evenodd"
		clip-rule="evenodd"
		d="M214.737 133.31C216.516 133.155 218.084 134.47 218.239 136.246C218.731 141.9 219.719 155.839 219.719 166.324C219.719 168.107 218.272 169.552 216.485 169.552C214.699 169.552 213.251 168.107 213.251 166.324C213.251 156.119 212.282 142.397 211.795 136.806C211.64 135.029 212.957 133.464 214.737 133.31Z"
		fill="black"
	/>
<path
		fill-rule="evenodd"
		clip-rule="evenodd"
		d="M201.027 131.147L51.2218 94.2553L52.7708 87.9858L202.576 124.878L201.027 131.147Z"
		fill="black"
	/>
<path
		d="M219.438 27.6834L199.266 110.109C190.016 116.54 181.699 111.863 178.697 108.72C184.942 84.8876 198.232 33.3076 201.432 17.6481C204.631 1.98866 222.361 2.15654 230.826 4.19791C230.826 4.19791 321.202 40.3948 323.369 44.7229C325.536 49.0509 318.319 59.7149 313.994 59.9742L225.739 20.9427C225.485 24.4534 221.433 26.8993 219.438 27.6834Z"
		fill="black"
	/>
<path
		fill-rule="evenodd"
		clip-rule="evenodd"
		d="M213.275 1.17793C219.855 -0.67672 226.995 -0.0474565 231.585 1.05943C231.736 1.09597 231.885 1.14338 232.03 1.20131L230.826 4.19791C232.03 1.20131 232.03 1.20131 232.03 1.20131L233.049 1.6102C233.712 1.87684 234.685 2.26829 235.924 2.76793C238.403 3.76721 241.944 5.19933 246.201 6.93132C254.714 10.3949 266.09 15.0595 277.537 19.8606C288.978 24.6591 300.515 29.6048 309.338 33.628C313.744 35.6366 317.516 37.4346 320.274 38.8802C321.646 39.5993 322.826 40.2616 323.726 40.8411C324.172 41.1287 324.609 41.4333 324.985 41.7468C325.271 41.985 325.876 42.5088 326.262 43.2791C327.333 45.4185 327.064 47.8484 326.547 49.743C326.001 51.7477 325.006 53.7945 323.841 55.6133C322.674 57.4365 321.246 59.172 319.73 60.5097C318.329 61.7456 316.379 63.0657 314.188 63.1971C313.672 63.228 313.156 63.1351 312.684 62.9262L227.547 25.2737C226.905 26.2675 226.127 27.0943 225.39 27.7489C224.356 28.6659 223.229 29.401 222.214 29.9449L202.408 110.875C202.221 111.639 201.761 112.309 201.114 112.758C195.732 116.501 190.425 117.099 185.973 116.164C181.647 115.256 178.252 112.933 176.356 110.949C175.582 110.139 175.284 108.986 175.568 107.903C181.825 84.0247 195.086 32.5531 198.263 17.0028C200.159 7.72294 206.508 3.08543 213.275 1.17793ZM229.845 7.28397C225.967 6.38465 220.136 5.95421 215.033 7.39248C210.019 8.80557 205.904 11.9138 204.6 18.2935C201.463 33.6488 188.75 83.0658 182.33 107.611C183.558 108.513 185.276 109.419 187.304 109.845C189.835 110.377 192.957 110.19 196.428 108.101L216.296 26.917C216.546 25.898 217.276 25.0635 218.253 24.6791C218.958 24.4021 220.128 23.7785 221.093 22.9222C222.092 22.0353 222.473 21.266 222.513 20.7102C222.589 19.6618 223.171 18.716 224.074 18.1748C224.976 17.6336 226.086 17.5649 227.049 17.9906L314.243 56.5528C314.52 56.3996 314.924 56.1325 315.447 55.6711C316.432 54.8012 317.485 53.5515 318.391 52.1353C319.301 50.7148 319.974 49.2679 320.306 48.0476C320.471 47.4422 320.533 46.9641 320.532 46.6175C320.532 46.5639 320.53 46.5157 320.528 46.4726C320.442 46.4134 320.34 46.3452 320.22 46.2679C319.558 45.8416 318.574 45.2825 317.267 44.5976C314.668 43.2353 311.024 41.4954 306.652 39.5019C297.92 35.5208 286.457 30.6058 275.032 25.8141C263.614 21.025 252.261 16.3698 243.76 12.9113C239.511 11.1822 235.975 9.7526 233.502 8.75545C232.266 8.25688 231.295 7.86644 230.634 7.60074L229.845 7.28397ZM320.898 46.756C320.898 46.756 320.882 46.7433 320.857 46.7184C320.887 46.7437 320.898 46.756 320.898 46.756Z"
		fill="black"
	/>
<path
		d="M24.1418 233.038L102.317 146.354L76.2589 205.176H145.748L50.2004 359.968L90.7359 239.23L24.1418 233.038Z"
		fill="black"
	/>
<path
		fill-rule="evenodd"
		clip-rule="evenodd"
		d="M103.574 144.417C104.528 145.034 104.892 146.251 104.432 147.288L79.8099 202.867H145.748C146.586 202.867 147.359 203.32 147.767 204.05C148.176 204.781 148.157 205.675 147.717 206.387L52.1688 361.179C51.5524 362.178 50.284 362.556 49.22 362.059C48.1559 361.561 47.6346 360.346 48.008 359.234L87.6162 241.258L23.9274 235.337C23.0567 235.256 22.3063 234.691 21.9881 233.878C21.6699 233.065 21.8383 232.142 22.4234 231.494L100.599 144.81C101.359 143.967 102.621 143.8 103.574 144.417ZM28.9416 231.166L90.9503 236.931C91.6534 236.997 92.2881 237.379 92.6735 237.97C93.0589 238.561 93.1527 239.295 92.9283 239.964L58.786 341.659L141.607 207.484H76.2589C75.477 207.484 74.748 207.089 74.3213 206.435C73.8946 205.781 73.828 204.956 74.1443 204.242L94.344 158.646L28.9416 231.166Z"
		fill="black"
	/>
<path
		d="M161.115 402.943C161.115 402.943 166.928 91.8389 161.115 172.883C155.303 253.927 166.928 387.257 105.899 395.1C129.148 402.943 147.554 403.815 161.115 402.943Z"
		fill="black"
	/>
<path
		d="M324.169 54.4963C321.417 60.145 316.403 63.3727 312.969 61.7056C309.535 60.0384 308.982 54.1077 311.734 48.459C314.485 42.8103 319.499 39.5826 322.933 41.2497C326.367 42.9169 326.92 48.8476 324.169 54.4963Z"
		fill="black"
	/>
</svg>
