<svg id="Layer_2" data-name="Layer 2" xmlns="http://www.w3.org/2000/svg" viewBox="0 0 605.71 923.54"><defs><style>.cls-1{fill:#17110d;}.cls-2{fill:#5d883e;}.cls-3{fill:#f59434;}.cls-4{fill:#f49434;}.cls-5{fill:#aa6534;}.cls-6{fill:#fbb12f;}.cls-7{fill:#6c4758;}.cls-8{fill:#f9b02f;}.cls-9{fill:#f79533;}.cls-10{fill:#f6af2f;}.cls-11{fill:#f49433;}.cls-12{fill:#fbb02f;}.cls-13{fill:#e2679e;}.cls-14{fill:#734524;}.cls-15{fill:#eb8f33;}.cls-16{fill:#f0ab30;}.cls-17{fill:#d86297;}.cls-18{fill:#e9d4ad;}.cls-19{fill:#492534;}.cls-20{fill:#9dc953;}.cls-21{fill:#1e1210;}.cls-22{fill:#fde1b3;}.cls-23{fill:#2f1d0d;}.cls-24{fill:#241a11;}.cls-25{fill:#fde3b6;}.cls-26{fill:#fbb131;}.cls-27{fill:#e66aa0;}.cls-28{fill:#f6dfb6;}.cls-29{fill:#fce0ba;}</style></defs><path class="cls-1" d="M246.46,591.15c-.05-25.61,3.95-49.14,10.74-72.28,3-10.35,5.54-20.87,8.25-31.32,2.39-9.2,4.64-18.43,7.09-27.61,1.28-4.75,2.64-9.51,4.36-14.11a26.39,26.39,0,0,1,16.58-16.21,94.15,94.15,0,0,1,24.36-5.28c6-.46,11.91-1.42,17.91-.64,4.32.56,8.62,1.17,12.93,1.71a51.78,51.78,0,0,0,5.27.45c3.53.09,3.79-.13,5.12-3.53q6.58-16.84,13.19-33.69a211.22,211.22,0,0,1,24.64-45.41c2.72-3.83,2.73-2.49,0-6.91a23.35,23.35,0,0,0-14.75-10.65c-6.48-1.63-13-3.08-19.46-4.88-6.09-1.7-12.19-3.47-18.1-5.71a43.25,43.25,0,0,1-19.25-14.89c-4.52-6-5.25-12.72-3.86-19.79a33.48,33.48,0,0,1,7.12-15.54c7.47-8.8,15.79-16.48,27.48-19.3,6.38-1.54,12.77-3,19.16-4.53l.35,0c9.57-1.9,11-3.16,9.59-13.68-1-7.65-4.48-14.56-7.9-21.39-3.16-6.3-6.67-12.42-9.77-18.74-7.06-14.44-6-31.05,5.83-43.89,4.4-4.76,10.25-7,16.26-8.7,10.32-2.9,20.88-3.14,31.46-1.87a87,87,0,0,1,27.25,8c.32.15.66.26,1,.4,6.41,2.86,11.71-.18,12.43-7.25A28.31,28.31,0,0,0,459.86,120c-2.76-6.59-5.75-13.11-9-19.45-3.66-7.08-6.38-14.35-7.06-22.34-1.45-16.82,6.8-28.3,20.54-36.4,5.78-3.41,12.54-3.67,19.18-3.5,21.84.58,40.7,9.43,58.46,21.19a90.66,90.66,0,0,1,34.89,43.18c1.1,2.77,1.18,2.86,3.84,1.66,5.24-2.35,10.19-1.86,15.19.83,8.42,4.55,15.3,10.6,19,19.56a155.54,155.54,0,0,1,6.79,18.83c2.14,7.88,6.5,13.4,14,16.45,6.74,2.72,13.46,5.49,20.21,8.2,14.47,5.79,22.2,17.24,25.91,31.68,1.77,6.87,0,13.77-1.87,20.49-.82,2.94-1.8,5.83-2.64,8.77-1.52,5.39,0,10,4,13.78a50.39,50.39,0,0,0,18,11.52c17.45,6.11,25.91,19.67,30,36.33,3.64,14.64.21,28.14-10.62,39-10.12,10.13-22.58,13.91-36.81,11.8a127.59,127.59,0,0,1-26.1-7.16c-5.39-2-10.85-3.84-16.72-3.89-4.56,0-6.33,1.87-5.41,6.28a11.77,11.77,0,0,0,1.92,4.46c3.15,4.24,6.53,8.3,9.76,12.49,3.51,4.55,7.13,9,10.35,13.78,3.43,5.05,6.51,10.34,9.64,15.59a90.15,90.15,0,0,1,8.78,20.32,28.45,28.45,0,0,1,1.21,7.6c.1,5.55-4.28,9.27-9.62,6.94a10,10,0,0,0-1.63-.4,7.8,7.8,0,0,0,.35,1.83c2.57,5.53,5.16,11.05,7.84,16.53a3.36,3.36,0,0,0,1.82,1.36,42.24,42.24,0,0,0,5.72,1.71c4.26.89,6.65,3.65,8.11,7.52a166.35,166.35,0,0,1,7.21,24.28c3,13.84,2.45,27.79,1.87,41.77a220.71,220.71,0,0,1-4.46,34.55,12.73,12.73,0,0,0-.06,3.85,128.46,128.46,0,0,1-.12,30.61c-.4,3.18.46,4.86,3.4,6.21,8.52,3.92,16.85,8.26,25.37,12.19,9.93,4.59,19.93,4.93,29.78-.4,6.6-3.57,13.19-7.17,19.8-10.72,7-3.75,10.38-10,11.94-17.4,1.67-8,3.11-16.13,4.93-24.13,2.31-10.1,8.12-18.11,15.76-24.89,2-1.78,3.35-7,2.33-9.49-1.93-4.81-1.34-9.27,2.1-13.13a3.88,3.88,0,0,0,.88-4.06,27,27,0,0,1,1.75-18.88,15.68,15.68,0,0,1,8.24-7.83,18,18,0,0,1,2.3-.9c9.94-2.58,15.13-9.68,18.09-18.92.53-1.67.83-3.43,1.47-5.07.42-1.1,1.06-2.64,2-2.92,1.57-.52,1.94,1.25,2.49,2.38a72.9,72.9,0,0,1,6.72,24c.79,7.42.34,14.82-2.74,21.81-2.53,5.72-6.24,10.55-11.72,13.69-2.08,1.2-5.36,1-6.67,2.62-1.11,1.36.08,4.42-.2,6.67a10.64,10.64,0,0,1-4.1,6.78c-2.4,2-2.06,6.41.52,8.22,7.26,5.09,8.67,13.66,3.37,21a2.14,2.14,0,0,0-.26,2.74,18.11,18.11,0,0,1,1.9,5.27c1,5.65-.38,10.56-5.45,13.84-1.44.94-1.34,1.29-.34,2.73a15.81,15.81,0,0,1,2.12,14.43,8.21,8.21,0,0,1-4.72,5c-1,.48-1.24,1-.94,2.15,1.31,5.17-.94,9.08-6.15,10.3a3.22,3.22,0,0,0-2.7,2.64c-3.08,9.63-6.57,19.09-11.66,27.88a16.36,16.36,0,0,1-2.43,3.43c-1.55,1.56-3,1.23-3.69-.9a12.08,12.08,0,0,1-.7-4.48c.28-5.39.72-10.78,1.19-16.16.22-2.57.65-5.12,1-7.69a9.33,9.33,0,0,0,0-1.39,5.74,5.74,0,0,0-1.53.41c-9.53,5.79-19,11.71-28.59,17.4-6.16,3.64-12.42,7.12-18.8,10.35-6.13,3.09-12.77,3.54-19.58,3-12.5-.91-24.5-4.22-36.59-7.13-2.16-.52-4.32-1.13-6.42-1.85-1.16-.39-1.65-.21-2,1-.87,3.05-1.83,6.07-2.85,9.07C676,654.75,668,667.51,659.65,680c-12.63,19-27.5,36.06-45.35,50.39-3.39,2.72-6.89,5.31-10.43,7.84a2.63,2.63,0,0,0-1.13,3.25c6.9,27.91,10.62,56.33,13.09,84.9a345.36,345.36,0,0,1-.45,63.74c-.36,3.62-.91,7.23-1.53,10.81-.27,1.54-.05,2.23,1.58,2.8,9.18,3.23,18.3,6.62,27.44,10,9.47,3.46,18,8.74,25.91,14.79a26.34,26.34,0,0,1,6.55,7.68c2.73,4.7,1.33,8.86-3.68,11a49.3,49.3,0,0,1-11.77,3.35c-12,1.74-24.17,1.57-36.25.6-10.65-.86-21.31-1.86-31.89-3.32A180.17,180.17,0,0,1,561.9,941a17.49,17.49,0,0,1-12.18-12.06c-2.78-8.56-2.6-17.13-.88-25.75.39-2,0-3.09-1.66-4a36.71,36.71,0,0,1-5.72-3.46c-2.81-2.27-5.78-4.51-8-7.32-4.09-5.27-4.09-11.41-2-17.46a6.06,6.06,0,0,0-1.32-6.65,18.74,18.74,0,0,1-4.2-11.76,97.92,97.92,0,0,1,.71-15.79c.68-5,4.6-7.72,9-9.54,2.69-1.11,2.82-1,2.34-3.82-1.88-10.87-3.66-21.76-5.77-32.59-2-10.34-6.62-19.78-11-29.29a3.56,3.56,0,0,0-3.78-2.43,130.71,130.71,0,0,1-28-2.45c-2.46-.46-2.52-.4-2.5,2,.13,20.84-2.06,41.51-4.4,62.17-1.44,12.7-2.71,25.41-3.93,38.13a209.07,209.07,0,0,1-10.49,47.35c-1,2.88-.93,2.77,1.76,4,8.46,3.78,17.07,7.28,25.23,11.63a98.79,98.79,0,0,1,15.52,10.9,34.89,34.89,0,0,1,7.28,8.53c5.46,8.72.95,18.11-9.19,19.87-6.95,1.22-13.83.21-20.72-.39-13-1.12-25.11-5.76-37.39-9.71a296.47,296.47,0,0,1-34.92-14.07c-4.65-2.18-8.95-5.14-13.3-7.9a10.13,10.13,0,0,1-5.1-9.14,107.46,107.46,0,0,1,1.26-12.91c.93-5.79,2.15-11.54,3.39-17.28.5-2.27,0-3.58-2.15-4.76a26.93,26.93,0,0,1-6.36-4.93c-3.73-3.88-5.31-8.65-4-14a34.64,34.64,0,0,1,3.56-9.47,10,10,0,0,0,1.3-8,32.59,32.59,0,0,1-.59-12.94c.37-2.16.5-4.38.68-6.57a7.54,7.54,0,0,1,3-5.38c3.15-2.56,6.91-3.38,10.82-3.7,3.27-.27,3.27-.26,3.32-3.44.2-13.52.11-27-1.44-40.49-2.53-22-6.56-43.67-13.44-64.75-4.05-12.41-9.41-24.29-15-36.08-.83-1.75-1.71-2.29-3.8-1.74a54.2,54.2,0,0,0-15.1,6.58c-3.89,2.42-7.88,4.68-11.83,7-7.85,4.6-13.6,11.49-19.6,18.1a7.66,7.66,0,0,0-1.26,3.22c-1.68,6.75-3.84,13.34-7.47,19.31a38,38,0,0,1-5.78,7.49c-4.06,3.94-9.16,4-13.79.77a31.82,31.82,0,0,1-11-13.43c-3.33-7.41-6.61-14.77-7.85-22.9-.26-1.72-1.57-3.41-2.76-4.82-4.17-4.92-8.57-9.66-12.77-14.57-11.11-13-17.05-28.29-19.4-45C247.22,620.25,245.78,605,246.46,591.15Zm242.7-177.42h5.62l1.38,0c3,0,6.1,0,9.15.09,4.35.07,8.71,0,13,.31,12.52,1,25,2.25,37.55,3.19a491.41,491.41,0,0,1,53.36,7.12c17.32,3.23,34.57,6.64,51.35,12.08,1.23.4,2.46.8,3.71,1.11,1.83.47,2,.29,1.46-1.65a91.29,91.29,0,0,0-10.62-23.7c-1.26-2-2.43-4.16-4.15-5.64-9.8-8.41-19.54-16.86-30.74-23.51-19.87-11.8-40.82-20.65-63.67-24.63a121,121,0,0,0-13.28-1.53c-3.25-.19-3.51.36-2.53,3.41,1.15,3.57,2.61,7.06,3.53,10.69,1.68,6.66,2.42,13.39-.19,20l-1.49,2c-4.11,1.61-6.15,1.14-8.83-2.39-1.42-1.86-2.53-3.94-3.78-5.93q-2.41-3.86-4.81-7.72l-3.62-4.83c-9.36-13-21.51-22.75-35.58-30.16-6.19-3.25-8.29-2.43-12,3.72a68.55,68.55,0,0,1-22.78,23.49c-1.78,1.11-3.45,2.38-5.17,3.58l-1.07.71-.21,0-.12.17-.87.58-1.29.65-1.32.76-18.38,8.59c-5.21.67-10.41,1.54-15.65,1.93-3.64.26-6.29-1.83-4.54-6.64a107.39,107.39,0,0,0,4.31-16.65A25.91,25.91,0,0,0,405.36,347c-.82-1.81-1.19-1.92-2.23-.27-4,6.34-8.1,12.64-11.8,19.16-3.35,5.92-6.39,12-9.26,18.2-3.27,7-6.2,14.16-9.28,21.25l-1.5,3.5q-4.07,9.72-8.14,19.44c-.55,1.3,0,1.39,1.1,1.12,6.61-1.61,13.26-3.09,19.85-4.78a272,272,0,0,1,44.71-7.87c11.13-.95,22.25-1.68,33.43-1.69a40.59,40.59,0,0,0,4.51-.48l1.92-.11,3.52-.15,9.94-.59Zm20,131.66-.71,1.09a.47.47,0,0,0-.27.52c-.2.52-.41,1-.62,1.56l-.77,1.4c-.9.25-1.78.57-2.69.75a178.22,178.22,0,0,1-43.74,2.69c-11-.58-22-1.47-33-2.21-2.45-.16-4.9-.26-7.35-.39l-8.48-.73c-6-.51-11.92-1-17.86-1.57-2.08-.21-2.51.69-2.7,2.53-.43,4.2-.91,8.41-1.74,12.54-3.55,17.58-7.68,35-13.58,52-1.06,4.4.31,8.54,1.33,12.71,1.23,5.12,1.89,10.47,3.82,15.31,3.51,8.81,7.66,17.38,11.8,25.92a45.59,45.59,0,0,0,5.57,8.5c6.24,7.79,12.66,15.44,19,23.15,15.63,19,34.4,33.94,57.45,43,8.85,3.49,18,6.4,27.55,6.93a186.21,186.21,0,0,0,25.66-.18c13.51-1.11,26.37-5.37,39.15-9.71l3.27-.89c6.38-2,12.8-3.82,19.13-6a31.1,31.1,0,0,0,6.91-3.42c11.58-7.52,21.71-16.82,31.92-26a129.39,129.39,0,0,0,20-22.25c1.93-2.8,4-5.52,6.07-8.22a139.27,139.27,0,0,0,22.47-43.63,258.55,258.55,0,0,0,11.2-57.63c.46-5.85.59-11.73.82-17.6a4.38,4.38,0,0,0-.51-1.47,7.27,7.27,0,0,0-1,.95A22,22,0,0,1,673.71,564a95.82,95.82,0,0,1-31.17,1.81c-8.65-.88-17.26-2.08-25.88-3.14a113,113,0,0,1-34.43-9.75c-6-2.79-9.81-7.19-11.33-13.54a109.33,109.33,0,0,1-2.65-13.1c-1.3-11.32-2.29-22.66-3.37-34-.7-7.39-.68-7.57-8-7.73-9-.19-18.09-.12-27.14,0-4.26,0-4.26.17-4.84,4.5-.11.82-.24,1.63-.35,2.45-2.58,18.7-7,36.89-15.38,53.92Zm333.36-70.45.6-1.89.24-.71c2.13-8.53,1.27-16.95-1.22-25.36a29.86,29.86,0,0,0-1.79,7.74c-.16,5.75-1.08,11.29-3.95,16.27-3.16,5.48-6.63,10.78-10.08,16.09-.5.77-1.64,1.13-2.48,1.69a20,20,0,0,1,1-2.68c3.27-6,6.67-11.85,9.84-17.86a33.5,33.5,0,0,0,1.81-5.59c-1.75,1.28-3,2.89-4.47,4.12s-3.6,2.22-5.28,3.49a8,8,0,0,0-1.74,2.44c-1.28,2.23-2.46,4.52-3.81,6.71-.29.46-1.15.58-1.74.85a5.29,5.29,0,0,1,0-1.9c.58-1.54,1.35-3,2-4.51a2.73,2.73,0,0,0,0-1,4.07,4.07,0,0,0-1.22.08,7.26,7.26,0,0,0-1.51.9c-5.56,3.82-9.06,15.07-6.56,21.33a2.15,2.15,0,0,0,1.78.9c5.22-.38,9.84,1,13.22,5.05,1.6,1.9,2.94,1.91,4.81.9a32.07,32.07,0,0,0,11.81-10.88c4.91-7.58,5.86-16,4.62-24.72-.11-.77-.34-1.53-.51-2.29-.29.71-.63,1.41-.86,2.14-1.11,3.57-2.19,7.15-3.29,10.72Zm-485.54,7.91c-.83-3.18-1.69-6.35-2.46-9.54a7.49,7.49,0,0,1,0-2c.46.47,1.1.86,1.36,1.42a47.62,47.62,0,0,1,4.76,22.88,87.91,87.91,0,0,1-6.73,29c-2.79,6.72-6,13.33-8,20.27a227.85,227.85,0,0,0-5.3,24c-1.83,10.05-3.46,20.16-2.92,30.44.36,6.68.91,13.35,1.55,20,.44,4.55,1.08,9.09,1.85,13.59.83,4.85,3.82,7.88,8.5,9.38,3.47,1.12,5.28.95,7.45-1.94a61.24,61.24,0,0,0,5.76-9.24,215.38,215.38,0,0,0,14.92-38.73c4.33-15.49,8.1-31.08,8.9-47.25.38-7.72,1.6-15.42,1.62-23.14,0-10.2-.33-20.44-1.29-30.6-1.39-14.5-8.1-26.8-17.37-37.8a3.22,3.22,0,0,0-1.74-1c-5.54-1.09-11.11-2.19-16.74-.77a5.13,5.13,0,0,0-2.77,1.79c-1.88,2.69-3.45,5.6-5.28,8.32-1.29,1.92-1,3.42.57,5,5,4.94,8.48,10.93,12.14,16.81l2.31,5.58.65-.23C358.11,487,357.53,484.94,356.94,482.85Zm48.29,354.87c-.11-.09-.23-.17-.35-.25l.25.35c1.22,2.75,2.08,5.74,3.73,8.2,4.05,6,9.7,10.46,15.82,14.28,2.09,1.31,4.28,2.47,6.3,3.87.64.45.87,1.48,1.29,2.24-.69.35-1.38,1-2.08,1a16.39,16.39,0,0,1-4.19-.36c-3-.65-5.88-1.71-8.88-2.14a79.63,79.63,0,0,0-12.22-1c-4.25.05-6.21,3.52-4.45,7.36a8.86,8.86,0,0,0,2.47,3.36,84.85,84.85,0,0,0,10.94,7.6c4.33,2.3,9.07,3.83,13.64,5.66,1.1.45,2.33.74,2.29,2.26s-1.35,2.07-2.6,2.43a9.17,9.17,0,0,1-2.1.17c-1.29,0-2.6-.06-3.87.09-5.12.58-9.87,2.42-12.39,7a51.13,51.13,0,0,0-5.8,21.93,4.39,4.39,0,0,0,2,4.18,62.37,62.37,0,0,0,14.61,8.38c4.5,1.71,8.83,3.86,13.35,5.5,11.68,4.24,23.38,8.43,35.16,12.39,8.49,2.86,17.37,4,26.25,4.65a55.14,55.14,0,0,0,14-.45c6.41-1.19,8.38-6.87,5-12.38-2.79-4.46-6.66-7.82-10.71-11-9.21-7.34-20.05-11.69-30.47-16.82a45.23,45.23,0,0,0-5.93-2.19c-7-2.29-13.9-1.25-20.82.27a34,34,0,0,1-4.81,1c-1.24.1-3.1,1-3.53-1.1-.35-1.68,1.33-2.09,2.48-2.48a70.43,70.43,0,0,1,10.08-3.08,51.62,51.62,0,0,1,10.83-.65c3.24.12,3.34.44,4.16-2.63,1.7-6.46,3.19-13,5-19.41.54-2-.24-2.58-1.79-3-2.84-.74-5.66-1.54-8.53-2.13-3.9-.81-7.84-1.39-11.74-2.19-.68-.14-1.24-.84-1.85-1.28.52-.56,1-1.45,1.57-1.6a12.78,12.78,0,0,1,4.5-.44q8.36,1.1,16.65,2.53c3,.52,3,.68,3.63-2.3.1-.46.16-.92.23-1.39,1.14-7.64,2.34-15.27,3.42-22.92.79-5.56,1.44-11.14,2.11-16.72.23-1.9-.07-2.13-1.8-1.5-2.2.8-4.34,1.83-6.59,2.45a117.06,117.06,0,0,1-32.65,4.49q-9.66-.13-19.32-.78C413.35,838.9,409.3,838.21,405.23,837.72ZM570.92,426.55l-.09,2.72c-.16,1.15-.41,2.29-.48,3.45q-1.08,16.33-2.09,32.69a127.2,127.2,0,0,0-.55,14.06c.69,13.95,1.6,27.89,2.62,41.81a64.74,64.74,0,0,0,4,18.17c1.75,4.67,4.71,8.17,9.39,9.89,6.7,2.48,13.35,5.4,20.29,6.88,10.43,2.22,21.06,3.52,31.65,4.92a113.57,113.57,0,0,0,35.44-.45c9.34-1.71,14.88-6.85,16.67-16.23,1.55-8.06,3-16.16,4.07-24.29a142.1,142.1,0,0,0-8.33-71c-.81-2.12-1.87-3.61-4.18-4.25-8.47-2.37-16.83-5.18-25.38-7.2-12.56-3-25.19-5.71-37.89-8-14.2-2.54-28.51-4.47-42.79-6.63-2.75-.42-2.79-.31-2.57,2.37A6.07,6.07,0,0,0,570.92,426.55ZM392.51,535.16c-.2,1.28-.48,2.54-.6,3.82-.42,4.81-.41,4.88,4.31,5.25,9.95.8,19.9,1.59,29.86,2.24,9.49.63,19,.71,28.49,1.72a199,199,0,0,0,36.93.14c3.39-.27,6.76-.81,10.15-1.15a3.55,3.55,0,0,0,3.21-2.3c1.8-4.08,3.87-8,5.59-12.15,7.78-18.55,11-38,11.83-58,.52-12.9-1.59-25.52-3.69-38.15-.83-5-1.9-9.91-2.87-14.87-.29-1.51-.87-2.45-2.75-2.44-10.34,0-20.69-.5-31-.11q-31,1.2-61.85,4.39c-17.13,1.75-33.7,6.12-50.51,9.4-1.17.23-1.41.71-.51,1.6,1.42,1.4,2.81,2.81,4.21,4.22l7,9a3.75,3.75,0,0,0,.16.68c1.54,3.58,3.45,7.16-.51,10.51-.23.2-.05,1.08.14,1.57a16.39,16.39,0,0,0,1.3,2.49c7.44,12,9.93,25.36,11,39.13.36,4.65.4,9.33.59,14Q392.77,525.64,392.51,535.16ZM686.36,333.44c8.85,0,15.88-1.53,22.35-5.32,12.11-7.11,17.77-17.94,17.35-31.66-.32-10.21-5.16-18.86-11.55-26.7-4.56-5.59-10.8-8.61-17.18-11.34a56.77,56.77,0,0,1-13.63-8c-2.64-2.15-5.12-4.49-7.7-6.71a19.52,19.52,0,0,1-6.94-14.85c-.14-4.93,1.57-9.47,3.08-14a34.47,34.47,0,0,0,1.19-18.74c-2.7-11.87-8.75-20.63-21.49-23.39a87.25,87.25,0,0,1-21.47-7.78c-9.12-4.69-14.82-11.69-16.14-22-.27-2.09-.51-4.19-.9-6.26-1.8-9.34-5.23-17.82-12.93-24-5.72-4.56-11.87-6.51-19-3.31-1.37.62-1.95,1.09-1.7,2.8a24.1,24.1,0,0,1-.12,6.94,3.47,3.47,0,0,1-2.2,2.37c-.84.14-2.06-.8-2.81-1.57a10,10,0,0,1-1.47-2.77c-3.33-7-6.38-14.14-10-21a98.84,98.84,0,0,0-19-25.67,98.44,98.44,0,0,0-19.82-14c-10.81-6.06-21.94-11.19-34.5-12.62-12.92-1.48-23.78,1.76-32.43,12-8.52,10.09-10,20.92-4.62,32.74,3.56,7.79,7.55,15.39,11.25,23.13,3,6.21,5,12.67,4.64,19.68a18.82,18.82,0,0,1-8.32,14.84c-4.43,3.19-9.16,2-13.81.35-.44-.16-.89-.3-1.34-.44-8.53-2.61-17-5.56-25.61-7.74-10.21-2.58-20.44-2.49-30.4,1.68-5.25,2.19-9.75,5.28-12.67,10.21-6.95,11.77-8.78,23.88-2.05,36.45,1.39,2.59,2.8,5.16,4.18,7.76,3.35,6.32,7,12.53,10,19,2.74,6,4.93,12.25,4.57,19-.31,5.9-2.54,10.8-8.31,13.23a76.94,76.94,0,0,1-10.63,3.62c-4.08,1-8.28,1.64-12.44,2.37-9.38,1.65-16.47,7.19-23,13.59-5.85,5.73-9.88,12.47-10.89,20.81-.56,4.6.25,8.79,3.66,12a98.1,98.1,0,0,0,10.62,8.66c4.7,3.28,10.1,4.8,15.81,5.49,6.06.72,12.13,1.51,18.07,2.81,4.09.9,7.92,2.91,12,4.12,10.35,3.1,17.87,9.78,23.42,18.71a35.32,35.32,0,0,1,5.27,22.2,37.42,37.42,0,0,1-5.8,17.16,4.7,4.7,0,0,0-.36,1.54,10.15,10.15,0,0,0,1.35,0,55.47,55.47,0,0,0,14.83-4.32c13.7-6.06,25-15.34,35-26.19,3.52-3.79,6.75-7.83,10.07-11.79,3.66-4.36,8.17-6.25,13.78-4.58a39.83,39.83,0,0,1,6.19,2.49c11.07,5.47,20.12,13.55,27.65,23.11,5.94,7.54,10.87,15.88,16.24,23.87.39.58.67,1.25,1.1,1.8a4.25,4.25,0,0,0,1.1.71c.23-.38.64-.75.65-1.13a28.09,28.09,0,0,0,0-5.27c-1-6.38-2.23-12.67-5-18.64-2.56-5.6.28-10.19,6.44-10.7a27.62,27.62,0,0,1,7.7.42,318.18,318.18,0,0,1,48.1,13.53c22.78,8.54,43.14,20.74,60.19,38.24,2.38,2.44,4.79,4.85,7.31,7.14a20.57,20.57,0,0,0,3.45,2.09c-.11-1.16-.18-2.31-.33-3.46a25.69,25.69,0,0,0-.54-2.75,107.42,107.42,0,0,0-13.2-30.26c-4.33-6.9-10.06-12.68-15.66-18.54-5-5.27-9-11.23-10.5-18.44-1.62-7.54,2.91-14,10.33-14.66a23.86,23.86,0,0,1,8.4.39c5.86,1.61,11.61,3.7,17.34,5.77C670.7,330.69,679,333.32,686.36,333.44ZM285.17,654.53c.16,2.89.35,6.88.61,10.86.48,7.37,1,14.75,1.52,22.11.79,10.07,4.07,19.5,7.77,28.78a31.11,31.11,0,0,0,4.43,8,37.41,37.41,0,0,0,7.28,6.52c2.21,1.58,3.47,1.43,5.29-.59A27,27,0,0,0,317,723c3.6-8.5,5.21-17.46,5.92-26.69a175.7,175.7,0,0,0-.62-35.15q-1.38-11.18-2.48-22.39c-.83-8.41-1.55-16.83-2.24-25.25-.92-11-2.12-22-2.55-33-.62-15.85-.68-31.72,1.26-47.52,1.12-9.08,1.91-18.2,4.29-27.09,4.79-17.9,11.07-35.19,20.75-51.08a53.58,53.58,0,0,1,15.11-16.06c1-.68,2.06-1.52,3.1-.27s.17,2.18-.71,3c-1.6,1.56-3.24,3.09-4.78,4.7a10.65,10.65,0,0,0-1.21,1.95c.67.06,1.34.17,2,.18a46.18,46.18,0,0,1,6.34.07c5.27.79,10.89.68,15,5.12.41.44,1.26.5,1.9.73a4.93,4.93,0,0,0-.68-4.52A39.39,39.39,0,0,0,366.09,436a26.35,26.35,0,0,0-7.91-4.45c-6.85-2.21-14.09-2.34-21.21-2.93-15.23-1.26-29.56,3-43.83,7.41-3.29,1-5.84,3.31-8.05,6.06-3.18,3.95-4.8,8.58-6.47,13.22-.91,2.54-.85,2.93,1.56,4.22,3.5,1.88,6.12,4.64,8.66,7.62,11,12.87,16.92,27.52,15.9,44.62-.29,4.91-.7,9.82-1.29,14.7-.91,7.56-1.74,15.15-3.1,22.64-3.5,19.27-8.61,38.22-11.31,57.67A457.15,457.15,0,0,0,285.17,654.53ZM640.46,946.85c6.44-.38,12.9-.53,19.3-1.23a39.13,39.13,0,0,0,9.77-2.66c2.68-1,3.21-2.9,1.75-5.42a20.14,20.14,0,0,0-4.33-5.47c-6.09-5-12.59-9.54-20-12.4-8.75-3.39-17.66-6.35-26.56-9.32a10,10,0,0,0-5.14-.2,65.89,65.89,0,0,0-19.69,8.32,25.16,25.16,0,0,1-3.3,2,8.16,8.16,0,0,1-2.59.15,7.92,7.92,0,0,1,.57-2.83,8.43,8.43,0,0,1,2.56-2.37q6.64-4.28,13.39-8.42c1-.61,2.12-.88,2.21-2.4.44-7.37,1-14.73,1.4-22.1.13-2.28-.16-2.36-2.1-1.34-3.23,1.69-6.42,3.44-9.7,5a8.5,8.5,0,0,1-2.89.26c.59-.9,1.14-1.83,1.81-2.67.27-.34.81-.45,1.21-.7,3.48-2.18,6.93-4.4,10.43-6.56a3.82,3.82,0,0,0,2-3.46c.13-4.45.6-8.9.56-13.35-.1-10-.42-19.94-.66-29.92a7.2,7.2,0,0,0-.14-1.39c-.27-1.28-.68-1.69-2.14-.95-5.63,2.88-11.26,5.8-17.09,8.25-7.24,3-14.64,5.67-22,8.34-2.52.91-5.29,1.14-7.79,2.1-4.92,1.9-9.74,4.05-14.58,6.17-1.43.63-2.76,1.49-4.14,2.25,1.32,1.12,2.63,2.25,4,3.34a4.73,4.73,0,0,0,1,.42,72.8,72.8,0,0,0,17.73,5.62c2.41.48,4.8,1.09,7.15,1.79,1.39.41,2.69,1.21,2.65,2.89s-1.16,2.5-2.63,2.93a15.34,15.34,0,0,1-2.74.64c-3,.31-6.06.54-9.1.8-5.83.5-11.67,1-17.51,1.47-1.79.13-2.32,1-2.51,2.7-.35,3,1.17,4.89,3.43,6.42,4.77,3.23,10.2,4.64,15.76,5.73,4.14.82,8.25,1.74,12.38,2.6a3.15,3.15,0,0,1,2.8,2.77,3.47,3.47,0,0,1-2.42,3.54c-1.52.62-3.22.85-4.65,1.61-2.45,1.31-5.38,2.41-7,4.47-4.8,6.15-6.52,13.49-6,21.19.32,4.42,2.2,8.22,6.9,9.71,3.57,1.12,7.14,2.27,10.76,3.19C594.82,944.05,617.5,946.42,640.46,946.85ZM296.83,505.16c-.32-3.62-.47-7.27-1-10.86-1.49-10.67-5.24-20.39-12.68-28.4a28.9,28.9,0,0,0-4.42-3.47c-1.18-.85-1.81-.51-2.12,1-.95,4.59-1.9,9.19-3.06,13.74-4.72,18.52-9.63,37-14.25,55.55a243.8,243.8,0,0,0-7.08,47.95c-.54,11.82-1.06,23.68-.18,35.53.83,11.16,2.72,22.14,6.68,32.63,2.32,6.14,5.39,12,7.87,18.07,3.12,7.63,8.76,13.26,14.41,18.9.27.27.79.29,1.19.42a7.46,7.46,0,0,0,.1-1c-.28-3.63-.79-7.25-.83-10.87q-.17-15.31,0-30.63c0-4.91.83-9.84.57-14.72-.49-9.24-1.76-18.44-2.21-27.68-.42-8.71,1-17.32,3-25.79,3-12.55,6.26-25,9.17-37.61C294.51,527.12,296.54,516.28,296.83,505.16Zm508.81,28.68-.51,0c0-2,0-4,0-6a8.89,8.89,0,0,0-.52-1.91,10,10,0,0,0-1.77.94c-3.17,2.6-5.05,6.12-6.86,9.71-3.63,7.22-5,15.11-7,22.85q-2.31,9.21-4.84,18.37a20.77,20.77,0,0,1-10.56,13.07C765.44,595.3,757.33,599.8,749,604a28.81,28.81,0,0,1-21.93,1.89,91.45,91.45,0,0,1-10.31-3.54c-6.23-2.74-12.33-5.79-18.49-8.68a6,6,0,0,0-1.55-.28,4.31,4.31,0,0,0-.1,1.37c1.5,5.54,2.62,11.24,4.67,16.57,2.56,6.67,5.94,13,8.87,19.56a4.87,4.87,0,0,0,4.22,3.17c5,.61,10,1.35,15,2,8.5,1.12,16.33-.87,23.64-5.18,1.12-.66,2.26-1.27,3.36-1.94q19.73-12,39.41-24a4,4,0,0,0,1.86-2.28c.95-5.91,1.72-11.85,2.49-17.79,0-.16-.83-.67-1-.58-1,.76-2,1.64-3,2.45a17.42,17.42,0,0,1-3.39,2.48c-.8.35-1.93-.06-2.92-.12.16-.95,0-2.17.54-2.81a28.75,28.75,0,0,1,4.55-4.41,70.45,70.45,0,0,0,13.28-14.05,28.48,28.48,0,0,0,3.84-7.43c.86-2.43-.3-3.39-2.73-2.54-1.42.49-2.63,1.62-4,2-1,.27-2.62.12-3.1-.5s-.18-2.16.11-3.2c.23-.84,1.32-1.5,1.4-2.3C804.46,547.17,805,540.5,805.64,533.84ZM553,840.65a42.4,42.4,0,0,0,16.65-2.58c11.22-4.15,22.32-8.66,33.45-13.07,1.29-.52,2.39-1.51,3.67-2.08,2.73-1.22,3.18-3.3,2.84-6-1.43-11.42-2.52-22.89-4.17-34.28-1.37-9.53-3.33-19-5.06-28.45a7.06,7.06,0,0,0-.7-1.57,6.67,6.67,0,0,0-1.2,1.17c-2.35,3.8-4.5,7.73-7,11.43a232.71,232.71,0,0,1-29.22,35.69c-5.83,5.81-11.64,11.64-17.5,17.42-1,.94-1.67,1.72-1.52,3.27.56,6,1,11.93,1.36,17.9.08,1.21.53,1.71,1.71,1.63Zm-121.69-5.46c16.16-.34,30.34-1.86,44.08-6.54,2.11-.72,3.22-1.48,3.44-4,1.16-13,2.8-25.94,3.8-38.93.68-8.77.59-17.6.8-26.41a4.58,4.58,0,0,0-.53-1.5,9.49,9.49,0,0,0-1.1.78c-.43.39-.79.87-1.21,1.28-9.42,9.19-18.52,18.73-28.36,27.44A155.58,155.58,0,0,1,418,810.71c-1.37.67-1.48,1.51-1.54,2.74-.32,6-.7,12-1.08,17.94-.17,2.59-.15,2.7,2.61,2.91C423,834.67,428.05,835,431.35,835.19ZM531.87,419.46c-3,0-7,0-11,0-1.52,0-2,.28-1.65,2a263.17,263.17,0,0,1,6.12,41.8c.14,2.68.29,2.66,2.87,2.27a12.72,12.72,0,0,1,2.45-.24c10.08.55,20.16,1.09,30.24,1.75,2.69.18,2.71.37,2.86-2.29.56-10.44,1.07-20.89,1.68-31.33a48.68,48.68,0,0,1,1.06-8.72c.53-2.19-.34-2.34-2-2.48C554,421.34,543.43,420.43,531.87,419.46Zm-231.8,79.66-.55.09a2.52,2.52,0,0,0-.18.65c0,.94,0,1.88,0,2.82.63,13.36-1.53,26.39-4.75,39.29-3,12-6.26,24-8.95,36.16-2.85,12.86-4.1,25.9-2.51,39.09a4.06,4.06,0,0,0,.44,1c.08-.33.18-.66.23-1,1-6.59,1.81-13.23,3.17-19.74q3.75-17.88,8.09-35.64c4.19-17.15,7.3-34.41,6.33-52.16C301.2,506.18,300.52,502.66,300.07,499.12Zm43.66,13.12c0,5.52,0,11,0,16.56a7.92,7.92,0,0,0,.24,1.33,4.11,4.11,0,0,0,.82-1c2.8-6.59,5.56-13.2,8.33-19.81,4.84-11.55,2.07-21.81-5.33-31.27a7.25,7.25,0,0,0-1.59-1.14c-.15.55-.35,1.08-.45,1.63C343.71,489.7,342.66,500.91,343.73,512.24Zm482.64,70.33a14.58,14.58,0,0,0-4.11-9.23,2.64,2.64,0,0,0-1.74-.84,12.43,12.43,0,0,1-7-1.9,1.56,1.56,0,0,0-2.38.45c-1.5,2-3.09,3.83-4.75,5.64a3.75,3.75,0,0,0-.9,3.85c1.38,5.35,4.84,8.62,10,10.42C821.21,593,826.28,589.59,826.37,582.57Zm.47-72.73c0-5-4.44-10.07-9-10-6,.05-10.12,3.62-10.23,8.92a10,10,0,0,0,9.94,10.22A9.16,9.16,0,0,0,826.84,509.84Zm3.68,28.7c-.6-1.32-1.64-3.77-2.85-6.13a2.19,2.19,0,0,0-1.73-.86c-5.12.26-9.67,1.72-12.7,6.26s-1.67,8.92,3.41,10.87A10.31,10.31,0,0,0,830.52,538.54ZM343.26,474.11a7.1,7.1,0,0,0-.7-2.06A35.14,35.14,0,0,0,340,469.3a30.22,30.22,0,0,0-1.64,2.63,168,168,0,0,0-11.41,31.3c-1.71,6.55-2.86,13.24-4.24,19.87a5.34,5.34,0,0,0,.08,1.37,5.2,5.2,0,0,0,.86-1.16c2.33-5.75,4.62-11.52,6.93-17.27q5.88-14.67,11.78-29.33C342.69,475.85,343,475,343.26,474.11Zm485.91,84.27c-.48-1.23-1.3-3.52-2.28-5.74-.25-.55-1.1-1.28-1.56-1.21-3.32.48-6.46-.19-9.68-.81-.78-.16-2,1.56-2.84,2.55-.12.13.58,1.22,1.1,1.6a4.67,4.67,0,0,1,1.84,5,59.15,59.15,0,0,1-1.78,6.77c-.29,1-.29,1.47.74,1.91C821.22,571.23,829,568.15,829.17,558.38Zm-9.69,38c-.08-2.53-.08-2.5-2.77-2.79a4.85,4.85,0,0,1-2-.63c-3.13-2-6.69-3.47-8.46-7.09-.14-.28-.47-.47-.72-.7-.24.33-.64.64-.72,1-1.1,5.5.27,12.82,6.52,15.54A5.62,5.62,0,0,0,819.48,596.41Zm-18.54,35.51.5.28a24.63,24.63,0,0,0,1.19-2.49c2.57-7.3,5.15-14.6,7.62-21.93,1-3.11.92-3.15-2-4.77-1.94-1.06-2.06-1.08-2.47,1.18C804.12,613.43,802.54,622.68,800.94,631.92ZM553.76,478.13v-.07c1.52,0,3.05.05,4.57,0,1.7-.06,3.75.3,4.18-2.11.26-1.43-1.21-2.57-3.94-2.5-4.08.11-8.16.57-12.22,1.05-.72.08-1.35,1-2,1.5.69.53,1.33,1.41,2.08,1.52C548.85,477.87,551.31,477.94,553.76,478.13Z" transform="translate(-246.29 -38.25)"/><path class="cls-2" d="M686.36,333.44c-7.4-.12-15.66-2.75-23.86-5.71-5.73-2.07-11.48-4.16-17.34-5.77a23.86,23.86,0,0,0-8.4-.39c-7.42.68-12,7.12-10.33,14.66,1.54,7.21,5.46,13.17,10.5,18.44,5.6,5.86,11.33,11.64,15.66,18.54a107.42,107.42,0,0,1,13.2,30.26,25.69,25.69,0,0,1,.54,2.75c.15,1.15.22,2.3.33,3.46a20.57,20.57,0,0,1-3.45-2.09c-2.52-2.29-4.93-4.7-7.31-7.14-17-17.5-37.41-29.7-60.19-38.24a318.18,318.18,0,0,0-48.1-13.53,27.62,27.62,0,0,0-7.7-.42c-6.16.51-9,5.1-6.44,10.7,2.74,6,4,12.26,5,18.64a28.09,28.09,0,0,1,0,5.27c0,.38-.42.75-.65,1.13a4.25,4.25,0,0,1-1.1-.71c-.43-.55-.71-1.22-1.1-1.8-5.37-8-10.3-16.33-16.24-23.87-7.53-9.56-16.58-17.64-27.65-23.11a39.83,39.83,0,0,0-6.19-2.49c-5.61-1.67-10.12.22-13.78,4.58-3.32,4-6.55,8-10.07,11.79-10.07,10.85-21.34,20.13-35,26.19a55.47,55.47,0,0,1-14.83,4.32,10.15,10.15,0,0,1-1.35,0,4.7,4.7,0,0,1,.36-1.54,37.42,37.42,0,0,0,5.8-17.16,35.32,35.32,0,0,0-5.27-22.2c-5.55-8.93-13.07-15.61-23.42-18.71-4-1.21-7.87-3.22-12-4.12-5.94-1.3-12-2.09-18.07-2.81-5.71-.69-11.11-2.21-15.81-5.49a98.1,98.1,0,0,1-10.62-8.66c-3.41-3.19-4.22-7.38-3.66-12,1-8.34,5-15.08,10.89-20.81,6.53-6.4,13.62-11.94,23-13.59,4.16-.73,8.36-1.33,12.44-2.37a76.94,76.94,0,0,0,10.63-3.62c5.77-2.43,8-7.33,8.31-13.23.36-6.76-1.83-13-4.57-19-3-6.5-6.61-12.71-10-19-1.38-2.6-2.79-5.17-4.18-7.76-6.73-12.57-4.9-24.68,2.05-36.45,2.92-4.93,7.42-8,12.67-10.21,10-4.17,20.19-4.26,30.4-1.68,8.64,2.18,17.08,5.13,25.61,7.74.45.14.9.28,1.34.44,4.65,1.64,9.38,2.84,13.81-.35a18.82,18.82,0,0,0,8.32-14.84c.36-7-1.67-13.47-4.64-19.68-3.7-7.74-7.69-15.34-11.25-23.13-5.4-11.82-3.9-22.65,4.62-32.74,8.65-10.24,19.51-13.48,32.43-12,12.56,1.43,23.69,6.56,34.5,12.62a98.44,98.44,0,0,1,19.82,14,98.84,98.84,0,0,1,19,25.67c3.65,6.82,6.7,14,10,21a10,10,0,0,0,1.47,2.77c.75.77,2,1.71,2.81,1.57a3.47,3.47,0,0,0,2.2-2.37,24.1,24.1,0,0,0,.12-6.94c-.25-1.71.33-2.18,1.7-2.8,7.12-3.2,13.27-1.25,19,3.31,7.7,6.15,11.13,14.63,12.93,24,.39,2.07.63,4.17.9,6.26,1.32,10.33,7,17.33,16.14,22a87.25,87.25,0,0,0,21.47,7.78c12.74,2.76,18.79,11.52,21.49,23.39a34.47,34.47,0,0,1-1.19,18.74c-1.51,4.57-3.22,9.11-3.08,14A19.52,19.52,0,0,0,676,243.72c2.58,2.22,5.06,4.56,7.7,6.71a56.77,56.77,0,0,0,13.63,8c6.38,2.73,12.62,5.75,17.18,11.34,6.39,7.84,11.23,16.49,11.55,26.7.42,13.72-5.24,24.55-17.35,31.66C702.24,331.91,695.21,333.4,686.36,333.44ZM556.61,131.79l-.56-.07a40.41,40.41,0,0,0,0-5.28A87.36,87.36,0,0,0,542.82,90.8C537.55,82.51,531,75.39,523.9,68.65A51.11,51.11,0,0,0,508,57.88c-7.88-3.21-15.77-3.19-23.37,1-4.07,2.25-6.81,7.55-5.72,11.55.76,2.79,1.7,5.77,3.43,8A76.56,76.56,0,0,0,492,88.56c3.75,3.34,8,6.15,11.84,9.37,3.6,3,7.13,6.11,10.46,9.4,5.34,5.26,10.79,10.47,15.62,16.18,3.22,3.8,5.4,8.47,8.1,12.71a116.71,116.71,0,0,0,6.59,10c2.94,3.73,7.12,3.15,9.39-1a7.84,7.84,0,0,0,.81-2.31C555.42,139.16,556,135.47,556.61,131.79ZM710,296.73c-.14-6.53-1.92-12.56-6.18-17.55-4.5-5.28-10.31-7.64-17.3-6-2.62.6-5.16,1.55-7.75,2.28a102.15,102.15,0,0,0-26.42,11.33c-5.74,3.55-8.9,10.67-1.76,16.52a68.75,68.75,0,0,0,10.64,7.42,49.3,49.3,0,0,0,30.89,5.69C702.15,315,710.32,307.51,710,296.73ZM401.45,280c-.51-2.8-.65-5.19-1.41-7.36a26.76,26.76,0,0,0-9.19-12.24,16.73,16.73,0,0,0-12.19-3.75,21.19,21.19,0,0,0-19.14,23.27c1.2,12.18,8.83,19.47,20,22.2a15.61,15.61,0,0,0,19.3-12.36c.14-.68.42-1.33.6-2C400.14,285.07,400.83,282.38,401.45,280Z" transform="translate(-246.29 -38.25)"/><path class="cls-3" d="M509.13,545.34c8.43-17,12.8-35.22,15.38-53.92.11-.82.24-1.63.35-2.45.58-4.33.58-4.46,4.84-4.5,9-.09,18.1-.16,27.14,0,7.36.16,7.34.34,8,7.73,1.08,11.34,2.07,22.68,3.37,34a109.33,109.33,0,0,0,2.65,13.1c1.52,6.35,5.37,10.75,11.33,13.54a113,113,0,0,0,34.43,9.75c8.62,1.06,17.23,2.26,25.88,3.14A95.82,95.82,0,0,0,673.71,564a22,22,0,0,0,13.53-8.89,7.27,7.27,0,0,1,1-.95,4.38,4.38,0,0,1,.51,1.47c-.23,5.87-.36,11.75-.82,17.6a258.55,258.55,0,0,1-11.2,57.63,139.27,139.27,0,0,1-22.47,43.63c-2.08,2.7-4.14,5.42-6.07,8.22a129.39,129.39,0,0,1-20,22.25c-10.21,9.22-20.34,18.52-31.92,26a31.1,31.1,0,0,1-6.91,3.42c-6.33,2.13-12.75,4-19.13,6a8.33,8.33,0,0,0-.69-2.66c-2.48-3.68-5-7.36-7.67-10.89-4.68-6.14-9.55-12.13-14.24-18.26-1.83-2.41-1.63-3,.63-4.91,2.7-2.23,5.45-4.42,8.07-6.76q8.11-7.26,16.1-14.67,11.22-10.41,22.35-20.9c.34-.32.68-.65,1-1,1.3-1.37,2.48-1.06,3.54.29,2.1,2.66,4.11,5.39,6.28,8,4.41,5.31,8.89,10.56,13.37,15.81,2.28,2.67,4.63,5.28,7,7.93,5.36,6.13,2.77,6.74,9.3.46l.49-.51a2.5,2.5,0,0,0,0-3.76c-1.78-2-3.49-4.11-5.35-6-3.26-3.39-6.79-6.53-9.9-10.05-5.2-5.86-10.11-12-15.25-17.9-1.31-1.51-1.19-2.51.12-3.87,4.16-4.3,8.29-8.63,12.33-13,3.24-3.54,6.33-7.21,9.51-10.8q3.25-3.69,6.56-7.34c1-1.14,1.82-1,2.79.26,5.61,7.48,11.24,14.95,17,22.32,2.74,3.5,5.69,6.84,8.7,10.11,1.87,2,2.22,1.88,3.53-.48.4-.72.72-1.49,1.13-2.2a3.45,3.45,0,0,0-.48-4.47c-1.9-2.21-3.49-4.69-5.26-7-6.46-8.46-12.91-16.93-19.44-25.33-1-1.28-1-2.19.06-3.36,2.15-2.32,4.35-4.62,6.28-7.11,6.95-9,13.81-18,20.66-27,1.62-2.15,3.11-4.4,4.61-6.64a1.72,1.72,0,0,0,.08-1.23c0-.14-.63-.22-1-.19a51.73,51.73,0,0,1-5.92.49c-3-.09-5,1.22-6.77,3.61-2.9,4-6,7.78-9.11,11.58-4.53,5.52-9.2,10.91-13.7,16.45-2.88,3.55-3.47,3.62-6.13,0-.34-.47-.72-.92-1.09-1.37-6.28-7.86-12.53-15.74-18.85-23.56a10.19,10.19,0,0,0-3.36-3c-3.53-1.56-7.2-2.8-10.84-4.12a3.36,3.36,0,0,0-1.31.12c.06.42,0,.94.19,1.24,1.43,2,2.88,4,4.41,5.9,4.76,5.93,9.56,11.82,14.33,17.74,4,4.92,7.84,9.9,11.87,14.77,1.94,2.35,2.06,2.27.38,4.64a13.15,13.15,0,0,1-1.12,1.35q-7.4,7.79-14.81,15.55c-.72.76-1.4,1.57-2.13,2.33q-5.47,5.73-11,11.42c-1,1-1.83,1-2.87-.24-2.79-3.32-5.78-6.46-8.63-9.73-1-1.15-1.35-1-1.71.41a13.73,13.73,0,0,1-1.34,3.59c-1.65,2.79-1.66,3.18.55,5.67q2.32,2.63,4.55,5.35c1.08,1.31,1.53,2.65-.15,3.91a19.26,19.26,0,0,0-1.51,1.49c-8.27,7.8-16.57,15.58-24.81,23.42-6.88,6.56-13.69,13.2-20.54,19.79-1.88,1.81-2.24,1.74-3.81-.27-7.1-9.14-14.11-18.37-21.35-27.4-8.64-10.76-17.5-21.35-26.24-32-4.08-5-8-10-12.17-15s-7.81-10.32-12.2-15.14c-6-6.56-11.4-13.63-17.1-20.46-8.39-10.06-16.82-20.08-25.19-30.17A48.53,48.53,0,0,1,420,550.8c2.45.13,4.9.23,7.35.39,11,.74,22,1.63,33,2.21a178.22,178.22,0,0,0,43.74-2.69c.91-.18,1.79-.5,2.69-.75,1.57,2.14,3.1,4.31,4.71,6.43a8.21,8.21,0,0,0,7.86,3.54,37.79,37.79,0,0,1,9.44.4c2.82.46,4.89,0,6.91-2.12,8.17-8.59,16.47-17.05,24.75-25.52a10.83,10.83,0,0,1,3-2.39c1.34-.63,1.25-1.47,1-2.57-.73-3.31-1.42-6.62-2.15-9.93a9,9,0,0,0-2.48-4.89,63,63,0,0,1-4.61-5.29c-5.07-6-10.12-11.95-15.24-17.88-1.46-1.7-3.94-1.47-4.56.56-.66,2.19-1.07,4.64.63,6.68,2.7,3.24,5.45,6.42,8.19,9.62,4.17,4.89,8.33,9.8,12.53,14.66.93,1.08,1.06,2,0,3.08-.58.58-1.14,1.19-1.74,1.75Q541.37,539,527.72,552c-1.45,1.38-2.81,2.84-4.26,4.22-1.89,1.8-2.17,1.71-3.82-.27-2.39-2.88-4.8-5.74-7.35-8.48A15.68,15.68,0,0,0,509.13,545.34Zm-25.31,67.77-.68.67c-1.47,1.26-3,2.48-4.39,3.78-1,.9-1,1.76.4,2.3l.07.06,2.1-.1c10.82.69,21.42,2.11,31.56,6.47a87.05,87.05,0,0,0,17.79,5.43c9.7,1.85,19.23,0,28.33-3.56a257.91,257.91,0,0,1,50.74-14.35c.81-.14,2-.75,2.14-1.32s-.65-1.6-1.19-2.3a7.35,7.35,0,0,0-1.61-1.36,41.26,41.26,0,0,1-10.73-12c-4.61-7.51-9.11-15.08-13.89-22.48-2.54-3.93-5.12-8-8.45-11.22-7.12-6.88-12.34-7.34-20-3.44-1.68.84-3.35,1.69-5.06,2.49-5.75,2.71-11.57,3.74-17.65.87a28.56,28.56,0,0,0-4.73-1.35c-8.61-2.35-14.08-.46-19.26,6.89-6.54,9.28-10.6,19.84-15.25,30.1l-8.85,13-.63.72Zm58.58,37c7.53.34,14.62-2.49,21.27-6.72a5.29,5.29,0,0,0,2.06-1.87c.53-1.19,1.16-2.81.73-3.83s-2-1.75-3.24-2.14a6.87,6.87,0,0,0-3.1.3c-5.84,1.14-11.64,2.73-17.54,3.37s-12.05,1.9-18.15.45a22.73,22.73,0,0,0-5.57-.58,2.6,2.6,0,0,0-2,1.41,2.67,2.67,0,0,0,1.15,2.21,18,18,0,0,0,3.87,1.63c3.2,1.13,6.62,1.84,9.58,3.41A19.86,19.86,0,0,0,542.4,650.14ZM540,657c11.92,0,21.71-3.74,30.76-9.53,2.52-1.62,4.57-4,6.74-6.13.38-.38.25-1.27.36-1.92-.64,0-1.39-.25-1.88,0a16.89,16.89,0,0,0-3.52,2.32c-3.74,3.34-8.16,5.5-12.69,7.47-8.23,3.59-16.78,5.61-25.72,3.56a77.17,77.17,0,0,1-21.26-8.25,19.78,19.78,0,0,0-3.44-1.23c.74,1,1.27,2.45,2.28,3,4.37,2.51,8.86,4.82,13.36,7.09A33.35,33.35,0,0,0,540,657Z" transform="translate(-246.29 -38.25)"/><path class="cls-4" d="M393,516.11c-.19-4.66-.23-9.34-.59-14-1.07-13.77-3.56-27.15-11-39.13a16.39,16.39,0,0,1-1.3-2.49c-.19-.49-.37-1.37-.14-1.57,4-3.35,2-6.93.51-10.51a3.75,3.75,0,0,1-.16-.68,19.32,19.32,0,0,0,3.15-2c3.3-3.17,6.49-6.46,9.75-9.68,2-2,2.1-2,4.16,0,5.75,5.72,11.54,11.4,17.16,17.23,2,2,3.9,2.65,6.58,1.72s3.06-1.3,1.08-3.3c-6.94-7-14-13.95-20.93-20.94a3.19,3.19,0,0,0-3.4-1c-6.26,1.46-12.58,2.63-18.85,4-2.76.61-5,2-5.73,5-1.4-1.41-2.79-2.82-4.21-4.22-.9-.89-.66-1.37.51-1.6,16.81-3.28,33.38-7.65,50.51-9.4Q451,420.39,482,419.15c10.32-.39,20.67.12,31,.11,1.88,0,2.46.93,2.75,2.44,1,5,2,9.89,2.87,14.87,2.1,12.63,4.21,25.25,3.69,38.15-.79,20-4,39.46-11.83,58-1.72,4.11-3.79,8.07-5.59,12.15a3.55,3.55,0,0,1-3.21,2.3c-3.39.34-6.76.88-10.15,1.15a199,199,0,0,1-36.93-.14c-9.45-1-19-1.09-28.49-1.72-10-.65-19.91-1.44-29.86-2.24-4.72-.37-4.73-.44-4.31-5.25.12-1.28.4-2.54.6-3.82,1.27,1.35,2.49,2.76,3.83,4,.9.85,2.21,2.29,2.94,2.09,3-.85,5.78-.19,8.66.18.58.08,1.22-.38,1.84-.59a7.81,7.81,0,0,0-.75-1.47c-2.79-3.3-5.61-6.56-8.41-9.84-1.94-2.28-1.93-2.27.13-4.42q7.15-7.47,14.27-15c1.7-1.79,1.63-2.16-.3-3.9-.83-.74-1.58-1.59-2.37-2.39a100.05,100.05,0,0,0,36,1.8c7.31-.88,14.58-2.14,21.86-3.24a24.35,24.35,0,0,1-3,1.58c-2,.72-2.17,1.07-1,2.76a11.09,11.09,0,0,0,1.16,1.31q7.86,8.22,15.71,16.43c.56.59,1.07,1.23,1.64,1.81,2.42,2.5,4.86,5,7.29,7.48l2.05,2.42c1.95,2.28,3.9,4.58,5.89,6.84a1.14,1.14,0,0,0,.93.23c1.91-.42,3.57-4.1,2.34-5.63a75.31,75.31,0,0,0-5.26-5.47c3-8.66,5.74-17.39,9-26,3.66-9.75,4.78-19.85,4.49-30.1A113.49,113.49,0,0,0,508,451.06a98.38,98.38,0,0,0-3.69-11.36c-.61-1.56-1.83-3.28-3.92-3s-2,2.32-2.48,3.86a21.38,21.38,0,0,1-2.73-2.05c-2.33-2.44-4.5-5-6.84-7.47-3.69-3.84-3.72-3.79-.4-8a7.09,7.09,0,0,0,.73-1.76,5.72,5.72,0,0,0-1.61-.42c-4.65.22-9.31.43-13.94.8-1.27.11-2.46.61-1.87,2.57.21.7-.65,1.84-1.23,2.63-2.26,3.07-4.61,6.08-6.92,9.12a15.13,15.13,0,0,0-5.79,6.67c-3.3,1-4.22,4.38-6.45,6.47-.07.06.51,1.23.82,1.25,2,.12,3.92.05,5.88.05.11.41.21.83.31,1.24-.82.06-1.63.16-2.45.18A95.65,95.65,0,0,0,425.75,457c-5.95,2.11-11.82,4.48-17.66,6.88-.92.38-1.51,1.57-2.26,2.38,1,0,2.09,0,3.13-.12a5.43,5.43,0,0,0,1.3-.52c15.61-6,31.45-10.94,48.46-10.51.79,1.15,1.57,2.3,2.38,3.43a12.12,12.12,0,0,0,15.89,4,12.66,12.66,0,0,0,6.05-7.06,43.35,43.35,0,0,0,5.22.06,3.47,3.47,0,0,0,2.78-5.19,1.92,1.92,0,0,0-1.28-1c-.44,0-1.27.52-1.3.87-.29,3.25-2.75,2.87-4.89,3.06a19.69,19.69,0,0,0-7.25-16c.84-1,1.65-2,2.51-2.9s1.63-.73,2.38.12c3,3.4,5.87,6.92,9,10.18,2.72,2.82,5.75,5.34,8.65,8,.73,7.34,1.64,14.67,2.16,22,.62,8.95-.84,17.8-2.38,26.57-1.42,8.06-3.49,16-5.27,24a22.24,22.24,0,0,1-3.05-2.15c-1.4-1.4-2.59-3-3.92-4.48-4.4-4.85-8.78-9.72-13.26-14.5a12.17,12.17,0,0,0-2.93-1.75c2.32-.8,4.69-1.49,7-2.41,6.05-2.45,10.59-6.46,12.51-12.9,1.17-3.92,2.19-7.9,3.13-11.88.39-1.67.71-3.12,2.69-3.63a4.45,4.45,0,0,0,2.25-1.6c.38-.51.22-1.44.3-2.18-.64.06-1.42-.11-1.9.2-3.11,2-6.57,2.32-10.13,2.35-7.27.07-14.55-.07-21.8.39-8.88.56-17.72,1.65-26.58,2.51a9.09,9.09,0,0,1,8.58-2.54,3.37,3.37,0,0,0,3.73-1.17c2.48-2.94,5-5.87,7.38-8.87.37-.46.32-1.24.46-1.88a8.35,8.35,0,0,0-1.94-.35c-1.27.08-2.53.5-3.79.48-5.53-.1-10.76.48-14.47,5.34-.61.8-1.54,1.33-2.36.33-1.87-2.26-4-1.22-6.14-.67s-2.62,1.6-1.17,2.88c3.06,2.7,3.57,5.59,2,9.12-.7.41-1.38.85-2.09,1.24-8.07,4.38-15.09,9.88-19.85,17.94-2,3.42-2.16,3.34.3,6.06-3.34,1.05-5,4-7.22,6.33C398.33,510.35,395.68,513.24,393,516.11Zm41.2-79a5.28,5.28,0,0,0,5.3,5.41,5.35,5.35,0,0,0,4.87-5.09,5.24,5.24,0,0,0-5-5.29A4.72,4.72,0,0,0,434.21,437.08Z" transform="translate(-246.29 -38.25)"/><path class="cls-4" d="M570.92,426.55a6.07,6.07,0,0,1-.21-1c-.22-2.68-.18-2.79,2.57-2.37,14.28,2.16,28.59,4.09,42.79,6.63,12.7,2.27,25.33,5,37.89,8,8.55,2,16.91,4.83,25.38,7.2,2.31.64,3.37,2.13,4.18,4.25a142.1,142.1,0,0,1,8.33,71c-1.12,8.13-2.52,16.23-4.07,24.29-1.79,9.38-7.33,14.52-16.67,16.23a113.57,113.57,0,0,1-35.44.45c-10.59-1.4-21.22-2.7-31.65-4.92-6.94-1.48-13.59-4.4-20.29-6.88-4.68-1.72-7.64-5.22-9.39-9.89a64.74,64.74,0,0,1-4-18.17c-1-13.92-1.93-27.86-2.62-41.81a127.2,127.2,0,0,1,.55-14.06q1-16.35,2.09-32.69c.07-1.16.32-2.3.48-3.45,1.85,1.3,1.67,3.28,1.53,5.12a6.31,6.31,0,0,0,2.16,5.27c3.54,3.59,6.94,7.32,10.28,11.08,4.19,4.73,8.43,9.43,12.35,14.37,2.42,3.06,5.39,3.37,8.78,2.95,1.27-.16,2.52-.44,3.8-.62,1.5-.21,1.45-.91.63-1.86-.54-.62-1.16-1.17-1.72-1.77-3.76-4-7.57-8-11.24-12.12-4.12-4.63-8.1-9.38-12.15-14.08-2.74-3.18-5.56-6.32-8.25-9.56C575,425.64,574.3,425.39,570.92,426.55Zm67.8,13.4-.8-.7c-2-.85-4-1.31-5.92.06-2.94,2.07-2.73,4.85.57,8a61.72,61.72,0,0,1-3.63,5.47c-2.83,3.42-5.86,6.66-8.74,10-1.08,1.27-2,2.72-2.91,4.09,1.81.17,3.65.25,5.45.52,3.09.47,5-1.07,6.77-3.37,3.89-5,8-9.75,12-14.57,1.26-1.49,2.19-1.44,3.41.07,1.75,2.18,3.45,4.4,5.17,6.6-1,5.28,1.25,9.19,5.21,12.4a13.71,13.71,0,0,0,7.36,2.76c2.63,2.56,5.24,5.14,7.91,7.66a1.69,1.69,0,0,0,1.3.26c2.28-.42,3.91-4.08,2.64-6s-2.78-4-4.18-6a49.87,49.87,0,0,0,2.51-5.72,9.53,9.53,0,0,0-5-11.41c-4.68-2.37-9-2.85-13.56-.17-2.58-6.57-7.49-9.46-15.63-10Zm-48.63,64.14c.6.71,1.25,1.4,1.79,2.15a34.11,34.11,0,0,0,22.51,13.87,126.25,126.25,0,0,0,28.79,1.52,23.26,23.26,0,0,0,17.44-8.77c6-7.46,9.92-16.2,14.36-24.6.24-.45-.12-1.22-.2-1.84a6.7,6.7,0,0,0-1.92.28c-1.14.52-2.13,1.53-3.3,1.76-2.41.48-4.89.6-7.34.84-8.92.85-17.85.48-26.76-.06-4.67-.29-9.33-.77-14-1.16,2.45-.07,4.91-.12,7.36-.23,1.14-.05,1.44-.66.74-1.6a5.46,5.46,0,0,0-1-.94c-3.52-2.72-6.78-5.68-8.92-9.7a2,2,0,0,0-1.22-1c-3.24-.33-6.48-.59-9.73-.73-.43,0-1.35.87-1.28,1,.84,2-.68,3-1.8,4.15-2.22,2.25-4.53,4.41-6.66,6.74a16.17,16.17,0,0,0-1.84,3.2c-2.24.55-4.54.94-6.71,1.68-3.67,1.25-4.25,2.36-3.78,6.19a24.64,24.64,0,0,1-2,2.4c-2.13,2-4.25,4-6.52,5.86-2.61,2.1-3.61,4.51-2.21,7.69.35.8.64,1.62.95,2.44a13,13,0,0,0,2.34-1.33C582.81,510.69,586.44,507.38,590.09,504.09Zm95.16-12.94c0-4.66.09-8.66,0-12.65a31.23,31.23,0,0,0-.81-5.92c-.38-1.64-1.2-3.21-3.33-2.93s-2.17,1.85-2.21,3.45c0,.47,0,.94,0,1.41-.25,5.86-.36,11.74-.79,17.6-.77,10.64-1.73,21.28-2.61,31.92-.23,2.8-.5,5.61-.65,8.42a7.89,7.89,0,0,0,.34,3.11c.29.77,1.08,1.82,1.71,1.86s1.66-.79,2.11-1.49a8.51,8.51,0,0,0,1-3C682.81,518.94,686.33,505,685.25,491.15Zm-69.49-19.1c11.42,0,19.67,1.16,27.69,3.6,5.62,1.7,11.13,3.73,16.7,5.57a5.1,5.1,0,0,0,1.65,0c-.24-.49-.35-1.2-.74-1.43a45,45,0,0,0-5.27-2.8c-14.6-6.19-29.72-9.47-45.67-8.08-6,.52-12,.87-17.6,3.2-1.12.47-1.9,1.75-2.84,2.66a16.18,16.18,0,0,0,3.59.19C601.72,473.48,610.15,471.89,615.76,472.05Zm63.52,72.14c-.73-.94-1.31-1.77-2-2.54q-4.35-5-8.73-10.07c-3.13-3.62-6.24-7.28-9.42-10.86-.58-.66-1.72-1.65-2.17-1.46a7.69,7.69,0,0,0-3.58,2.6c-.39.63.41,2.39,1.13,3.27,6.38,7.76,12.87,15.44,19.3,23.15,1.5,1.8,2.09,1.94,3.39.14A27.34,27.34,0,0,0,679.28,544.19Z" transform="translate(-246.29 -38.25)"/><path class="cls-5" d="M285.17,654.53A457.15,457.15,0,0,1,289,606.79c2.7-19.45,7.81-38.4,11.31-57.67,1.36-7.49,2.19-15.08,3.1-22.64.59-4.88,1-9.79,1.29-14.7,1-17.1-4.92-31.75-15.9-44.62-2.54-3-5.16-5.74-8.66-7.62-2.41-1.29-2.47-1.68-1.56-4.22,1.67-4.64,3.29-9.27,6.47-13.22,2.21-2.75,4.76-5,8.05-6.06,14.27-4.4,28.6-8.67,43.83-7.41,7.12.59,14.36.72,21.21,2.93a26.35,26.35,0,0,1,7.91,4.45,39.39,39.39,0,0,1,11.28,13.81,4.93,4.93,0,0,1,.68,4.52c-.64-.23-1.49-.29-1.9-.73-4.07-4.44-9.69-4.33-15-5.12a46.18,46.18,0,0,0-6.34-.07c-.66,0-1.33-.12-2-.18a10.65,10.65,0,0,1,1.21-1.95c1.54-1.61,3.18-3.14,4.78-4.7.88-.86,1.7-1.86.71-3s-2.14-.41-3.1.27a53.58,53.58,0,0,0-15.11,16.06c-9.68,15.89-16,33.18-20.75,51.08-2.38,8.89-3.17,18-4.29,27.09-1.94,15.8-1.88,31.67-1.26,47.52.43,11,1.63,22,2.55,33,.69,8.42,1.41,16.84,2.24,25.25q1.11,11.21,2.48,22.39a175.7,175.7,0,0,1,.62,35.15c-.71,9.23-2.32,18.19-5.92,26.69a27,27,0,0,1-4.94,7.16c-1.82,2-3.08,2.17-5.29.59a37.41,37.41,0,0,1-7.28-6.52,31.11,31.11,0,0,1-4.43-8c-3.7-9.28-7-18.71-7.77-28.78-.57-7.36-1-14.74-1.52-22.11C285.52,661.41,285.33,657.42,285.17,654.53Z" transform="translate(-246.29 -38.25)"/><path class="cls-6" d="M420,550.8a48.53,48.53,0,0,0,3.05,4.62c8.37,10.09,16.8,20.11,25.19,30.17,5.7,6.83,11.11,13.9,17.1,20.46,4.39,4.82,8,10.17,12.2,15.14s8.09,10,12.17,15c8.74,10.68,17.6,21.27,26.24,32,7.24,9,14.25,18.26,21.35,27.4,1.57,2,1.93,2.08,3.81.27,6.85-6.59,13.66-13.23,20.54-19.79,8.24-7.84,16.54-15.62,24.81-23.42a19.26,19.26,0,0,1,1.51-1.49c1.68-1.26,1.23-2.6.15-3.91q-2.22-2.73-4.55-5.35c-2.21-2.49-2.2-2.88-.55-5.67a13.73,13.73,0,0,0,1.34-3.59c.36-1.43.72-1.56,1.71-.41,2.85,3.27,5.84,6.41,8.63,9.73,1,1.24,1.86,1.29,2.87.24q5.52-5.69,11-11.42c.73-.76,1.41-1.57,2.13-2.33q7.41-7.79,14.81-15.55a13.15,13.15,0,0,0,1.12-1.35c1.68-2.37,1.56-2.29-.38-4.64-4-4.87-7.91-9.85-11.87-14.77-4.77-5.92-9.57-11.81-14.33-17.74-1.53-1.92-3-3.91-4.41-5.9-.22-.3-.13-.82-.19-1.24a3.36,3.36,0,0,1,1.31-.12c3.64,1.32,7.31,2.56,10.84,4.12a10.19,10.19,0,0,1,3.36,3c6.32,7.82,12.57,15.7,18.85,23.56.37.45.75.9,1.09,1.37,2.66,3.62,3.25,3.55,6.13,0,4.5-5.54,9.17-10.93,13.7-16.45,3.11-3.8,6.21-7.62,9.11-11.58,1.74-2.39,3.74-3.7,6.77-3.61a51.73,51.73,0,0,0,5.92-.49c.32,0,.91,0,1,.19a1.72,1.72,0,0,1-.08,1.23c-1.5,2.24-3,4.49-4.61,6.64-6.85,9-13.71,18.08-20.66,27-1.93,2.49-4.13,4.79-6.28,7.11-1.07,1.17-1.05,2.08-.06,3.36,6.53,8.4,13,16.87,19.44,25.33,1.77,2.32,3.36,4.8,5.26,7a3.45,3.45,0,0,1,.48,4.47c-.41.71-.73,1.48-1.13,2.2-1.31,2.36-1.66,2.51-3.53.48-3-3.27-6-6.61-8.7-10.11-5.76-7.37-11.39-14.84-17-22.32-1-1.3-1.76-1.4-2.79-.26q-3.3,3.66-6.56,7.34c-3.18,3.59-6.27,7.26-9.51,10.8-4,4.41-8.17,8.74-12.33,13-1.31,1.36-1.43,2.36-.12,3.87,5.14,5.92,10.05,12,15.25,17.9,3.11,3.52,6.64,6.66,9.9,10.05,1.86,1.93,3.57,4,5.35,6a2.5,2.5,0,0,1,0,3.76l-.49.51c-6.53,6.28-3.94,5.67-9.3-.46-2.32-2.65-4.67-5.26-7-7.93-4.48-5.25-9-10.5-13.37-15.81-2.17-2.6-4.18-5.33-6.28-8-1.06-1.35-2.24-1.66-3.54-.29-.33.34-.67.67-1,1q-11.16,10.46-22.35,20.9-8,7.4-16.1,14.67c-2.62,2.34-5.37,4.53-8.07,6.76-2.26,1.87-2.46,2.5-.63,4.91,4.69,6.13,9.56,12.12,14.24,18.26,2.69,3.53,5.19,7.21,7.67,10.89a8.33,8.33,0,0,1,.69,2.66l-3.27.89c-3.48.54-5.52-1.62-7.14-4.13A262.58,262.58,0,0,0,541.69,713c-1.15-1.4-2-1.51-3.43-.23-3.28,3-6.73,5.8-10.09,8.72-5.56,4.84-11.09,9.72-16.64,14.57-2.82,2.46-5.64,4.92-8.51,7.32-1.13.94-2.24,1.71-1.57,3.47.39,1-.23,1.22-1.11.95a45.35,45.35,0,0,0-5.37-1.63,10.3,10.3,0,0,1-6-3.38q-5.08-5.6-10.34-11-14.1-14.54-28.29-29c-8.75-8.87-17.63-17.61-26.39-26.47-1.41-1.43-2.33-1.39-3.73,0a61.69,61.69,0,0,1-7.57,6.81c-4.95,3.53-3,4.23-7.67-.34-2.32-2.26-2.25-2.69-.08-5.19,2.53-2.92,4.89-6,7.5-8.82,1.47-1.6,1.32-2.72-.15-4.14q-5.2-5-10.23-10.22-9.45-9.72-18.81-19.51c-2.11-2.19-4.17-4.4-6.26-6.61-1-4.17-2.39-8.31-1.33-12.71.53.23,1.2.32,1.56.71,4.36,4.58,8.68,9.21,13,13.82,2.64,2.83,5.29,5.64,7.93,8.46,6.15,6.6,12.26,13.24,18.45,19.79,2.15,2.28,3,2.09,5-.32,2.87-3.4,5.72-6.81,8.74-10.06,5.19-5.58,10.51-11,15.78-16.54l.73-.77c4.51-4.58,9-9.21,13.57-13.72.95-.93,1.26-1.56.36-2.61-.46-.53-.73-1.21-1.18-1.75q-7.41-8.88-14.86-17.74-6.21-7.38-12.46-14.72c-3.79-4.45-7.54-8.93-11.39-13.33-4-4.58-8.12-9.06-12.12-13.64a7.33,7.33,0,0,1-.89-2.16c.68-.1,1.37-.16,2-.32a13.16,13.16,0,0,0,1.59-.58Zm113.1,152a39.09,39.09,0,0,0-2.23-3.47q-8.08-9.95-16.24-19.82c-3.94-4.78-8-9.5-11.92-14.28-5-6-9.93-12.13-14.91-18.18s-9.89-11.86-14.75-17.86c-2.35-2.91-2.62-3.06-5.33-.27-4.16,4.3-8.17,8.74-12.37,13-7.68,7.78-15.46,15.47-23.19,23.21-5,5-5,5,0,10.22,6.76,7.17,13.43,14.41,20.2,21.57,5.72,6.05,11.48,12.09,17.32,18,7.42,7.55,14.95,15,22.43,22.47,4.57,4.56,4.55,4.44,8.65-.5,4.63-5.58,9.35-11.12,14.37-16.35s10.65-10.25,16-15.38A29.56,29.56,0,0,0,533.1,702.8Z" transform="translate(-246.29 -38.25)"/><path class="cls-7" d="M405.24,837.72c4.06.49,8.11,1.18,12.19,1.44q9.65.63,19.32.78a117.06,117.06,0,0,0,32.65-4.49c2.25-.62,4.39-1.65,6.59-2.45,1.73-.63,2-.4,1.8,1.5-.67,5.58-1.32,11.16-2.11,16.72-1.08,7.65-2.28,15.28-3.42,22.92-.07.47-.13.93-.23,1.39-.67,3-.65,2.82-3.63,2.3q-8.29-1.44-16.65-2.53a12.78,12.78,0,0,0-4.5.44c-.61.15-1.05,1-1.57,1.6.61.44,1.17,1.14,1.85,1.28,3.9.8,7.84,1.38,11.74,2.19,2.87.59,5.69,1.39,8.53,2.13,1.55.4,2.33,1,1.79,3-1.79,6.43-3.28,13-5,19.41-.82,3.07-.92,2.75-4.16,2.63a51.62,51.62,0,0,0-10.83.65,70.43,70.43,0,0,0-10.08,3.08c-1.15.39-2.83.8-2.48,2.48.43,2.05,2.29,1.2,3.53,1.1a34,34,0,0,0,4.81-1c6.92-1.52,13.85-2.56,20.82-.27a45.23,45.23,0,0,1,5.93,2.19c10.42,5.13,21.26,9.48,30.47,16.82,4.05,3.23,7.92,6.59,10.71,11,3.43,5.51,1.46,11.19-5,12.38a55.14,55.14,0,0,1-14,.45c-8.88-.66-17.76-1.79-26.25-4.65-11.78-4-23.48-8.15-35.16-12.39-4.52-1.64-8.85-3.79-13.35-5.5A62.37,62.37,0,0,1,405,926a4.39,4.39,0,0,1-2-4.18,51.13,51.13,0,0,1,5.8-21.93c2.52-4.6,7.27-6.44,12.39-7,1.27-.15,2.58-.05,3.87-.09a9.17,9.17,0,0,0,2.1-.17c1.25-.36,2.56-.79,2.6-2.43s-1.19-1.81-2.29-2.26c-4.57-1.83-9.31-3.36-13.64-5.66a84.85,84.85,0,0,1-10.94-7.6,8.86,8.86,0,0,1-2.47-3.36c-1.76-3.84.2-7.31,4.45-7.36a79.63,79.63,0,0,1,12.22,1c3,.43,5.9,1.49,8.88,2.14a16.39,16.39,0,0,0,4.19.36c.7,0,1.39-.65,2.08-1-.42-.76-.65-1.79-1.29-2.24-2-1.4-4.21-2.56-6.3-3.87-6.12-3.82-11.77-8.24-15.82-14.28-1.65-2.46-2.51-5.45-3.73-8.2Z" transform="translate(-246.29 -38.25)"/><path class="cls-7" d="M640.46,946.85c-23-.43-45.64-2.8-67.92-8.46-3.62-.92-7.19-2.07-10.76-3.19-4.7-1.49-6.58-5.29-6.9-9.71-.56-7.7,1.16-15,6-21.19,1.6-2.06,4.53-3.16,7-4.47,1.43-.76,3.13-1,4.65-1.61a3.47,3.47,0,0,0,2.42-3.54,3.15,3.15,0,0,0-2.8-2.77c-4.13-.86-8.24-1.78-12.38-2.6-5.56-1.09-11-2.5-15.76-5.73-2.26-1.53-3.78-3.4-3.43-6.42.19-1.66.72-2.57,2.51-2.7,5.84-.44,11.68-1,17.51-1.47,3-.26,6.08-.49,9.1-.8a15.34,15.34,0,0,0,2.74-.64c1.47-.43,2.6-1.32,2.63-2.93s-1.26-2.48-2.65-2.89c-2.35-.7-4.74-1.31-7.15-1.79a72.8,72.8,0,0,1-17.73-5.62,4.73,4.73,0,0,1-1-.42c-1.34-1.09-2.65-2.22-4-3.34,1.38-.76,2.71-1.62,4.14-2.25,4.84-2.12,9.66-4.27,14.58-6.17,2.5-1,5.27-1.19,7.79-2.1,7.39-2.67,14.79-5.31,22-8.34,5.83-2.45,11.46-5.37,17.09-8.25,1.46-.74,1.87-.33,2.14.95a7.2,7.2,0,0,1,.14,1.39c.24,10,.56,20,.66,29.92,0,4.45-.43,8.9-.56,13.35a3.82,3.82,0,0,1-2,3.46c-3.5,2.16-7,4.38-10.43,6.56-.4.25-.94.36-1.21.7-.67.84-1.22,1.77-1.81,2.67a8.5,8.5,0,0,0,2.89-.26c3.28-1.57,6.47-3.32,9.7-5,1.94-1,2.23-.94,2.1,1.34-.4,7.37-1,14.73-1.4,22.1-.09,1.52-1.22,1.79-2.21,2.4q-6.74,4.15-13.39,8.42a8.43,8.43,0,0,0-2.56,2.37,7.92,7.92,0,0,0-.57,2.83,8.16,8.16,0,0,0,2.59-.15,25.16,25.16,0,0,0,3.3-2,65.89,65.89,0,0,1,19.69-8.32,10,10,0,0,1,5.14.2c8.9,3,17.81,5.93,26.56,9.32,7.38,2.86,13.88,7.39,20,12.4a20.14,20.14,0,0,1,4.33,5.47c1.46,2.52.93,4.38-1.75,5.42a39.13,39.13,0,0,1-9.77,2.66C653.36,946.32,646.9,946.47,640.46,946.85Z" transform="translate(-246.29 -38.25)"/><path class="cls-8" d="M355.73,483.76c-3.66-5.88-7.18-11.87-12.14-16.81-1.54-1.55-1.86-3.05-.57-5,1.83-2.72,3.4-5.63,5.28-8.32a5.13,5.13,0,0,1,2.77-1.79c5.63-1.42,11.2-.32,16.74.77a3.22,3.22,0,0,1,1.74,1c9.27,11,16,23.3,17.37,37.8,1,10.16,1.32,20.4,1.29,30.6,0,7.72-1.24,15.42-1.62,23.14-.8,16.17-4.57,31.76-8.9,47.25a215.38,215.38,0,0,1-14.92,38.73,61.24,61.24,0,0,1-5.76,9.24c-2.17,2.89-4,3.06-7.45,1.94-4.68-1.5-7.67-4.53-8.5-9.38-.77-4.5-1.41-9-1.85-13.59-.64-6.66-1.19-13.33-1.55-20-.54-10.28,1.09-20.39,2.92-30.44a227.85,227.85,0,0,1,5.3-24c2.07-6.94,5.25-13.55,8-20.27a87.91,87.91,0,0,0,6.73-29,47.62,47.62,0,0,0-4.76-22.88c-.26-.56-.9-1-1.36-1.42a7.49,7.49,0,0,0,0,2c.77,3.19,1.63,6.36,2.46,9.54Z" transform="translate(-246.29 -38.25)"/><path class="cls-3" d="M544.12,391.09c2.61-6.66,1.87-13.39.19-20-.92-3.63-2.38-7.12-3.53-10.69-1-3.05-.72-3.6,2.53-3.41a121,121,0,0,1,13.28,1.53c22.85,4,43.8,12.83,63.67,24.63,11.2,6.65,20.94,15.1,30.74,23.51,1.72,1.48,2.89,3.67,4.15,5.64A91.29,91.29,0,0,1,665.77,436c.57,1.94.37,2.12-1.46,1.65-1.25-.31-2.48-.71-3.71-1.11-16.78-5.44-34-8.85-51.35-12.08a491.41,491.41,0,0,0-53.36-7.12c-12.53-.94-25-2.21-37.55-3.19-4.32-.33-8.68-.24-13-.31-3.05-.06-6.1-.06-9.15-.09,2.21-3,4.34-6,6.65-8.9,7.43-9.29,14.93-18.52,22.4-27.77q2.4,3.86,4.81,7.72c1.25,2,2.36,4.07,3.78,5.93,2.68,3.53,4.72,4,8.83,2.39a5.22,5.22,0,0,1-.32,1.67c-1.86,3.08-1.87,3.06.33,5.94,2.76,3.62,5.41,7.33,8.28,10.85a8.29,8.29,0,0,0,3.77,2.86,38.08,38.08,0,0,0,7.27.8,4.77,4.77,0,0,0,1.57-.47,5.06,5.06,0,0,0-.6-1.49c-3.11-3.64-6.28-7.22-9.39-10.87S547.26,394.85,544.12,391.09Zm87.75,35.48c.52-.18,1.31-.23,1.48-.58s-.11-1.09-.31-1.6a4.48,4.48,0,0,0-.81-1.14c-3.22-3.71-6.43-7.42-9.68-11.11q-8.1-9.22-16.26-18.41c-6.15-6.9-12.49-13.63-18.47-20.67-3.76-4.43-9.09-5.56-14-7.73-.45-.2-1.11.09-1.67.16a5,5,0,0,0,.61,1.76q8.21,9.38,16.49,18.67c2.49,2.8,5,5.54,7.5,8.37,3.91,4.5,7.72,9.08,11.64,13.57,2.93,3.35,6.29,6.37,8.88,9.95C621,422.88,625.53,426,631.87,426.57Z" transform="translate(-246.29 -38.25)"/><path class="cls-5" d="M296.83,505.16c-.29,11.12-2.32,22-4.81,32.7-2.91,12.57-6.16,25.06-9.17,37.61-2,8.47-3.43,17.08-3,25.79.45,9.24,1.72,18.44,2.21,27.68.26,4.88-.52,9.81-.57,14.72q-.17,15.32,0,30.63c0,3.62.55,7.24.83,10.87a7.46,7.46,0,0,1-.1,1c-.4-.13-.92-.15-1.19-.42-5.65-5.64-11.29-11.27-14.41-18.9-2.48-6.08-5.55-11.93-7.87-18.07-4-10.49-5.85-21.47-6.68-32.63-.88-11.85-.36-23.71.18-35.53a243.8,243.8,0,0,1,7.08-47.95c4.62-18.55,9.53-37,14.25-55.55,1.16-4.55,2.11-9.15,3.06-13.74.31-1.49.94-1.83,2.12-1a28.9,28.9,0,0,1,4.42,3.47c7.44,8,11.19,17.73,12.68,28.4C296.36,497.89,296.51,501.54,296.83,505.16Z" transform="translate(-246.29 -38.25)"/><path class="cls-9" d="M411.52,550.07a13.16,13.16,0,0,1-1.59.58c-.67.16-1.36.22-2,.32a7.33,7.33,0,0,0,.89,2.16c4,4.58,8.12,9.06,12.12,13.64,3.85,4.4,7.6,8.88,11.39,13.33q6.24,7.35,12.46,14.72,7.46,8.85,14.86,17.74c.45.54.72,1.22,1.18,1.75.9,1.05.59,1.68-.36,2.61-4.59,4.51-9.06,9.14-13.57,13.72l-.73.77c-5.27,5.51-10.59,11-15.78,16.54-3,3.25-5.87,6.66-8.74,10.06-2,2.41-2.88,2.6-5,.32-6.19-6.55-12.3-13.19-18.45-19.79-2.64-2.82-5.29-5.63-7.93-8.46-4.32-4.61-8.64-9.24-13-13.82-.36-.39-1-.48-1.56-.71,5.9-17,10-34.4,13.58-52,.83-4.13,1.31-8.34,1.74-12.54.19-1.84.62-2.74,2.7-2.53C399.6,549.1,405.56,549.56,411.52,550.07Z" transform="translate(-246.29 -38.25)"/><path class="cls-3" d="M377,628.26c2.09,2.21,4.15,4.42,6.26,6.61q9.39,9.76,18.81,19.51,5,5.19,10.23,10.22c1.47,1.42,1.62,2.54.15,4.14-2.61,2.84-5,5.9-7.5,8.82-2.17,2.5-2.24,2.93.08,5.19,4.71,4.57,2.72,3.87,7.67.34a61.69,61.69,0,0,0,7.57-6.81c1.4-1.39,2.32-1.43,3.73,0,8.76,8.86,17.64,17.6,26.39,26.47q14.22,14.41,28.29,29,5.27,5.43,10.34,11a10.3,10.3,0,0,0,6,3.38,45.35,45.35,0,0,1,5.37,1.63c.88.27,1.5.07,1.11-.95-.67-1.76.44-2.53,1.57-3.47,2.87-2.4,5.69-4.86,8.51-7.32,5.55-4.85,11.08-9.73,16.64-14.57,3.36-2.92,6.81-5.72,10.09-8.72,1.41-1.28,2.28-1.17,3.43.23a262.58,262.58,0,0,1,18.14,24.1c1.62,2.51,3.66,4.67,7.14,4.13-12.78,4.34-25.64,8.6-39.15,9.71a186.21,186.21,0,0,1-25.66.18c-9.55-.53-18.7-3.44-27.55-6.93-23.05-9.09-41.82-24-57.45-43-6.34-7.71-12.76-15.36-19-23.15a45.59,45.59,0,0,1-5.57-8.5c-4.14-8.54-8.29-17.11-11.8-25.92C378.86,638.73,378.2,633.38,377,628.26Z" transform="translate(-246.29 -38.25)"/><path class="cls-10" d="M805.64,533.84c-.61,6.66-1.18,13.33-1.89,20-.08.8-1.17,1.46-1.4,2.3-.29,1-.62,2.54-.11,3.2s2.13.77,3.1.5c1.42-.4,2.63-1.53,4-2,2.43-.85,3.59.11,2.73,2.54a28.48,28.48,0,0,1-3.84,7.43A70.45,70.45,0,0,1,795,581.83a28.75,28.75,0,0,0-4.55,4.41c-.53.64-.38,1.86-.54,2.81,1,.06,2.12.47,2.92.12a17.42,17.42,0,0,0,3.39-2.48c1-.81,2-1.69,3-2.45.13-.09,1,.42,1,.58-.77,5.94-1.54,11.88-2.49,17.79a4,4,0,0,1-1.86,2.28q-19.67,12.06-39.41,24c-1.1.67-2.24,1.28-3.36,1.94-7.31,4.31-15.14,6.3-23.64,5.18-5-.66-10-1.4-15-2a4.87,4.87,0,0,1-4.22-3.17c-2.93-6.53-6.31-12.89-8.87-19.56-2.05-5.33-3.17-11-4.67-16.57a4.31,4.31,0,0,1,.1-1.37,6,6,0,0,1,1.55.28c6.16,2.89,12.26,5.94,18.49,8.68a91.45,91.45,0,0,0,10.31,3.54A28.81,28.81,0,0,0,749,604c8.29-4.16,16.4-8.66,24.55-13.09a20.77,20.77,0,0,0,10.56-13.07q2.52-9.15,4.84-18.37c1.94-7.74,3.34-15.63,7-22.85,1.81-3.59,3.69-7.11,6.86-9.71a10,10,0,0,1,1.77-.94,8.89,8.89,0,0,1,.52,1.91c.06,2,0,4,0,6Z" transform="translate(-246.29 -38.25)"/><path class="cls-9" d="M444.68,373.69l.12-.17.21,0,1.07-.71c1.72-1.2,3.39-2.47,5.17-3.58A68.55,68.55,0,0,0,474,345.76c3.69-6.15,5.79-7,12-3.72,14.07,7.41,26.22,17.17,35.58,30.16a15.5,15.5,0,0,0-2.84,1.87c-2,2.09-3.89,4.36-5.88,6.49-7.85,8.35-15.75,16.66-23.58,25-2.47,2.64-4.78,5.43-7.16,8.16l-9.94.59-.68-.53a6.65,6.65,0,0,0-.83-1.48c-8.88-9.5-17.71-19-26.71-28.43-2.38-2.47-3.51-4.88-2.09-8.14l.64-.85,1.29-.65Z" transform="translate(-246.29 -38.25)"/><path class="cls-8" d="M553,840.65l-6.67.45c-1.18.08-1.63-.42-1.71-1.63-.39-6-.8-11.94-1.36-17.9-.15-1.55.56-2.33,1.52-3.27,5.86-5.78,11.67-11.61,17.5-17.42a232.71,232.71,0,0,0,29.22-35.69c2.48-3.7,4.63-7.63,7-11.43a6.67,6.67,0,0,1,1.2-1.17,7.06,7.06,0,0,1,.7,1.57c1.73,9.48,3.69,18.92,5.06,28.45,1.65,11.39,2.74,22.86,4.17,34.28.34,2.73-.11,4.81-2.84,6-1.28.57-2.38,1.56-3.67,2.08-11.13,4.41-22.23,8.92-33.45,13.07A42.4,42.4,0,0,1,553,840.65Z" transform="translate(-246.29 -38.25)"/><path class="cls-8" d="M431.35,835.19c-3.3-.22-8.34-.52-13.37-.89-2.76-.21-2.78-.32-2.61-2.91.38-6,.76-12,1.08-17.94.06-1.23.17-2.07,1.54-2.74a155.58,155.58,0,0,0,34.28-23.36c9.84-8.71,18.94-18.25,28.36-27.44.42-.41.78-.89,1.21-1.28a9.49,9.49,0,0,1,1.1-.78,4.58,4.58,0,0,1,.53,1.5c-.21,8.81-.12,17.64-.8,26.41-1,13-2.64,25.94-3.8,38.93-.22,2.48-1.33,3.24-3.44,4C461.69,833.33,447.51,834.85,431.35,835.19Z" transform="translate(-246.29 -38.25)"/><path class="cls-11" d="M531.87,419.46c11.56,1,22.1,1.88,32.63,2.73,1.67.14,2.54.29,2,2.48a48.68,48.68,0,0,0-1.06,8.72c-.61,10.44-1.12,20.89-1.68,31.33-.15,2.66-.17,2.47-2.86,2.29-10.08-.66-20.16-1.2-30.24-1.75a12.72,12.72,0,0,0-2.45.24c-2.58.39-2.73.41-2.87-2.27a263.17,263.17,0,0,0-6.12-41.8c-.38-1.71.13-2,1.65-2C524.87,419.5,528.87,419.46,531.87,419.46Z" transform="translate(-246.29 -38.25)"/><path class="cls-11" d="M372.79,405.37c3.08-7.09,6-14.25,9.28-21.25,2.87-6.17,5.91-12.28,9.26-18.2,3.7-6.52,7.79-12.82,11.8-19.16,1-1.65,1.41-1.54,2.23.27a25.91,25.91,0,0,1,1.58,15.88,107.39,107.39,0,0,1-4.31,16.65c-1.75,4.81.9,6.9,4.54,6.64,5.24-.39,10.44-1.26,15.65-1.93a28.39,28.39,0,0,1-2.49,3.24c-3.42,3.38-7,6.56-10.36,10-6.33,6.6-12.51,13.34-18.73,20-1.33,1.43-2.46,1.38-3.86,0-3.62-3.51-7.29-7-11.05-10.32A16.65,16.65,0,0,0,372.79,405.37Z" transform="translate(-246.29 -38.25)"/><path class="cls-11" d="M466.75,414.61a40.59,40.59,0,0,1-4.51.48c-11.18,0-22.3.74-33.43,1.69a272,272,0,0,0-44.71,7.87c-6.59,1.69-13.24,3.17-19.85,4.78-1.12.27-1.65.18-1.1-1.12q4.08-9.72,8.14-19.44c3.62,4,7.33,7.87,10.82,12,1.93,2.24,3.89,2.39,6.56,1.52,5.21-1.71,10.52-3.32,16-3.48a7,7,0,0,0,5.85-3.17c5.65-7.44,11.24-14.93,17-22.31,2.08-2.67,4.47-5.1,6.78-7.59,1.11-1.2,2.11-1,3.21.26,4.51,5.23,9.08,10.39,13.65,15.56,2.48,2.81,5.24,5.4,7.39,8.44A9.59,9.59,0,0,0,466.75,414.61Z" transform="translate(-246.29 -38.25)"/><path class="cls-12" d="M466.75,414.61a9.59,9.59,0,0,1-8.19-4.55c-2.15-3-4.91-5.63-7.39-8.44-4.57-5.17-9.14-10.33-13.65-15.56-1.1-1.27-2.1-1.46-3.21-.26-2.31,2.49-4.7,4.92-6.78,7.59-5.74,7.38-11.33,14.87-17,22.31a7,7,0,0,1-5.85,3.17c-5.51.16-10.82,1.77-16,3.48-2.67.87-4.63.72-6.56-1.52-3.49-4.09-7.2-8-10.82-12l1.5-3.5a16.65,16.65,0,0,1,3.54,1.9c3.76,3.35,7.43,6.81,11.05,10.32,1.4,1.36,2.53,1.41,3.86,0,6.22-6.7,12.4-13.44,18.73-20,3.32-3.46,6.94-6.64,10.36-10a28.39,28.39,0,0,0,2.49-3.24l18.38-8.59a5.06,5.06,0,0,0,.68.09c-1.42,3.26-.29,5.67,2.09,8.14,9,9.38,17.83,18.93,26.71,28.43a6.65,6.65,0,0,1,.83,1.48l-2.84.68Z" transform="translate(-246.29 -38.25)"/><path class="cls-13" d="M843.08,473.05l-.6,1.89c-.29.74-.57,1.47-.85,2.21-.12.19-.32.38-.32.57,0,.76.1,1.52.15,2.28.57-.55,1.13-1.09,1.68-1.65.07-.07.06-.21.08-.32l.48-1c1.1-3.58,2.18-7.16,3.29-10.73.23-.73.57-1.43.86-2.14.17.76.4,1.52.51,2.29,1.24,8.76.29,17.14-4.62,24.72A32.07,32.07,0,0,1,831.93,502c-1.87,1-3.21,1-4.81-.9-3.38-4.05-8-5.43-13.22-5.05a2.15,2.15,0,0,1-1.78-.9c-2.5-6.26,1-17.51,6.56-21.33a7.26,7.26,0,0,1,1.51-.9,4.07,4.07,0,0,1,1.22-.08,2.73,2.73,0,0,1,0,1c-.65,1.51-1.42,3-2,4.51a5.29,5.29,0,0,0,0,1.9c.59-.27,1.45-.39,1.74-.85,1.35-2.19,2.53-4.48,3.81-6.71a8,8,0,0,1,1.74-2.44c1.68-1.27,3.66-2.16,5.28-3.49s2.72-2.84,4.47-4.12a33.5,33.5,0,0,1-1.81,5.59c-3.17,6-6.57,11.9-9.84,17.86a20,20,0,0,0-1,2.68c.84-.56,2-.92,2.48-1.69,3.45-5.31,6.92-10.61,10.08-16.09,2.87-5,3.79-10.52,3.95-16.27A29.86,29.86,0,0,1,842.1,447c2.49,8.41,3.35,16.83,1.22,25.36Zm-3.52,13.14a5.8,5.8,0,0,0-.72-1c-.15-.12-.58-.15-.64-.06-.81,1.24-1.58,2.49-2.32,3.77a3,3,0,0,0,.68.48C837.57,488.32,838.55,487.26,839.56,486.19Z" transform="translate(-246.29 -38.25)"/><path class="cls-6" d="M509.13,545.34a15.68,15.68,0,0,1,3.16,2.11c2.55,2.74,5,5.6,7.35,8.48,1.65,2,1.93,2.07,3.82.27,1.45-1.38,2.81-2.84,4.26-4.22q13.63-13,27.3-25.89c.6-.56,1.16-1.17,1.74-1.75,1-1,.9-2,0-3.08-4.2-4.86-8.36-9.77-12.53-14.66-2.74-3.2-5.49-6.38-8.19-9.62-1.7-2-1.29-4.49-.63-6.68.62-2,3.1-2.26,4.56-.56,5.12,5.93,10.17,11.92,15.24,17.88a63,63,0,0,0,4.61,5.29,9,9,0,0,1,2.48,4.89c.73,3.31,1.42,6.62,2.15,9.93.24,1.1.33,1.94-1,2.57a10.83,10.83,0,0,0-3,2.39c-8.28,8.47-16.58,16.93-24.75,25.52-2,2.12-4.09,2.58-6.91,2.12a37.79,37.79,0,0,0-9.44-.4,8.21,8.21,0,0,1-7.86-3.54c-1.61-2.12-3.14-4.29-4.71-6.43l.77-1.4c.21-.52.42-1,.62-1.56a.47.47,0,0,1,.27-.52l.71-1.09Z" transform="translate(-246.29 -38.25)"/><path class="cls-6" d="M570.92,426.55c3.38-1.16,4.08-.91,6.08,1.5,2.69,3.24,5.51,6.38,8.25,9.56,4,4.7,8,9.45,12.15,14.08,3.67,4.11,7.48,8.09,11.24,12.12.56.6,1.18,1.15,1.72,1.77.82.95.87,1.65-.63,1.86-1.28.18-2.53.46-3.8.62-3.39.42-6.36.11-8.78-2.95-3.92-4.94-8.16-9.64-12.35-14.37-3.34-3.76-6.74-7.49-10.28-11.08a6.31,6.31,0,0,1-2.16-5.27c.14-1.84.32-3.82-1.53-5.12Z" transform="translate(-246.29 -38.25)"/><path class="cls-12" d="M393,516.11c2.67-2.87,5.32-5.76,8-8.6,2.21-2.32,3.88-5.28,7.22-6.33l4.1,2.68c.79.8,1.54,1.65,2.37,2.39,1.93,1.74,2,2.11.3,3.9q-7.11,7.51-14.27,15c-2.06,2.15-2.07,2.14-.13,4.42,2.8,3.28,5.62,6.54,8.41,9.84a7.81,7.81,0,0,1,.75,1.47c-.62.21-1.26.67-1.84.59-2.88-.37-5.68-1-8.66-.18-.73.2-2-1.24-2.94-2.09-1.34-1.26-2.56-2.67-3.83-4Q392.77,525.64,393,516.11Z" transform="translate(-246.29 -38.25)"/><path class="cls-14" d="M300.07,499.12c.45,3.54,1.13,7.06,1.32,10.6,1,17.75-2.14,35-6.33,52.16q-4.33,17.75-8.09,35.64c-1.36,6.51-2.13,13.15-3.17,19.74-.05.34-.15.67-.23,1a4.06,4.06,0,0,1-.44-1c-1.59-13.19-.34-26.23,2.51-39.09C288.33,566,291.58,554,294.59,542c3.22-12.9,5.38-25.93,4.75-39.29,0-.94,0-1.88,0-2.82a2.52,2.52,0,0,1,.18-.65Z" transform="translate(-246.29 -38.25)"/><path class="cls-12" d="M482.13,413.76c2.38-2.73,4.69-5.52,7.16-8.16,7.83-8.38,15.73-16.69,23.58-25,2-2.13,3.84-4.4,5.88-6.49a15.5,15.5,0,0,1,2.84-1.87l3.62,4.83c-7.47,9.25-15,18.48-22.4,27.77-2.31,2.89-4.44,5.93-6.65,8.9l-1.38,0h-5.62Z" transform="translate(-246.29 -38.25)"/><path class="cls-15" d="M343.73,512.24c-1.07-11.33,0-22.54,2-33.67.1-.55.3-1.08.45-1.63a7.25,7.25,0,0,1,1.59,1.14c7.4,9.46,10.17,19.72,5.33,31.27-2.77,6.61-5.53,13.22-8.33,19.81a4.11,4.11,0,0,1-.82,1,7.92,7.92,0,0,1-.24-1.33C343.72,523.28,343.73,517.76,343.73,512.24Z" transform="translate(-246.29 -38.25)"/><path class="cls-12" d="M373.3,438.76c.73-3,3-4.42,5.73-5,6.27-1.38,12.59-2.55,18.85-4a3.19,3.19,0,0,1,3.4,1c7,7,14,13.93,20.93,20.94,2,2,1.71,2.33-1.08,3.3s-4.61.32-6.58-1.72c-5.62-5.83-11.41-11.51-17.16-17.23-2.06-2-2.11-2-4.16,0-3.26,3.22-6.45,6.51-9.75,9.68a19.32,19.32,0,0,1-3.15,2Z" transform="translate(-246.29 -38.25)"/><path class="cls-16" d="M826.37,582.57c-.09,7-5.16,10.43-10.93,8.39-5.12-1.8-8.58-5.07-10-10.42a3.75,3.75,0,0,1,.9-3.85c1.66-1.81,3.25-3.69,4.75-5.64a1.56,1.56,0,0,1,2.38-.45,12.43,12.43,0,0,0,7,1.9,2.64,2.64,0,0,1,1.74.84A14.58,14.58,0,0,1,826.37,582.57Z" transform="translate(-246.29 -38.25)"/><path class="cls-16" d="M826.84,509.84a9.16,9.16,0,0,1-9.28,9.1,10,10,0,0,1-9.94-10.22c.11-5.3,4.2-8.87,10.23-8.92C822.4,499.77,826.89,504.79,826.84,509.84Z" transform="translate(-246.29 -38.25)"/><path class="cls-16" d="M830.52,538.54a10.31,10.31,0,0,1-13.87,10.14c-5.08-1.95-6.44-6.33-3.41-10.87s7.58-6,12.7-6.26a2.19,2.19,0,0,1,1.73.86C828.88,534.77,829.92,537.22,830.52,538.54Z" transform="translate(-246.29 -38.25)"/><path class="cls-14" d="M343.26,474.11c-.3.85-.57,1.74-.92,2.6q-5.88,14.67-11.78,29.33c-2.31,5.75-4.6,11.52-6.93,17.27a5.2,5.2,0,0,1-.86,1.16,5.34,5.34,0,0,1-.08-1.37c1.38-6.63,2.53-13.32,4.24-19.87a168,168,0,0,1,11.41-31.3A30.22,30.22,0,0,1,340,469.3a35.14,35.14,0,0,1,2.58,2.75A7.1,7.1,0,0,1,343.26,474.11Z" transform="translate(-246.29 -38.25)"/><path class="cls-16" d="M829.17,558.38c-.14,9.77-7.95,12.85-14.46,10.06-1-.44-1-1-.74-1.91a59.15,59.15,0,0,0,1.78-6.77,4.67,4.67,0,0,0-1.84-5c-.52-.38-1.22-1.47-1.1-1.6.85-1,2.06-2.71,2.84-2.55,3.22.62,6.36,1.29,9.68.81.46-.07,1.31.66,1.56,1.21C827.87,554.86,828.69,557.15,829.17,558.38Z" transform="translate(-246.29 -38.25)"/><path class="cls-12" d="M544.12,391.09c3.14,3.76,6.25,7.54,9.42,11.27s6.28,7.23,9.39,10.87a5.06,5.06,0,0,1,.6,1.49,4.77,4.77,0,0,1-1.57.47,38.08,38.08,0,0,1-7.27-.8,8.29,8.29,0,0,1-3.77-2.86c-2.87-3.52-5.52-7.23-8.28-10.85-2.2-2.88-2.19-2.86-.33-5.94a5.22,5.22,0,0,0,.32-1.67Z" transform="translate(-246.29 -38.25)"/><path class="cls-16" d="M819.48,596.41a5.62,5.62,0,0,1-8.13,5.34c-6.25-2.72-7.62-10-6.52-15.54.08-.37.48-.68.72-1,.25.23.58.42.72.7,1.77,3.62,5.33,5.11,8.46,7.09a4.85,4.85,0,0,0,2,.63C819.4,593.91,819.4,593.88,819.48,596.41Z" transform="translate(-246.29 -38.25)"/><path class="cls-17" d="M800.94,631.92c1.6-9.24,3.18-18.49,4.83-27.73.41-2.26.53-2.24,2.47-1.18,2.93,1.62,3,1.66,2,4.77-2.47,7.33-5,14.63-7.62,21.93a24.63,24.63,0,0,1-1.19,2.49Z" transform="translate(-246.29 -38.25)"/><path class="cls-18" d="M553.76,478.13c-2.45-.19-4.91-.26-7.34-.62-.75-.11-1.39-1-2.08-1.52.67-.52,1.3-1.42,2-1.5,4.06-.48,8.14-.94,12.22-1.05,2.73-.07,4.2,1.07,3.94,2.5-.43,2.41-2.48,2.05-4.18,2.11-1.52.06-3.05,0-4.57,0Z" transform="translate(-246.29 -38.25)"/><path class="cls-5" d="M355.73,483.76l1.21-.91c.59,2.09,1.17,4.17,1.75,6.26l-.65.23Z" transform="translate(-246.29 -38.25)"/><path class="cls-3" d="M489.16,413.73h0Z" transform="translate(-246.29 -38.25)"/><path class="cls-19" d="M841.63,477.15c.28-.74.56-1.47.85-2.21L843.7,477l-.48,1Z" transform="translate(-246.29 -38.25)"/><path class="cls-11" d="M468.67,414.5l2.84-.68.68.53Z" transform="translate(-246.29 -38.25)"/><path class="cls-3" d="M509.12,545.39l-.71,1.09Z" transform="translate(-246.29 -38.25)"/><path class="cls-3" d="M508.14,547c-.2.52-.41,1-.62,1.56C507.73,548,507.94,547.52,508.14,547Z" transform="translate(-246.29 -38.25)"/><path class="cls-11" d="M441.88,375.77a5.06,5.06,0,0,1-.68-.09l1.32-.76Z" transform="translate(-246.29 -38.25)"/><path class="cls-11" d="M446.08,372.83l-1.07.71Z" transform="translate(-246.29 -38.25)"/><path class="cls-19" d="M843.08,473.05l.24-.71Z" transform="translate(-246.29 -38.25)"/><path class="cls-7" d="M405.13,837.82l-.25-.35.36.25Z" transform="translate(-246.29 -38.25)"/><path class="cls-11" d="M444.68,373.69l-.87.58Z" transform="translate(-246.29 -38.25)"/><path class="cls-20" d="M556.61,131.79c-.6,3.68-1.19,7.37-1.83,11a7.84,7.84,0,0,1-.81,2.31c-2.27,4.19-6.45,4.77-9.39,1a116.71,116.71,0,0,1-6.59-10c-2.7-4.24-4.88-8.91-8.1-12.71-4.83-5.71-10.28-10.92-15.62-16.18-3.33-3.29-6.86-6.4-10.46-9.4-3.86-3.22-8.09-6-11.84-9.37a76.56,76.56,0,0,1-9.68-10.13c-1.73-2.23-2.67-5.21-3.43-8-1.09-4,1.65-9.3,5.72-11.55,7.6-4.19,15.49-4.21,23.37-1A51.11,51.11,0,0,1,523.9,68.65c7.07,6.74,13.65,13.86,18.92,22.15A87.36,87.36,0,0,1,556,126.44a40.41,40.41,0,0,1,0,5.28Z" transform="translate(-246.29 -38.25)"/><path class="cls-20" d="M710,296.73c.29,10.78-7.88,18.25-17.88,19.68a49.3,49.3,0,0,1-30.89-5.69,68.75,68.75,0,0,1-10.64-7.42c-7.14-5.85-4-13,1.76-16.52a102.15,102.15,0,0,1,26.42-11.33c2.59-.73,5.13-1.68,7.75-2.28,7-1.63,12.8.73,17.3,6C708.11,284.17,709.89,290.2,710,296.73Z" transform="translate(-246.29 -38.25)"/><path class="cls-20" d="M401.45,280c-.62,2.37-1.31,5.06-2,7.75-.18.68-.46,1.33-.6,2a15.61,15.61,0,0,1-19.3,12.36c-11.18-2.73-18.81-10-20-22.2a21.19,21.19,0,0,1,19.14-23.27,16.73,16.73,0,0,1,12.19,3.75A26.76,26.76,0,0,1,400,272.65C400.8,274.82,400.94,277.21,401.45,280Z" transform="translate(-246.29 -38.25)"/><path class="cls-21" d="M494,598.67c4.65-10.26,8.71-20.82,15.25-30.1,5.18-7.35,10.65-9.24,19.26-6.89a28.56,28.56,0,0,1,4.73,1.35c6.08,2.87,11.9,1.84,17.65-.87,1.71-.8,3.38-1.65,5.06-2.49,7.71-3.9,12.93-3.44,20,3.44,3.33,3.22,5.91,7.29,8.45,11.22,4.78,7.4,9.28,15,13.89,22.48a41.26,41.26,0,0,0,10.73,12,7.35,7.35,0,0,1,1.61,1.36c.54.7,1.32,1.63,1.19,2.3s-1.33,1.18-2.14,1.32A257.91,257.91,0,0,0,559,628.16c-9.1,3.53-18.63,5.41-28.33,3.56a87.05,87.05,0,0,1-17.79-5.43c-10.14-4.36-20.74-5.78-31.56-6.47l-2.1.1-.07-.06,2.22-2.08c11-6.16,21.4-13.23,30.22-22.3,5.81-6,11.9-7.72,19.57-3.78,5.76,3,12,2.9,18.23,1.55a33.41,33.41,0,0,0,11-4.65c2.3-1.46,4.77-2.13,7.35-.92,4,1.88,8.09,3.71,11.93,5.93,7.3,4.22,14.46,8.71,21.68,13.08l3.2,1.64c-.78-.89-1.55-1.79-2.32-2.68-2.56-3.36-5.35-6.57-7.64-10.1-4.85-7.49-9.29-15.25-14.23-22.68a54.9,54.9,0,0,0-8-9.29c-4.15-3.93-8.93-4.14-13.95-1.35a66.42,66.42,0,0,1-8.27,3.91,20.9,20.9,0,0,1-17.73-.64,29.58,29.58,0,0,0-6-2.1c-5.7-1.52-10.58-.07-14,4.85a124,124,0,0,0-6.55,11.22c-3.47,6.38-6.82,12.84-10.21,19.26Zm85.08,5.87c-1.08-10.27.2-7.47-7.78-12.4-.7-.43-1.43-.81-2.15-1.2a6.23,6.23,0,0,0-6.68.15,35.38,35.38,0,0,1-16.54,5.4c-1.75.14-1.71.85-1.41,2.26.73,3.43,1.2,6.92,1.88,10.37a32.1,32.1,0,0,0,1.28,4.37,4.29,4.29,0,0,0,4.84,3.21c6.52-.73,13.07-1.26,19.5-2.46C578.09,613.11,579.5,610.72,579.09,604.54ZM523.67,617.7c1.05-.06,2.11-.1,3.16-.2,4.66-.45,9.32-.88,14-1.39,2.13-.23,3-1.47,2.69-3.62-.75-4.74-1.43-9.5-2.27-14.22a2.18,2.18,0,0,0-1.59-1.35,28.4,28.4,0,0,1-10.77-3c-5.71-2.66-10.47-.89-14.77,3a2.59,2.59,0,0,0-.75,2c1.13,4.78,2.25,9.58,3.68,14.27C518.32,617.56,519.25,618,523.67,617.7Z" transform="translate(-246.29 -38.25)"/><path class="cls-22" d="M542.4,650.14a19.86,19.86,0,0,1-11-2.36c-3-1.57-6.38-2.28-9.58-3.41a18,18,0,0,1-3.87-1.63,2.67,2.67,0,0,1-1.15-2.21,2.6,2.6,0,0,1,2-1.41,22.73,22.73,0,0,1,5.57.58c6.1,1.45,12.15.2,18.15-.45s11.7-2.23,17.54-3.37a6.87,6.87,0,0,1,3.1-.3c1.23.39,2.82,1.13,3.24,2.14s-.2,2.64-.73,3.83a5.29,5.29,0,0,1-2.06,1.87C557,647.65,549.93,650.48,542.4,650.14Z" transform="translate(-246.29 -38.25)"/><path class="cls-23" d="M540,657a33.35,33.35,0,0,1-15-3.58c-4.5-2.27-9-4.58-13.36-7.09-1-.58-1.54-2-2.28-3a19.78,19.78,0,0,1,3.44,1.23A77.17,77.17,0,0,0,534,652.77c8.94,2.05,17.49,0,25.72-3.56,4.53-2,8.95-4.13,12.69-7.47a16.89,16.89,0,0,1,3.52-2.32c.49-.26,1.24,0,1.88,0-.11.65,0,1.54-.36,1.92-2.17,2.13-4.22,4.51-6.74,6.13C561.67,653.25,551.88,656.94,540,657Z" transform="translate(-246.29 -38.25)"/><path class="cls-19" d="M494,598.67l1.66.06q-4.95,6.74-9.88,13.48l-.63-.53Z" transform="translate(-246.29 -38.25)"/><path class="cls-19" d="M481.37,617.78l-2.22,2.08c-1.42-.54-1.39-1.4-.4-2.3,1.42-1.3,2.92-2.52,4.39-3.78l.57.57Z" transform="translate(-246.29 -38.25)"/><path class="cls-19" d="M479.22,619.92l2.1-.1Z" transform="translate(-246.29 -38.25)"/><path class="cls-19" d="M484.52,612.4l.64-.72.63.53c-.23.25-.46.49-.68.74Z" transform="translate(-246.29 -38.25)"/><path class="cls-19" d="M483.82,613.1l.7-.7.59.55-.71.7Z" transform="translate(-246.29 -38.25)"/><path class="cls-19" d="M483.14,613.78l.68-.67.58.54-.69.7Z" transform="translate(-246.29 -38.25)"/><path class="cls-24" d="M412.35,503.86l-4.1-2.68c-2.46-2.72-2.32-2.64-.3-6.06,4.76-8.06,11.78-13.56,19.85-17.94.71-.39,1.39-.83,2.09-1.24l.71-.24.85-.44,6.2-2c8.86-.86,17.7-1.95,26.58-2.51,7.25-.46,14.53-.32,21.8-.39,3.56,0,7-.32,10.13-2.35.48-.31,1.26-.14,1.9-.2-.08.74.08,1.67-.3,2.18a4.45,4.45,0,0,1-2.25,1.6c-2,.51-2.3,2-2.69,3.63-.94,4-2,8-3.13,11.88-1.92,6.44-6.46,10.45-12.51,12.9-2.27.92-4.64,1.61-7,2.41h-.05c-7.28,1.1-14.55,2.36-21.86,3.24A100.05,100.05,0,0,1,412.35,503.86Zm27.78-.88c0-.31,0-.61.05-.92,4.47,0,8.93.05,13.4,0a65.51,65.51,0,0,0,21.4-3.79c4.8-1.72,8.91-4.52,10.87-9.41,1.78-4.46,3.1-9.1,4.59-13.67.43-1.32.35-2.16-1.53-2.1-5.05.16-10.1.16-15.16.1-1.59,0-2.06.43-2.41,2.08-1.81,8.45-7.89,13.49-15.76,13.38-6.65-.1-12.15-4.32-13.14-10.09-.43-2.48-.43-2.49-3-1.91-11.23,2.52-20.22,8.5-27.39,17.44-4.1,5.12-4.12,5.76,2.48,6.61C423,501.79,431.6,502.25,440.13,503Zm23.56-28.5a3.62,3.62,0,0,0-3.47,3.31,3.11,3.11,0,0,0,3.11,3.13,3.19,3.19,0,0,0,3.39-3.24A3.08,3.08,0,0,0,463.69,474.48Zm-4.42,5.85c-1.26-1-2-1.89-2.74-1.95-.59-.05-1.85,1.1-1.78,1.56a2.9,2.9,0,0,0,1.65,2.11C457,482.18,457.93,481.19,459.27,480.33Z" transform="translate(-246.29 -38.25)"/><path class="cls-22" d="M493.38,525.3c1.78-8,3.85-15.95,5.27-24,1.54-8.77,3-17.62,2.38-26.57-.52-7.36-1.43-14.69-2.16-22q-.48-6.06-.95-12.12c.45-1.53.41-3.55,2.48-3.85s3.31,1.42,3.92,3A98.38,98.38,0,0,1,508,451.06a113.49,113.49,0,0,1,3.38,25.06c.29,10.25-.83,20.35-4.49,30.1-3.22,8.57-6,17.3-9,26l-3.9,4L492,533.79C492.45,531,492.92,528.13,493.38,525.3Z" transform="translate(-246.29 -38.25)"/><path class="cls-25" d="M483,455.42a12.66,12.66,0,0,1-6.05,7.06,12.12,12.12,0,0,1-15.89-4c-.81-1.13-1.59-2.28-2.38-3.42l-.84-3.38c-.1-.41-.2-.83-.31-1.24q-.12-3.89-.25-7.77a15.13,15.13,0,0,1,5.79-6.67,16.57,16.57,0,0,1,13.21,1.26,19.69,19.69,0,0,1,7.25,16C483.39,454,483.22,454.7,483,455.42Z" transform="translate(-246.29 -38.25)"/><path class="cls-26" d="M476.32,437.29A16.57,16.57,0,0,0,463.11,436c2.31-3,4.66-6,6.92-9.12.58-.79,1.44-1.93,1.23-2.63-.59-2,.6-2.46,1.87-2.57,4.63-.37,9.29-.58,13.94-.8a5.72,5.72,0,0,1,1.61.42,7.09,7.09,0,0,1-.73,1.76c-3.32,4.18-3.29,4.13.4,8,2.34,2.43,4.51,5,6.84,7.47a21.38,21.38,0,0,0,2.73,2.05q.48,6,.95,12.11c-2.9-2.66-5.93-5.18-8.65-8-3.14-3.26-6-6.78-9-10.18-.75-.85-1.57-1-2.38-.12S477.16,436.33,476.32,437.29Z" transform="translate(-246.29 -38.25)"/><path class="cls-12" d="M437.65,473.27l-6.2,2-.85.44-.71.24c1.61-3.53,1.1-6.42-2-9.12-1.45-1.28-.86-2.35,1.17-2.88s4.27-1.59,6.14.67c.82,1,1.75.47,2.36-.33,3.71-4.86,8.94-5.44,14.47-5.34,1.26,0,2.52-.4,3.79-.48a8.35,8.35,0,0,1,1.94.35c-.14.64-.09,1.42-.46,1.88-2.41,3-4.9,5.93-7.38,8.87a3.37,3.37,0,0,1-3.73,1.17A9.09,9.09,0,0,0,437.65,473.27Z" transform="translate(-246.29 -38.25)"/><path class="cls-26" d="M493.38,525.3c-.46,2.83-.93,5.66-1.39,8.49-2.43-2.49-4.87-5-7.29-7.48-.57-.58-1.08-1.22-1.64-1.81q-7.85-8.22-15.71-16.43a11.09,11.09,0,0,1-1.16-1.31c-1.17-1.69-1-2,1-2.76a24.35,24.35,0,0,0,3-1.58h.05a12.17,12.17,0,0,1,2.93,1.75c4.48,4.78,8.86,9.65,13.26,14.5,1.33,1.47,2.52,3.08,3.92,4.48A22.24,22.24,0,0,0,493.38,525.3Z" transform="translate(-246.29 -38.25)"/><path class="cls-23" d="M457.88,451.71l.84,3.38c-17-.44-32.85,4.53-48.46,10.5a5.43,5.43,0,0,1-1.3.52c-1,.1-2.09.09-3.13.12.75-.81,1.34-2,2.26-2.38,5.84-2.4,11.71-4.77,17.66-6.88a95.65,95.65,0,0,1,29.68-5.08C456.25,451.87,457.06,451.77,457.88,451.71Z" transform="translate(-246.29 -38.25)"/><path class="cls-22" d="M434.21,437.08a4.72,4.72,0,0,1,5.14-5,5.24,5.24,0,0,1,5,5.29,5.35,5.35,0,0,1-4.87,5.09A5.28,5.28,0,0,1,434.21,437.08Z" transform="translate(-246.29 -38.25)"/><path class="cls-26" d="M494,536.21l3.9-4a75.31,75.31,0,0,1,5.26,5.47c1.23,1.53-.43,5.21-2.34,5.63a1.14,1.14,0,0,1-.93-.23C497.94,540.79,496,538.49,494,536.21Z" transform="translate(-246.29 -38.25)"/><path class="cls-26" d="M457.32,442.7q.14,3.89.25,7.77c-2,0-3.92.07-5.88-.05-.31,0-.89-1.19-.82-1.25C453.1,447.08,454,443.68,457.32,442.7Z" transform="translate(-246.29 -38.25)"/><path class="cls-23" d="M483,455.42c.18-.72.35-1.43.53-2.15,2.14-.19,4.6.19,4.89-3.06,0-.35.86-.88,1.3-.87a1.92,1.92,0,0,1,1.28,1,3.47,3.47,0,0,1-2.78,5.19A43.35,43.35,0,0,1,483,455.42Z" transform="translate(-246.29 -38.25)"/><path class="cls-24" d="M586.59,496.87c-.47-3.83.11-4.94,3.78-6.19,2.17-.74,4.47-1.13,6.71-1.68,8.12-.43,16.22-1.62,24.38-.92,4.67.39,9.33.87,14,1.16,8.91.54,17.84.91,26.76.06,2.45-.24,4.93-.36,7.34-.84,1.17-.23,2.16-1.24,3.3-1.76a6.7,6.7,0,0,1,1.92-.28c.08.62.44,1.39.2,1.84-4.44,8.4-8.32,17.14-14.36,24.6a23.26,23.26,0,0,1-17.44,8.77,126.25,126.25,0,0,1-28.79-1.52,34.11,34.11,0,0,1-22.51-13.87c-.54-.75-1.19-1.44-1.79-2.15.72-2.92-1.45-4.84-2.5-7.15C587.52,496.8,586.94,496.89,586.59,496.87Zm47.6,21.42c1.55,0,3.31,0,5.07,0,8.29.19,14.78-3.16,19.53-9.91.88-1.25,1.78-2.49,2.56-3.79,2.41-4,4.77-8.09,7.12-12.16a8,8,0,0,0,.52-1.57,16.83,16.83,0,0,0-1.74,0c-4.08.44-8.15,1-12.24,1.33-1.83.15-2.56.74-2.83,2.67-.9,6.46-4.63,10.75-10.91,12.42a17.4,17.4,0,0,1-15.13-2.47c-3.95-2.77-5-6.6-4.29-11.12.24-1.46-.43-1.9-1.7-1.93a102.15,102.15,0,0,0-10.92-.17c-5.71.49-11.41,1.3-17.07,2.27-2.6.45-2.72,1.08-1.72,3.37,4.08,9.38,10.7,15.8,20.9,18.26A84.09,84.09,0,0,0,634.19,518.29Zm9.45-17.59a3.51,3.51,0,0,0,3.68-3.73,3.46,3.46,0,0,0-3.56-3.48,3.81,3.81,0,0,0-3.73,3.8A3.41,3.41,0,0,0,643.64,500.7ZM632,497c-.33-.32-.53-.66-.73-.66s-.47.3-.71.47c.18.23.32.59.55.66S631.56,497.26,632,497Z" transform="translate(-246.29 -38.25)"/><path class="cls-22" d="M685.25,491.15C686.33,505,682.81,518.94,680,533a8.51,8.51,0,0,1-1,3c-.45.7-1.42,1.54-2.11,1.49s-1.42-1.09-1.71-1.86a7.89,7.89,0,0,1-.34-3.11c.15-2.81.42-5.62.65-8.42.88-10.64,1.84-21.28,2.61-31.92.43-5.86.54-11.74.79-17.6,0-.47,0-.94,0-1.41,0-1.6.22-3.19,2.21-3.45s2.95,1.29,3.33,2.93a31.23,31.23,0,0,1,.81,5.92C685.34,482.49,685.25,486.49,685.25,491.15Z" transform="translate(-246.29 -38.25)"/><path class="cls-25" d="M662.69,471.36a13.71,13.71,0,0,1-7.36-2.76c-4-3.21-6.21-7.12-5.21-12.4,1.4-2.07,2.81-4.14,4.21-6.22,4.56-2.68,8.88-2.2,13.56.17a9.53,9.53,0,0,1,5,11.41,50.79,50.79,0,0,1-2.51,5.73A13.54,13.54,0,0,1,662.69,471.36Z" transform="translate(-246.29 -38.25)"/><path class="cls-26" d="M654.33,450c-1.4,2.08-2.81,4.15-4.21,6.22-1.72-2.2-3.42-4.42-5.17-6.6-1.22-1.51-2.15-1.56-3.41-.07-4.06,4.82-8.14,9.62-12,14.57-1.8,2.3-3.68,3.84-6.77,3.37-1.8-.27-3.64-.35-5.45-.52,1-1.37,1.83-2.82,2.91-4.09,2.88-3.38,5.91-6.62,8.74-10a61.72,61.72,0,0,0,3.63-5.47c5.93.76,8-1.77,6.13-7.41C646.84,440.52,651.75,443.41,654.33,450Z" transform="translate(-246.29 -38.25)"/><path class="cls-12" d="M621.46,488.08c-8.16-.7-16.26.49-24.38.92a16.17,16.17,0,0,1,1.84-3.2c2.13-2.33,4.44-4.49,6.66-6.74,1.12-1.13,2.64-2.1,1.8-4.15-.07-.17.85-1.06,1.28-1,3.25.14,6.49.4,9.73.73a2,2,0,0,1,1.22,1c2.14,4,5.4,7,8.92,9.7a5.46,5.46,0,0,1,1,.94c.7.94.4,1.55-.74,1.6C626.37,488,623.91,488,621.46,488.08Z" transform="translate(-246.29 -38.25)"/><path class="cls-23" d="M615.76,472.05c-5.61-.16-14,1.43-22.49,2.88a16.18,16.18,0,0,1-3.59-.19c.94-.91,1.72-2.19,2.84-2.66,5.62-2.33,11.62-2.68,17.6-3.2,16-1.39,31.07,1.89,45.67,8.08a45,45,0,0,1,5.27,2.8c.39.23.5.94.74,1.43a5.1,5.1,0,0,1-1.65,0c-5.57-1.84-11.08-3.87-16.7-5.57C635.43,473.21,627.18,472.05,615.76,472.05Z" transform="translate(-246.29 -38.25)"/><path class="cls-12" d="M679.28,544.19a27.34,27.34,0,0,1-2,4.23c-1.3,1.8-1.89,1.66-3.39-.14-6.43-7.71-12.92-15.39-19.3-23.15-.72-.88-1.52-2.64-1.13-3.27a7.69,7.69,0,0,1,3.58-2.6c.45-.19,1.59.8,2.17,1.46,3.18,3.58,6.29,7.24,9.42,10.86q4.36,5,8.73,10.07C678,542.42,678.55,543.25,679.28,544.19Z" transform="translate(-246.29 -38.25)"/><path class="cls-10" d="M586.59,496.87c.35,0,.93-.07,1,.07,1,2.31,3.22,4.23,2.5,7.15-3.65,3.29-7.28,6.6-11,9.84a13,13,0,0,1-2.34,1.33c-.31-.82-.6-1.64-.95-2.44-1.4-3.18-.4-5.59,2.21-7.69,2.27-1.83,4.39-3.86,6.52-5.86A24.64,24.64,0,0,0,586.59,496.87Z" transform="translate(-246.29 -38.25)"/><path class="cls-26" d="M662.69,471.36a13.54,13.54,0,0,0,7.67-4.07c1.4,2,2.86,3.93,4.18,6s-.36,5.61-2.64,6a1.69,1.69,0,0,1-1.3-.26C667.93,476.5,665.32,473.92,662.69,471.36Z" transform="translate(-246.29 -38.25)"/><path class="cls-22" d="M638.7,439.94c1.9,5.64-.2,8.17-6.13,7.41-3.3-3.19-3.51-6-.57-8,1.94-1.37,3.94-.91,5.92-.06l.8.7Z" transform="translate(-246.29 -38.25)"/><path class="cls-26" d="M638.72,440l-.8-.7Z" transform="translate(-246.29 -38.25)"/><path class="cls-9" d="M533.1,702.8a29.56,29.56,0,0,1-2,2.38c-5.32,5.13-10.86,10.05-16,15.38s-9.74,10.77-14.37,16.35c-4.1,4.94-4.08,5.06-8.65.5-7.48-7.48-15-14.92-22.43-22.47-5.84-5.93-11.6-12-17.32-18-6.77-7.16-13.44-14.4-20.2-21.57-5-5.26-5-5.23,0-10.22,7.73-7.74,15.51-15.43,23.19-23.21,4.2-4.26,8.21-8.7,12.37-13,2.71-2.79,3-2.64,5.33.27,4.86,6,9.84,11.9,14.75,17.86s9.92,12.14,14.91,18.18c4,4.78,8,9.5,11.92,14.28q8.16,9.88,16.24,19.82A39.09,39.09,0,0,1,533.1,702.8Z" transform="translate(-246.29 -38.25)"/><path class="cls-6" d="M631.87,426.57c-6.34-.57-10.89-3.69-14.56-8.76-2.59-3.58-5.95-6.6-8.88-9.95-3.92-4.49-7.73-9.07-11.64-13.57-2.46-2.83-5-5.57-7.5-8.37Q581,376.6,572.8,367.25a5,5,0,0,1-.61-1.76c.56-.07,1.22-.36,1.67-.16,4.87,2.17,10.2,3.3,14,7.73,6,7,12.32,13.77,18.47,20.67q8.18,9.16,16.26,18.41c3.25,3.69,6.46,7.4,9.68,11.11a4.48,4.48,0,0,1,.81,1.14c.2.51.5,1.21.31,1.6S632.39,426.39,631.87,426.57Z" transform="translate(-246.29 -38.25)"/><path class="cls-19" d="M839.56,486.19c-1,1.07-2,2.13-3,3.15a3,3,0,0,1-.68-.48c.74-1.28,1.51-2.53,2.32-3.77.06-.09.49-.06.64.06A5.8,5.8,0,0,1,839.56,486.19Z" transform="translate(-246.29 -38.25)"/><path class="cls-1" d="M841.63,477.15l1.59.88c0,.11,0,.25-.08.32-.55.56-1.11,1.1-1.68,1.65-.05-.76-.13-1.52-.15-2.28C841.31,477.53,841.51,477.34,841.63,477.15Z" transform="translate(-246.29 -38.25)"/><path class="cls-27" d="M483.71,614.35l.69-.7.71-.7c.22-.25.45-.49.68-.74q4.93-6.74,9.88-13.48c3.39-6.42,6.74-12.88,10.21-19.26a124,124,0,0,1,6.55-11.22c3.37-4.92,8.25-6.37,14-4.85a29.58,29.58,0,0,1,6,2.1,20.9,20.9,0,0,0,17.73.64,66.42,66.42,0,0,0,8.27-3.91c5-2.79,9.8-2.58,13.95,1.35a54.9,54.9,0,0,1,8,9.29c4.94,7.43,9.38,15.19,14.23,22.68,2.29,3.53,5.08,6.74,7.64,10.1l-.88,1c-7.22-4.37-14.38-8.86-21.68-13.08-3.84-2.22-7.91-4.05-11.93-5.93-2.58-1.21-5.05-.54-7.35.92a33.41,33.41,0,0,1-11,4.65c-6.27,1.35-12.47,1.42-18.23-1.55-7.67-3.94-13.76-2.19-19.57,3.78-8.82,9.07-19.21,16.14-30.22,22.3Zm26.54-24.81a21.23,21.23,0,0,0,2.63-1.19q6.66-3.92,13.24-8a24.09,24.09,0,0,0,4.27-3,5,5,0,0,0,1-6.43,5.94,5.94,0,0,0-6.21-3,13.28,13.28,0,0,0-3,1c-7.22,3.33-11.07,9.86-15.23,16.09a2.8,2.8,0,0,0-.36,1C506.11,588.11,507.39,589.6,510.25,589.54ZM564.73,578a8.08,8.08,0,0,0,7.46-7.5,7.59,7.59,0,1,0-7.46,7.5Z" transform="translate(-246.29 -38.25)"/><path class="cls-28" d="M579.09,604.54c.41,6.18-1,8.57-7.06,9.7-6.43,1.2-13,1.73-19.5,2.46a4.29,4.29,0,0,1-4.84-3.21,32.1,32.1,0,0,1-1.28-4.37c-.68-3.45-1.15-6.94-1.88-10.37-.3-1.41-.34-2.12,1.41-2.26a35.38,35.38,0,0,0,16.54-5.4,6.23,6.23,0,0,1,6.68-.15c.72.39,1.45.77,2.15,1.2C579.29,597.07,578,594.27,579.09,604.54Z" transform="translate(-246.29 -38.25)"/><path class="cls-28" d="M523.67,617.7c-4.42.31-5.35-.14-6.65-4.41-1.43-4.69-2.55-9.49-3.68-14.27a2.59,2.59,0,0,1,.75-2c4.3-3.93,9.06-5.7,14.77-3a28.4,28.4,0,0,0,10.77,3,2.18,2.18,0,0,1,1.59,1.35c.84,4.72,1.52,9.48,2.27,14.22.34,2.15-.56,3.39-2.69,3.62-4.65.51-9.31.94-14,1.39C525.78,617.6,524.72,617.64,523.67,617.7Z" transform="translate(-246.29 -38.25)"/><path class="cls-7" d="M601.3,606.69l.88-1c.77.89,1.54,1.79,2.32,2.68Z" transform="translate(-246.29 -38.25)"/><path class="cls-28" d="M440.13,503c-8.53-.73-17.1-1.19-25.59-2.29-6.6-.85-6.58-1.49-2.48-6.61,7.17-8.94,16.16-14.92,27.39-17.44,2.56-.58,2.56-.57,3,1.91,1,5.77,6.49,10,13.14,10.09,7.87.11,13.95-4.93,15.76-13.38.35-1.65.82-2.1,2.41-2.08,5.06.06,10.11.06,15.16-.1,1.88-.06,2,.78,1.53,2.1-1.49,4.57-2.81,9.21-4.59,13.67-2,4.89-6.07,7.69-10.87,9.41a65.51,65.51,0,0,1-21.4,3.79c-4.47.06-8.93,0-13.4,0C440.16,502.37,440.15,502.67,440.13,503Z" transform="translate(-246.29 -38.25)"/><path class="cls-18" d="M463.69,474.48a3.08,3.08,0,0,1,3,3.2,3.19,3.19,0,0,1-3.39,3.24,3.11,3.11,0,0,1-3.11-3.13A3.62,3.62,0,0,1,463.69,474.48Z" transform="translate(-246.29 -38.25)"/><path class="cls-18" d="M459.27,480.33c-1.34.86-2.23,1.85-2.87,1.72a2.9,2.9,0,0,1-1.65-2.11c-.07-.46,1.19-1.61,1.78-1.56C457.3,478.44,458,479.37,459.27,480.33Z" transform="translate(-246.29 -38.25)"/><path class="cls-4" d="M430.6,475.7l.85-.44Z" transform="translate(-246.29 -38.25)"/><path class="cls-28" d="M634.19,518.29a84.09,84.09,0,0,1-22.85-2.79c-10.2-2.46-16.82-8.88-20.9-18.26-1-2.29-.88-2.92,1.72-3.37,5.66-1,11.36-1.78,17.07-2.27a102.15,102.15,0,0,1,10.92.17c1.27,0,1.94.47,1.7,1.93-.75,4.52.34,8.35,4.29,11.12a17.4,17.4,0,0,0,15.13,2.47c6.28-1.67,10-6,10.91-12.42.27-1.93,1-2.52,2.83-2.67,4.09-.32,8.16-.89,12.24-1.33a16.83,16.83,0,0,1,1.74,0,8,8,0,0,1-.52,1.57c-2.35,4.07-4.71,8.12-7.12,12.16-.78,1.3-1.68,2.54-2.56,3.79-4.75,6.75-11.24,10.1-19.53,9.91C637.5,518.26,635.74,518.29,634.19,518.29Z" transform="translate(-246.29 -38.25)"/><path class="cls-18" d="M643.64,500.7a3.41,3.41,0,0,1-3.61-3.41,3.81,3.81,0,0,1,3.73-3.8,3.46,3.46,0,0,1,3.56,3.48A3.51,3.51,0,0,1,643.64,500.7Z" transform="translate(-246.29 -38.25)"/><path class="cls-7" d="M632,497c-.41.23-.7.53-.89.47s-.37-.43-.55-.66c.24-.17.47-.47.71-.47S631.64,496.71,632,497Z" transform="translate(-246.29 -38.25)"/><path class="cls-29" d="M510.25,589.54c-2.86.06-4.14-1.43-3.68-3.59a2.8,2.8,0,0,1,.36-1c4.16-6.23,8-12.76,15.23-16.09a13.28,13.28,0,0,1,3-1,5.94,5.94,0,0,1,6.21,3,5,5,0,0,1-1,6.43,24.09,24.09,0,0,1-4.27,3q-6.58,4.05-13.24,8A21.23,21.23,0,0,1,510.25,589.54Z" transform="translate(-246.29 -38.25)"/><path class="cls-29" d="M564.73,578a7.58,7.58,0,1,1,7.46-7.5A8.08,8.08,0,0,1,564.73,578Z" transform="translate(-246.29 -38.25)"/></svg>